  0
SECTION
  2
HEADER
  9
$ACADVER
  1
AC1024
  9
$ACADMAINTVER
 70
6
  9
$DWGCODEPAGE
  3
ANSI_1252
  9
$LASTSAVEDBY
  1
ezdxf
  9
$INSBASE
 10
0.0
 20
0.0
 30
0.0
  9
$EXTMIN
 10
1e+20
 20
1e+20
 30
1e+20
  9
$EXTMAX
 10
-1e+20
 20
-1e+20
 30
-1e+20
  9
$LIMMIN
 10
0.0
 20
0.0
  9
$LIMMAX
 10
420.0
 20
297.0
  9
$ORTHOMODE
 70
0
  9
$REGENMODE
 70
1
  9
$FILLMODE
 70
1
  9
$QTEXTMODE
 70
0
  9
$MIRRTEXT
 70
1
  9
$LTSCALE
 40
1.0
  9
$ATTMODE
 70
1
  9
$TEXTSIZE
 40
2.5
  9
$TRACEWID
 40
1.0
  9
$TEXTSTYLE
  7
Standard
  9
$CLAYER
  8
0
  9
$CELTYPE
  6
ByLayer
  9
$CECOLOR
 62
256
  9
$CELTSCALE
 40
1.0
  9
$DISPSILH
 70
0
  9
$DIMSCALE
 40
1.0
  9
$DIMASZ
 40
2.5
  9
$DIMEXO
 40
0.625
  9
$DIMDLI
 40
3.75
  9
$DIMRND
 40
0.0
  9
$DIMDLE
 40
0.0
  9
$DIMEXE
 40
1.25
  9
$DIMTP
 40
0.0
  9
$DIMTM
 40
0.0
  9
$DIMTXT
 40
2.5
  9
$DIMCEN
 40
2.5
  9
$DIMTSZ
 40
0.0
  9
$DIMTOL
 70
0
  9
$DIMLIM
 70
0
  9
$DIMTIH
 70
0
  9
$DIMTOH
 70
0
  9
$DIMSE1
 70
0
  9
$DIMSE2
 70
0
  9
$DIMTAD
 70
1
  9
$DIMZIN
 70
8
  9
$DIMBLK
  1

  9
$DIMASO
 70
1
  9
$DIMSHO
 70
1
  9
$DIMPOST
  1

  9
$DIMAPOST
  1

  9
$DIMALT
 70
0
  9
$DIMALTD
 70
3
  9
$DIMALTF
 40
0.03937007874
  9
$DIMLFAC
 40
1.0
  9
$DIMTOFL
 70
1
  9
$DIMTVP
 40
0.0
  9
$DIMTIX
 70
0
  9
$DIMSOXD
 70
0
  9
$DIMSAH
 70
0
  9
$DIMBLK1
  1

  9
$DIMBLK2
  1

  9
$DIMSTYLE
  2
ISO-25
  9
$DIMCLRD
 70
0
  9
$DIMCLRE
 70
0
  9
$DIMCLRT
 70
0
  9
$DIMTFAC
 40
1.0
  9
$DIMGAP
 40
0.625
  9
$DIMJUST
 70
0
  9
$DIMSD1
 70
0
  9
$DIMSD2
 70
0
  9
$DIMTOLJ
 70
0
  9
$DIMTZIN
 70
8
  9
$DIMALTZ
 70
0
  9
$DIMALTTZ
 70
0
  9
$DIMUPT
 70
0
  9
$DIMDEC
 70
2
  9
$DIMTDEC
 70
2
  9
$DIMALTU
 70
2
  9
$DIMALTTD
 70
3
  9
$DIMTXSTY
  7
Standard
  9
$DIMAUNIT
 70
0
  9
$DIMADEC
 70
0
  9
$DIMALTRND
 40
0.0
  9
$DIMAZIN
 70
0
  9
$DIMDSEP
 70
44
  9
$DIMATFIT
 70
3
  9
$DIMFRAC
 70
0
  9
$DIMLDRBLK
  1

  9
$DIMLUNIT
 70
2
  9
$DIMLWD
 70
-2
  9
$DIMLWE
 70
-2
  9
$DIMTMOVE
 70
0
  9
$DIMFXL
 40
1.0
  9
$DIMFXLON
 70
0
  9
$DIMJOGANG
 40
0.785398163397
  9
$DIMTFILL
 70
0
  9
$DIMTFILLCLR
 70
0
  9
$DIMARCSYM
 70
0
  9
$DIMLTYPE
  6

  9
$DIMLTEX1
  6

  9
$DIMLTEX2
  6

  9
$DIMTXTDIRECTION
 70
0
  9
$LUNITS
 70
2
  9
$LUPREC
 70
4
  9
$SKETCHINC
 40
1.0
  9
$FILLETRAD
 40
10.0
  9
$AUNITS
 70
0
  9
$AUPREC
 70
2
  9
$MENU
  1
.
  9
$ELEVATION
 40
0.0
  9
$PELEVATION
 40
0.0
  9
$THICKNESS
 40
0.0
  9
$LIMCHECK
 70
0
  9
$CHAMFERA
 40
0.0
  9
$CHAMFERB
 40
0.0
  9
$CHAMFERC
 40
0.0
  9
$CHAMFERD
 40
0.0
  9
$SKPOLY
 70
0
  9
$TDCREATE
 40
2460647.9830902778
  9
$TDUCREATE
 40
2458532.153996898
  9
$TDUPDATE
 40
2460647.9830902778
  9
$TDUUPDATE
 40
2458532.1544311
  9
$TDINDWG
 40
0.0
  9
$TDUSRTIMER
 40
0.0
  9
$USRTIMER
 70
1
  9
$ANGBASE
 50
0.0
  9
$ANGDIR
 70
0
  9
$PDMODE
 70
0
  9
$PDSIZE
 40
0.0
  9
$PLINEWID
 40
0.0
  9
$SPLFRAME
 70
0
  9
$SPLINETYPE
 70
6
  9
$SPLINESEGS
 70
8
  9
$HANDSEED
  5
50
  9
$SURFTAB1
 70
6
  9
$SURFTAB2
 70
6
  9
$SURFTYPE
 70
6
  9
$SURFU
 70
6
  9
$SURFV
 70
6
  9
$UCSBASE
  2

  9
$UCSNAME
  2

  9
$UCSORG
 10
0.0
 20
0.0
 30
0.0
  9
$UCSXDIR
 10
1.0
 20
0.0
 30
0.0
  9
$UCSYDIR
 10
0.0
 20
1.0
 30
0.0
  9
$UCSORTHOREF
  2

  9
$UCSORTHOVIEW
 70
0
  9
$UCSORGTOP
 10
0.0
 20
0.0
 30
0.0
  9
$UCSORGBOTTOM
 10
0.0
 20
0.0
 30
0.0
  9
$UCSORGLEFT
 10
0.0
 20
0.0
 30
0.0
  9
$UCSORGRIGHT
 10
0.0
 20
0.0
 30
0.0
  9
$UCSORGFRONT
 10
0.0
 20
0.0
 30
0.0
  9
$UCSORGBACK
 10
0.0
 20
0.0
 30
0.0
  9
$PUCSBASE
  2

  9
$PUCSNAME
  2

  9
$PUCSORG
 10
0.0
 20
0.0
 30
0.0
  9
$PUCSXDIR
 10
1.0
 20
0.0
 30
0.0
  9
$PUCSYDIR
 10
0.0
 20
1.0
 30
0.0
  9
$PUCSORTHOREF
  2

  9
$PUCSORTHOVIEW
 70
0
  9
$PUCSORGTOP
 10
0.0
 20
0.0
 30
0.0
  9
$PUCSORGBOTTOM
 10
0.0
 20
0.0
 30
0.0
  9
$PUCSORGLEFT
 10
0.0
 20
0.0
 30
0.0
  9
$PUCSORGRIGHT
 10
0.0
 20
0.0
 30
0.0
  9
$PUCSORGFRONT
 10
0.0
 20
0.0
 30
0.0
  9
$PUCSORGBACK
 10
0.0
 20
0.0
 30
0.0
  9
$USERI1
 70
0
  9
$USERI2
 70
0
  9
$USERI3
 70
0
  9
$USERI4
 70
0
  9
$USERI5
 70
0
  9
$USERR1
 40
0.0
  9
$USERR2
 40
0.0
  9
$USERR3
 40
0.0
  9
$USERR4
 40
0.0
  9
$USERR5
 40
0.0
  9
$WORLDVIEW
 70
1
  9
$SHADEDGE
 70
3
  9
$SHADEDIF
 70
70
  9
$TILEMODE
 70
1
  9
$MAXACTVP
 70
64
  9
$PINSBASE
 10
0.0
 20
0.0
 30
0.0
  9
$PLIMCHECK
 70
0
  9
$PEXTMIN
 10
1e+20
 20
1e+20
 30
1e+20
  9
$PEXTMAX
 10
-1e+20
 20
-1e+20
 30
-1e+20
  9
$PLIMMIN
 10
0.0
 20
0.0
  9
$PLIMMAX
 10
420.0
 20
297.0
  9
$UNITMODE
 70
0
  9
$VISRETAIN
 70
1
  9
$PLINEGEN
 70
0
  9
$PSLTSCALE
 70
1
  9
$TREEDEPTH
 70
3020
  9
$CMLSTYLE
  2
Standard
  9
$CMLJUST
 70
0
  9
$CMLSCALE
 40
20.0
  9
$PROXYGRAPHICS
 70
1
  9
$MEASUREMENT
 70
1
  9
$CELWEIGHT
370
-1
  9
$ENDCAPS
280
0
  9
$JOINSTYLE
280
0
  9
$LWDISPLAY
290
0
  9
$INSUNITS
 70
6
  9
$HYPERLINKBASE
  1

  9
$STYLESHEET
  1

  9
$XEDIT
290
1
  9
$CEPSNTYPE
380
0
  9
$PSTYLEMODE
290
1
  9
$FINGERPRINTGUID
  2
{4407A14F-5554-4199-841A-0DD895BC9C8C}
  9
$VERSIONGUID
  2
{DC4BD7DD-3281-4D0D-A3C0-AF82EEA2BC34}
  9
$EXTNAMES
290
1
  9
$PSVPSCALE
 40
0.0
  9
$OLESTARTUP
290
0
  9
$SORTENTS
280
127
  9
$INDEXCTL
280
0
  9
$HIDETEXT
280
1
  9
$XCLIPFRAME
280
1
  9
$HALOGAP
280
0
  9
$OBSCOLOR
 70
257
  9
$OBSLTYPE
280
0
  9
$INTERSECTIONDISPLAY
280
0
  9
$INTERSECTIONCOLOR
 70
257
  9
$DIMASSOC
280
2
  9
$PROJECTNAME
  1

  9
$CAMERADISPLAY
290
0
  9
$LENSLENGTH
 40
50.0
  9
$CAMERAHEIGHT
 40
0.0
  9
$STEPSPERSEC
 40
24.0
  9
$STEPSIZE
 40
100.0
  9
$3DDWFPREC
 40
2.0
  9
$PSOLWIDTH
 40
0.005
  9
$PSOLHEIGHT
 40
0.08
  9
$LOFTANG1
 40
1.570796326795
  9
$LOFTANG2
 40
1.570796326795
  9
$LOFTMAG1
 40
0.0
  9
$LOFTMAG2
 40
0.0
  9
$LOFTPARAM
 70
7
  9
$LOFTNORMALS
280
1
  9
$LATITUDE
 40
37.795
  9
$LONGITUDE
 40
-122.394
  9
$NORTHDIRECTION
 40
0.0
  9
$TIMEZONE
 70
-8000
  9
$LIGHTGLYPHDISPLAY
280
1
  9
$TILEMODELIGHTSYNCH
280
1
  9
$CMATERIAL
347
20
  9
$SOLIDHIST
280
0
  9
$SHOWHIST
280
1
  9
$DWFFRAME
280
2
  9
$DGNFRAME
280
2
  9
$REALWORLDSCALE
290
1
  9
$INTERFERECOLOR
 62
256
  9
$CSHADOW
280
0
  9
$SHADOWPLANELOCATION
 40
0.0
  0
ENDSEC
  0
SECTION
  2
CLASSES
  0
CLASS
  1
ACDBDICTIONARYWDFLT
  2
AcDbDictionaryWithDefault
  3
ObjectDBX Classes
 90
0
 91
0
280
0
281
0
  0
CLASS
  1
SUN
  2
AcDbSun
  3
SCENEOE
 90
1153
 91
0
280
0
281
0
  0
CLASS
  1
VISUALSTYLE
  2
AcDbVisualStyle
  3
ObjectDBX Classes
 90
4095
 91
0
280
0
281
0
  0
CLASS
  1
MATERIAL
  2
AcDbMaterial
  3
ObjectDBX Classes
 90
1153
 91
0
280
0
281
0
  0
CLASS
  1
SCALE
  2
AcDbScale
  3
ObjectDBX Classes
 90
1153
 91
0
280
0
281
0
  0
CLASS
  1
TABLESTYLE
  2
AcDbTableStyle
  3
ObjectDBX Classes
 90
4095
 91
0
280
0
281
0
  0
CLASS
  1
MLEADERSTYLE
  2
AcDbMLeaderStyle
  3
ACDB_MLEADERSTYLE_CLASS
 90
4095
 91
0
280
0
281
0
  0
CLASS
  1
DICTIONARYVAR
  2
AcDbDictionaryVar
  3
ObjectDBX Classes
 90
0
 91
0
280
0
281
0
  0
CLASS
  1
CELLSTYLEMAP
  2
AcDbCellStyleMap
  3
ObjectDBX Classes
 90
1152
 91
0
280
0
281
0
  0
CLASS
  1
MENTALRAYRENDERSETTINGS
  2
AcDbMentalRayRenderSettings
  3
SCENEOE
 90
1024
 91
0
280
0
281
0
  0
CLASS
  1
ACDBDETAILVIEWSTYLE
  2
AcDbDetailViewStyle
  3
ObjectDBX Classes
 90
1025
 91
0
280
0
281
0
  0
CLASS
  1
ACDBSECTIONVIEWSTYLE
  2
AcDbSectionViewStyle
  3
ObjectDBX Classes
 90
1025
 91
0
280
0
281
0
  0
CLASS
  1
RASTERVARIABLES
  2
AcDbRasterVariables
  3
ISM
 90
0
 91
0
280
0
281
0
  0
CLASS
  1
ACDBPLACEHOLDER
  2
AcDbPlaceHolder
  3
ObjectDBX Classes
 90
0
 91
0
280
0
281
0
  0
CLASS
  1
LAYOUT
  2
AcDbLayout
  3
ObjectDBX Classes
 90
0
 91
0
280
0
281
0
  0
ENDSEC
  0
SECTION
  2
TABLES
  0
TABLE
  2
VPORT
  5
8
330
0
100
AcDbSymbolTable
 70
1
  0
VPORT
  5
23
330
8
100
AcDbSymbolTableRecord
100
AcDbViewportTableRecord
  2
*Active
 70
0
 10
0.0
 20
0.0
 11
1.0
 21
1.0
 12
0.0
 22
0.0
 13
0.0
 23
0.0
 14
0.5
 24
0.5
 15
0.5
 25
0.5
 16
0.0
 26
0.0
 36
1.0
 17
0.0
 27
0.0
 37
0.0
 40
1000.0
 41
1.34
 42
50.0
 43
0.0
 44
0.0
 50
0.0
 51
0.0
 71
0
 72
1000
 73
1
 74
3
 75
0
 76
0
 77
0
 78
0
281
0
 65
0
146
0.0
  0
ENDTAB
  0
TABLE
  2
LTYPE
  5
2
330
0
100
AcDbSymbolTable
 70
3
  0
LTYPE
  5
24
330
2
100
AcDbSymbolTableRecord
100
AcDbLinetypeTableRecord
  2
ByBlock
 70
0
  3

 72
65
 73
0
 40
0.0
  0
LTYPE
  5
25
330
2
100
AcDbSymbolTableRecord
100
AcDbLinetypeTableRecord
  2
ByLayer
 70
0
  3

 72
65
 73
0
 40
0.0
  0
LTYPE
  5
26
330
2
100
AcDbSymbolTableRecord
100
AcDbLinetypeTableRecord
  2
Continuous
 70
0
  3

 72
65
 73
0
 40
0.0
  0
ENDTAB
  0
TABLE
  2
LAYER
  5
1
330
0
100
AcDbSymbolTable
 70
2
  0
LAYER
  5
27
330
1
100
AcDbSymbolTableRecord
100
AcDbLayerTableRecord
  2
0
 70
0
 62
7
  6
Continuous
370
-3
390
13
347
21
  0
LAYER
  5
28
330
1
100
AcDbSymbolTableRecord
100
AcDbLayerTableRecord
  2
Defpoints
 70
0
 62
7
  6
Continuous
290
0
370
-3
390
13
347
21
  0
ENDTAB
  0
TABLE
  2
STYLE
  5
5
330
0
100
AcDbSymbolTable
 70
1
  0
STYLE
  5
29
330
5
100
AcDbSymbolTableRecord
100
AcDbTextStyleTableRecord
  2
Standard
 70
0
 40
0.0
 41
1.0
 50
0.0
 71
0
 42
2.5
  3
txt
  4

  0
ENDTAB
  0
TABLE
  2
VIEW
  5
7
330
0
100
AcDbSymbolTable
 70
0
  0
ENDTAB
  0
TABLE
  2
UCS
  5
6
330
0
100
AcDbSymbolTable
 70
0
  0
ENDTAB
  0
TABLE
  2
APPID
  5
3
330
0
100
AcDbSymbolTable
 70
3
  0
APPID
  5
2A
330
3
100
AcDbSymbolTableRecord
100
AcDbRegAppTableRecord
  2
ACAD
 70
0
  0
APPID
  5
4D
330
3
100
AcDbSymbolTableRecord
100
AcDbRegAppTableRecord
  2
HATCHBACKGROUNDCOLOR
 70
0
  0
APPID
  5
4E
330
3
100
AcDbSymbolTableRecord
100
AcDbRegAppTableRecord
  2
EZDXF
 70
0
  0
ENDTAB
  0
TABLE
  2
DIMSTYLE
  5
4
330
0
100
AcDbSymbolTable
 70
1
100
AcDbDimStyleTable
  0
DIMSTYLE
105
2B
330
4
100
AcDbSymbolTableRecord
100
AcDbDimStyleTableRecord
  2
Standard
 70
0
 40
1.0
 41
2.5
 42
0.625
 43
3.75
 44
1.25
 45
0.0
 46
0.0
 47
0.0
 48
0.0
 49
2.5
140
2.5
141
2.5
142
0.0
143
0.03937007874
144
1.0
145
0.0
146
1.0
147
0.625
148
0.0
 69
0
 70
0
 71
0
 72
0
 73
0
 74
0
 75
0
 76
0
 77
1
 78
8
 79
3
170
0
171
3
172
1
173
0
174
0
175
0
176
0
177
0
178
0
179
2
271
2
272
2
273
2
274
3
275
0
276
0
277
2
278
44
279
0
280
0
281
0
282
0
283
0
284
8
285
0
286
0
288
0
289
3
290
0
371
-2
372
-2
  0
ENDTAB
  0
TABLE
  2
BLOCK_RECORD
  5
9
330
0
100
AcDbSymbolTable
 70
2
  0
BLOCK_RECORD
  5
17
330
9
100
AcDbSymbolTableRecord
100
AcDbBlockTableRecord
  2
*Model_Space
340
1A
 70
0
280
1
281
0
  0
BLOCK_RECORD
  5
1B
330
9
100
AcDbSymbolTableRecord
100
AcDbBlockTableRecord
  2
*Paper_Space
340
1E
 70
0
280
1
281
0
  0
ENDTAB
  0
ENDSEC
  0
SECTION
  2
BLOCKS
  0
BLOCK
  5
18
330
17
100
AcDbEntity
  8
0
100
AcDbBlockBegin
  2
*Model_Space
 70
0
 10
0.0
 20
0.0
 30
0.0
  3
*Model_Space
  1

  0
ENDBLK
  5
19
330
17
100
AcDbEntity
  8
0
100
AcDbBlockEnd
  0
BLOCK
  5
1C
330
1B
100
AcDbEntity
  8
0
100
AcDbBlockBegin
  2
*Paper_Space
 70
0
 10
0.0
 20
0.0
 30
0.0
  3
*Paper_Space
  1

  0
ENDBLK
  5
1D
330
1B
100
AcDbEntity
  8
0
100
AcDbBlockEnd
  0
ENDSEC
  0
SECTION
  2
ENTITIES
  0
LWPOLYLINE
  5
2F
330
17
100
AcDbEntity
  8
0
100
AcDbPolyline
 90
5
 70
0
 10
417.30785280403234
 20
502.6921471959678
 10
222.6921471959677
 20
502.6921471959678
 10
222.6921471959677
 20
597.3078528040322
 10
417.30785280403234
 20
597.3078528040322
 10
417.30785280403234
 20
502.6921471959678
  0
LWPOLYLINE
  5
30
330
17
100
AcDbEntity
  8
0
100
AcDbPolyline
 90
41
 70
0
 10
329.98015928678154
 20
519.501
 10
330.0578795325113
 20
519.6173165676349
 10
330.134
 20
520.0
 10
330.134
 20
523.1030591367366
 10
330.41810678118657
 20
523.2928932188134
 10
330.49899999999997
 20
523.4139584762502
 10
330.49899999999997
 20
527.9989508731502
 10
330.4894022707593
 20
528.0963982535216
 10
330.48935494918436
 20
528.0966361551442
 10
330.4147724971767
 20
528.2766941223223
 10
330.4146651622092
 20
528.2768547604533
 10
330.27685476040267
 20
528.4146651622431
 10
330.276694122272
 20
528.4147724972104
 10
330.0966361552143
 20
528.4893549491704
 10
330.0963982535917
 20
528.4894022707454
 10
329.9989508731501
 20
528.499
 10
329.7123739922551
 20
528.499
 10
329.6149266118135
 20
528.4894022707454
 10
329.6146887101909
 20
528.4893549491704
 10
329.4346307431332
 20
528.4147724972104
 10
329.4344701050025
 20
528.4146651622431
 10
329.296659703196
 20
528.2768547604533
 10
329.29655236822845
 20
528.2766941223223
 10
329.2219699162208
 20
528.0966361551442
 10
329.2219225812162
 20
528.096398186006
 10
329.21241482010373
 20
528.0
 10
329.7113248654052
 20
528.0
 10
329.7113248654052
 20
524.0
 10
329.1339745962156
 20
524.0
 10
329.1339745962156
 20
520.0
 10
328.63507792619134
 20
520.0
 10
328.6445723254563
 20
519.9036017464784
 10
328.6446196470312
 20
519.9033638448558
 10
328.71920209903885
 20
519.7233058776777
 10
328.7193094340064
 20
519.7231452395467
 10
328.8571198358129
 20
519.5853348377569
 10
328.8572804739436
 20
519.5852275027896
 10
329.0373384410013
 20
519.5106450508296
 10
329.0375763426239
 20
519.5105977292546
 10
329.1350237230655
 20
519.501
 10
329.98015928678154
 20
519.501
  0
LWPOLYLINE
  5
31
330
17
100
AcDbEntity
  8
0
100
AcDbPolyline
 90
62
 70
0
 10
330.49962953261377
 20
536.5850993616123
 10
330.41810678118657
 20
536.7071067811866
 10
330.134
 20
536.8969408632634
 10
330.134
 20
539.0308314169439
 10
330.289
 20
539.0
 10
330.499961167517
 20
539.0
 10
330.50003772796725
 20
539.5574982561587
 10
330.5001138834648
 20
539.5578808868443
 10
330.5003306535461
 20
539.5582052579792
 10
330.5006550445255
 20
539.5584219983626
 10
330.5653692568668
 20
539.5852275027896
 10
330.5655298949975
 20
539.5853348377569
 10
330.703340296804
 20
539.7231452395467
 10
330.70344763177155
 20
539.7233058776777
 10
330.7780300837792
 20
539.9033638448558
 10
330.7780774187838
 20
539.903601813994
 10
330.78758517989627
 20
540.0
 10
330.2886751345948
 20
540.0
 10
330.2886751345948
 20
544.0
 10
330.8660254037844
 20
544.0
 10
330.8660254037844
 20
548.0
 10
330.8660254037844
 20
548.4989171937661
 10
330.86592738664405
 20
548.49890632387
 10
330.86497627693444
 20
548.499
 10
329.7123739922551
 20
548.499
 10
329.6149266118135
 20
548.4894022707454
 10
329.6146887101909
 20
548.4893549491704
 10
329.4346307431332
 20
548.4147724972104
 10
329.4344701050025
 20
548.4146651622431
 10
329.296659703196
 20
548.2768547604533
 10
329.29655236822845
 20
548.2766941223223
 10
329.2219699162208
 20
548.0966361551442
 10
329.2219225812162
 20
548.096398186006
 10
329.21241482010373
 20
548.0
 10
329.7113248654052
 20
548.0
 10
329.7113248654052
 20
544.0
 10
329.1339745962156
 20
544.0
 10
329.1339745962156
 20
540.0
 10
329.1339745962156
 20
536.0
 10
329.7113248654052
 20
536.0
 10
329.7113248654052
 20
532.0
 10
329.21242819538094
 20
532.0
 10
329.2219225946459
 20
531.9036017464784
 10
329.2219699162208
 20
531.9033638448558
 10
329.29655236822845
 20
531.7233058776777
 10
329.296659703196
 20
531.7231452395467
 10
329.4344701050025
 20
531.5853348377569
 10
329.4346307431332
 20
531.5852275027896
 10
329.6146887101909
 20
531.5106450508296
 10
329.6149266118135
 20
531.5105977292546
 10
329.7123739922551
 20
531.501
 10
329.9989508731501
 20
531.501
 10
330.0963982535917
 20
531.5105977292546
 10
330.0966361552143
 20
531.5106450508296
 10
330.276694122272
 20
531.5852275027896
 10
330.27685476040267
 20
531.5853348377569
 10
330.4146651622092
 20
531.7231452395467
 10
330.4147724971767
 20
531.7233058776777
 10
330.48935494918436
 20
531.9033638448558
 10
330.4894022774733
 20
531.9036017802318
 10
330.4990000020364
 20
532.0009805654677
 10
330.49962953261377
 20
536.5850993616123
  0
LWPOLYLINE
  5
32
330
17
100
AcDbEntity
  8
0
100
AcDbPolyline
 90
62
 70
0
 10
330.49899999999997
 20
561.0
 10
330.289
 20
561.0
 10
330.134
 20
560.9691685830561
 10
330.134
 20
563.1030591367366
 10
330.41810678118657
 20
563.2928932188134
 10
330.49899999999997
 20
563.4139584762502
 10
330.49899999999997
 20
567.9989508731502
 10
330.4894022707593
 20
568.0963982535216
 10
330.48935494918436
 20
568.0966361551442
 10
330.4147724971767
 20
568.2766941223223
 10
330.4146651622092
 20
568.2768547604533
 10
330.27685476040267
 20
568.4146651622431
 10
330.276694122272
 20
568.4147724972104
 10
330.0966361552143
 20
568.4893549491704
 10
330.0963982535917
 20
568.4894022707454
 10
329.9989508731501
 20
568.499
 10
329.7123739922551
 20
568.499
 10
329.6149266118135
 20
568.4894022707454
 10
329.6146887101909
 20
568.4893549491704
 10
329.4346307431332
 20
568.4147724972104
 10
329.4344701050025
 20
568.4146651622431
 10
329.296659703196
 20
568.2768547604533
 10
329.29655236822845
 20
568.2766941223223
 10
329.2219699162208
 20
568.0966361551442
 10
329.2219225812162
 20
568.096398186006
 10
329.21241482010373
 20
568.0
 10
329.7113248654052
 20
568.0
 10
329.7113248654052
 20
564.0
 10
329.1339745962156
 20
564.0
 10
329.1339745962156
 20
560.0
 10
329.1339745962156
 20
556.0
 10
329.7113248654052
 20
556.0
 10
329.7113248654052
 20
552.0
 10
329.21242819538094
 20
552.0
 10
329.2219225946459
 20
551.9036017464784
 10
329.2219699162208
 20
551.9033638448558
 10
329.29655236822845
 20
551.7233058776777
 10
329.296659703196
 20
551.7231452395467
 10
329.4344701050025
 20
551.5853348377569
 10
329.4346307431332
 20
551.5852275027896
 10
329.6146887101909
 20
551.5106450508296
 10
329.6149266118135
 20
551.5105977292546
 10
329.7123739922551
 20
551.501
 10
330.86497627693444
 20
551.501
 10
330.86592738664405
 20
551.50109367613
 10
330.8660254037844
 20
551.5010828062339
 10
330.8660254037844
 20
552.0
 10
330.8660254037844
 20
556.0
 10
330.2886751345948
 20
556.0
 10
330.2886751345948
 20
560.0
 10
330.78757180461906
 20
560.0
 10
330.7780774053541
 20
560.0963982535216
 10
330.7780300837792
 20
560.0966361551442
 10
330.70344763177155
 20
560.2766941223223
 10
330.703340296804
 20
560.2768547604533
 10
330.5655298949975
 20
560.4146651622431
 10
330.5653692568668
 20
560.4147724972104
 10
330.4996173165676
 20
560.4420078426315
 10
330.49929289321875
 20
560.4422246153828
 10
330.4990761204674
 20
560.4425490387316
 10
330.49899999999997
 20
560.442931722164
 10
330.49899999999997
 20
561.0
  0
LWPOLYLINE
  5
33
330
17
100
AcDbEntity
  8
0
100
AcDbPolyline
 90
41
 70
0
 10
330.49899999999997
 20
576.5860415237498
 10
330.41810678118657
 20
576.7071067811866
 10
330.134
 20
576.8969408632634
 10
330.134
 20
580.0
 10
330.0578795325113
 20
580.3826834323651
 10
329.98015928678154
 20
580.499
 10
329.1350237230655
 20
580.499
 10
329.0375763426239
 20
580.4894022707454
 10
329.0373384410013
 20
580.4893549491704
 10
328.8572804739436
 20
580.4147724972104
 10
328.8571198358129
 20
580.4146651622431
 10
328.7193094340064
 20
580.2768547604533
 10
328.71920209903885
 20
580.2766941223223
 10
328.6446196470312
 20
580.0966361551442
 10
328.6445723254563
 20
580.0963982535216
 10
328.63507792619134
 20
580.0
 10
329.1339745962156
 20
580.0
 10
329.1339745962156
 20
576.0
 10
329.7113248654052
 20
576.0
 10
329.7113248654052
 20
572.0
 10
329.21242819538094
 20
572.0
 10
329.2219225946459
 20
571.9036017464784
 10
329.2219699162208
 20
571.9033638448558
 10
329.29655236822845
 20
571.7233058776777
 10
329.296659703196
 20
571.7231452395467
 10
329.4344701050025
 20
571.5853348377569
 10
329.4346307431332
 20
571.5852275027896
 10
329.6146887101909
 20
571.5106450508296
 10
329.6149266118135
 20
571.5105977292546
 10
329.7123739922551
 20
571.501
 10
329.9989508731501
 20
571.501
 10
330.0963982535917
 20
571.5105977292546
 10
330.0966361552143
 20
571.5106450508296
 10
330.276694122272
 20
571.5852275027896
 10
330.27685476040267
 20
571.5853348377569
 10
330.4146651622092
 20
571.7231452395467
 10
330.4147724971767
 20
571.7233058776777
 10
330.48935494918436
 20
571.9033638448558
 10
330.4894022707593
 20
571.9036017464784
 10
330.49899999999997
 20
572.0010491268498
 10
330.49899999999997
 20
576.5860415237498
  0
LWPOLYLINE
  5
34
330
17
100
AcDbEntity
  8
0
100
AcDbPolyline
 90
17
 70
0
 10
407.5
 20
515.0
 10
407.3096988312782
 20
515.9567085809127
 10
406.7677669529664
 20
516.7677669529663
 10
405.95670858091273
 20
517.3096988312782
 10
405.0
 20
517.5
 10
404.04329141908727
 20
517.3096988312782
 10
403.2322330470336
 20
516.7677669529663
 10
402.69030116872176
 20
515.9567085809127
 10
402.5
 20
515.0
 10
402.69030116872176
 20
514.0432914190873
 10
403.2322330470336
 20
513.2322330470337
 10
404.04329141908727
 20
512.6903011687218
 10
405.0
 20
512.5
 10
405.95670858091273
 20
512.6903011687218
 10
406.7677669529664
 20
513.2322330470337
 10
407.30969883127824
 20
514.0432914190873
 10
407.5
 20
515.0
  0
LWPOLYLINE
  5
35
330
17
100
AcDbEntity
  8
0
100
AcDbPolyline
 90
17
 70
0
 10
237.5
 20
515.0
 10
237.3096988312782
 20
515.9567085809127
 10
236.76776695296635
 20
516.7677669529663
 10
235.9567085809127
 20
517.3096988312782
 10
235.0
 20
517.5
 10
234.04329141908727
 20
517.3096988312782
 10
233.23223304703362
 20
516.7677669529663
 10
232.6903011687218
 20
515.9567085809127
 10
232.5
 20
515.0
 10
232.6903011687218
 20
514.0432914190873
 10
233.23223304703365
 20
513.2322330470337
 10
234.04329141908727
 20
512.6903011687218
 10
235.0
 20
512.5
 10
235.95670858091273
 20
512.6903011687218
 10
236.76776695296638
 20
513.2322330470337
 10
237.3096988312782
 20
514.0432914190873
 10
237.5
 20
515.0
  0
LWPOLYLINE
  5
36
330
17
100
AcDbEntity
  8
0
100
AcDbPolyline
 90
17
 70
0
 10
407.5
 20
585.0
 10
407.3096988312782
 20
585.9567085809127
 10
406.7677669529664
 20
586.7677669529663
 10
405.95670858091273
 20
587.3096988312782
 10
405.0
 20
587.5
 10
404.04329141908727
 20
587.3096988312782
 10
403.2322330470336
 20
586.7677669529663
 10
402.69030116872176
 20
585.9567085809127
 10
402.5
 20
585.0
 10
402.69030116872176
 20
584.0432914190873
 10
403.2322330470336
 20
583.2322330470337
 10
404.04329141908727
 20
582.6903011687218
 10
405.0
 20
582.5
 10
405.95670858091273
 20
582.6903011687218
 10
406.7677669529664
 20
583.2322330470337
 10
407.30969883127824
 20
584.0432914190873
 10
407.5
 20
585.0
  0
LWPOLYLINE
  5
37
330
17
100
AcDbEntity
  8
0
100
AcDbPolyline
 90
17
 70
0
 10
237.5
 20
585.0
 10
237.3096988312782
 20
585.9567085809127
 10
236.76776695296635
 20
586.7677669529663
 10
235.9567085809127
 20
587.3096988312782
 10
235.0
 20
587.5
 10
234.04329141908727
 20
587.3096988312782
 10
233.23223304703362
 20
586.7677669529663
 10
232.6903011687218
 20
585.9567085809127
 10
232.5
 20
585.0
 10
232.6903011687218
 20
584.0432914190873
 10
233.23223304703365
 20
583.2322330470337
 10
234.04329141908727
 20
582.6903011687218
 10
235.0
 20
582.5
 10
235.95670858091273
 20
582.6903011687218
 10
236.76776695296638
 20
583.2322330470337
 10
237.3096988312782
 20
584.0432914190873
 10
237.5
 20
585.0
  0
LWPOLYLINE
  5
38
330
17
100
AcDbEntity
  8
0
100
AcDbPolyline
 90
7
 70
0
 10
240.36640625
 20
512.5
 10
242.60234375
 20
512.5
 10
242.60234375
 20
512.92265625
 10
240.83984375
 20
512.92265625
 10
240.83984375
 20
516.07890625
 10
240.36640625
 20
516.07890625
 10
240.36640625
 20
512.5
  0
LWPOLYLINE
  5
39
330
17
100
AcDbEntity
  8
0
100
AcDbPolyline
 90
8
 70
0
 10
255.758984375
 20
512.5
 10
255.758984375
 20
516.09375
 10
255.476171875
 20
516.09375
 10
254.441015625
 20
515.1953125
 10
254.441015625
 20
514.7703125
 10
255.319921875
 20
515.3
 10
255.319921875
 20
512.5
 10
255.758984375
 20
512.5
  0
LWPOLYLINE
  5
3A
330
17
100
AcDbEntity
  8
0
100
AcDbPolyline
 90
14
 70
0
 10
244.80263671875
 20
512.81953125
 10
244.89013671875
 20
512.5
 10
245.34951171875
 20
512.5
 10
245.08779296875
 20
514.82684375
 10
244.39451171875
 20
515.14453125
 10
243.39423828125
 20
514.9484375
 10
243.03701171875
 20
514.353125
 10
244.26951171875
 20
514.7815625
 10
244.68826171875
 20
514.58865625
 10
244.76591796875
 20
514.1453125
 10
243.22119921875
 20
513.74375
 10
243.07377734375
 20
512.7856328125
 10
243.89933984375
 20
512.4422578125
 10
244.80263671875
 20
512.81953125
  0
LWPOLYLINE
  5
3B
330
17
100
AcDbEntity
  8
0
100
AcDbPolyline
 90
10
 70
0
 10
251.16728515625
 20
512.5
 10
251.60634765625
 20
512.5
 10
251.71482421875
 20
514.456609375
 10
252.42431640625
 20
514.60234375
 10
252.48431640625
 20
515.0610625
 10
251.94891015625
 20
515.11978125
 10
251.56259765625
 20
514.7
 10
251.56259765625
 20
515.09296875
 10
251.16728515625
 20
515.09296875
 10
251.16728515625
 20
512.5
  0
LWPOLYLINE
  5
3C
330
17
100
AcDbEntity
  8
0
100
AcDbPolyline
 90
11
 70
0
 10
245.8716796875
 20
511.5015625
 10
246.7611796875
 20
511.825546875
 10
248.0177734375
 20
515.09296875
 10
247.5779296875
 20
515.09296875
 10
246.8435546875
 20
512.990625
 10
246.1154296875
 20
515.09296875
 10
245.6419921875
 20
515.09296875
 10
246.6263671875
 20
512.4953125
 10
246.3424296875
 20
511.94515625
 10
245.8224609375
 20
511.9140625
 10
245.8716796875
 20
511.5015625
  0
LWPOLYLINE
  5
3D
330
17
100
AcDbEntity
  8
0
100
AcDbPolyline
 90
13
 70
0
 10
250.1662109375
 20
513.33515625
 10
249.8238671875
 20
512.884125
 10
249.2973203125
 20
512.823515625
 10
248.6990234375
 20
513.684375
 10
250.6326171875
 20
513.684375
 10
250.2374296875
 20
514.8648984375
 10
249.349921875
 20
515.1479453125
 10
248.5810546875
 20
514.78984375
 10
248.247671875
 20
513.650625
 10
248.647
 20
512.72490625
 10
249.9642109375
 20
512.5204375
 10
250.6201171875
 20
513.27890625
 10
250.1662109375
 20
513.33515625
  0
LWPOLYLINE
  5
3E
330
17
100
AcDbEntity
  8
0
100
AcDbPolyline
 90
5
 70
0
 10
422.30785280403234
 20
502.6921471959678
 10
616.923558412097
 20
502.6921471959678
 10
616.923558412097
 20
597.3078528040322
 10
422.30785280403234
 20
597.3078528040322
 10
422.30785280403234
 20
502.6921471959678
  0
LWPOLYLINE
  5
3F
330
17
100
AcDbEntity
  8
0
100
AcDbPolyline
 90
35
 70
0
 10
509.1167056080647
 20
524.5860415237498
 10
509.1975988268781
 20
524.7071067811866
 10
509.48170560806466
 20
524.8969408632634
 10
509.48170560806466
 20
528.4738783379196
 10
509.5190694528504
 20
528.4893549491704
 10
509.51930735447297
 20
528.4894022707454
 10
509.6167547349146
 20
528.499
 10
510.4806818849991
 20
528.499
 10
510.4816329947087
 20
528.49890632387
 10
510.4817310118491
 20
528.4989171937661
 10
510.4817310118491
 20
528.0
 10
510.4817310118491
 20
524.0
 10
509.9043807426595
 20
524.0
 10
509.9043807426595
 20
520.0
 10
510.40327741268374
 20
520.0
 10
510.3937830134188
 20
519.9036017464784
 10
510.39373569184386
 20
519.9033638448558
 10
510.3191532398362
 20
519.7233058776777
 10
510.3190459048687
 20
519.7231452395467
 10
510.18123550306217
 20
519.5853348377569
 10
510.1810748649315
 20
519.5852275027896
 10
510.0010168978738
 20
519.5106450508296
 10
510.0007789962512
 20
519.5105977292546
 10
509.9033316158096
 20
519.501
 10
509.6167547349146
 20
519.501
 10
509.51930735447297
 20
519.5105977292546
 10
509.5190694528504
 20
519.5106450508296
 10
509.3390114857927
 20
519.5852275027896
 10
509.338850847662
 20
519.5853348377569
 10
509.2010404458555
 20
519.7231452395467
 10
509.20093311088795
 20
519.7233058776777
 10
509.1263506588803
 20
519.9033638448558
 10
509.1263033373054
 20
519.9036017464784
 10
509.1167056080647
 20
520.0010491268498
 10
509.1167056080647
 20
524.5860415237498
  0
LWPOLYLINE
  5
40
330
17
100
AcDbEntity
  8
0
100
AcDbPolyline
 90
50
 70
0
 10
509.48170560806466
 20
531.5261216620804
 10
509.48170560806466
 20
535.1030591367366
 10
509.1975988268781
 20
535.2928932188134
 10
509.11623681022854
 20
535.4146600817933
 10
509.11567577623305
 20
539.5000001373286
 10
509.11559961635504
 20
539.5003827785866
 10
509.11538283446896
 20
539.5007071553325
 10
509.11505842795583
 20
539.5009238926704
 10
509.11467577624245
 20
539.501
 10
508.7507293311302
 20
539.501
 10
508.65328195068855
 20
539.5105977292546
 10
508.65304404906595
 20
539.5106450508296
 10
508.4729860820083
 20
539.5852275027896
 10
508.4728254438776
 20
539.5853348377569
 10
508.33501504207106
 20
539.7231452395467
 10
508.3349077071035
 20
539.7233058776777
 10
508.2603252550959
 20
539.9033638448558
 10
508.26027793352097
 20
539.9036017464784
 10
508.250783534256
 20
540.0
 10
508.74968020428025
 20
540.0
 10
508.74968020428025
 20
544.0
 10
509.32703047346985
 20
544.0
 10
509.32703047346985
 20
548.0
 10
508.8281338034456
 20
548.0
 10
508.83762820271056
 20
548.0963982535216
 10
508.8376755242855
 20
548.0966361551442
 10
508.9122579762931
 20
548.2766941223223
 10
508.91236531126066
 20
548.2768547604533
 10
509.0501757130672
 20
548.4146651622431
 10
509.05033635119787
 20
548.4147724972104
 10
509.23039431825555
 20
548.4893549491704
 10
509.23063221987815
 20
548.4894022707454
 10
509.32807960031977
 20
548.499
 10
510.4806818849991
 20
548.499
 10
510.4816329947087
 20
548.49890632387
 10
510.4817310118491
 20
548.4989171937661
 10
510.4817310118491
 20
548.0
 10
510.4817310118491
 20
544.0
 10
509.9043807426595
 20
544.0
 10
509.9043807426595
 20
540.0
 10
509.9043807426595
 20
536.0
 10
510.4817310118491
 20
536.0
 10
510.4817310118491
 20
532.0
 10
510.4817310118491
 20
531.5010828062339
 10
510.4816329947087
 20
531.50109367613
 10
510.4806818849991
 20
531.501
 10
509.6167547349146
 20
531.501
 10
509.51930735447297
 20
531.5105977292546
 10
509.5190694528504
 20
531.5106450508296
 10
509.48170560806466
 20
531.5261216620804
  0
LWPOLYLINE
  5
41
330
17
100
AcDbEntity
  8
0
100
AcDbPolyline
 90
50
 70
0
 10
509.1167056080647
 20
564.5860415237498
 10
509.1975988268781
 20
564.7071067811866
 10
509.48170560806466
 20
564.8969408632634
 10
509.48170560806466
 20
568.4738783379196
 10
509.5190694528504
 20
568.4893549491704
 10
509.51930735447297
 20
568.4894022707454
 10
509.6167547349146
 20
568.499
 10
510.4806818849991
 20
568.499
 10
510.4816329947087
 20
568.49890632387
 10
510.4817310118491
 20
568.4989171937661
 10
510.4817310118491
 20
568.0
 10
510.4817310118491
 20
564.0
 10
509.9043807426595
 20
564.0
 10
509.9043807426595
 20
560.0
 10
509.9043807426595
 20
556.0
 10
510.4817310118491
 20
556.0
 10
510.4817310118491
 20
552.0
 10
510.4817310118491
 20
551.5010828062339
 10
510.4816329947087
 20
551.50109367613
 10
510.4806818849991
 20
551.501
 10
509.32807960031977
 20
551.501
 10
509.23063221987815
 20
551.5105977292546
 10
509.23039431825555
 20
551.5106450508296
 10
509.05033635119787
 20
551.5852275027896
 10
509.0501757130672
 20
551.5853348377569
 10
508.91236531126066
 20
551.7231452395467
 10
508.9122579762931
 20
551.7233058776777
 10
508.8376755242855
 20
551.9033638448558
 10
508.83762818928085
 20
551.903601813994
 10
508.8281204281684
 20
552.0
 10
509.32703047346985
 20
552.0
 10
509.32703047346985
 20
556.0
 10
508.74968020428025
 20
556.0
 10
508.74968020428025
 20
560.0
 10
508.250783534256
 20
560.0
 10
508.26027793352097
 20
560.0963982535216
 10
508.2603252550959
 20
560.0966361551442
 10
508.3349077071035
 20
560.2766941223223
 10
508.33501504207106
 20
560.2768547604533
 10
508.4728254438776
 20
560.4146651622431
 10
508.4729860820083
 20
560.4147724972104
 10
508.65304404906595
 20
560.4893549491704
 10
508.6532822628079
 20
560.4894023328297
 10
508.75009533578043
 20
560.4989996596302
 10
509.11570687795864
 20
560.4994639478862
 10
509.1160891712454
 20
560.4995404324419
 10
509.11641316367877
 20
560.4997572894166
 10
509.11662960904255
 20
560.5000815569741
 10
509.1167056080647
 20
560.5004639470799
 10
509.1167056080647
 20
564.5860415237498
  0
LWPOLYLINE
  5
42
330
17
100
AcDbEntity
  8
0
100
AcDbPolyline
 90
35
 70
0
 10
509.48170560806466
 20
571.5261216620804
 10
509.48170560806466
 20
575.1030591367366
 10
509.1975988268781
 20
575.2928932188134
 10
509.1167056080647
 20
575.4139584762502
 10
509.1167056080647
 20
579.9989508731502
 10
509.1263033373054
 20
580.0963982535216
 10
509.1263506588803
 20
580.0966361551442
 10
509.20093311088795
 20
580.2766941223223
 10
509.2010404458555
 20
580.2768547604533
 10
509.338850847662
 20
580.4146651622431
 10
509.3390114857927
 20
580.4147724972104
 10
509.5190694528504
 20
580.4893549491704
 10
509.51930735447297
 20
580.4894022707454
 10
509.6167547349146
 20
580.499
 10
509.9033316158096
 20
580.499
 10
510.0007789962512
 20
580.4894022707454
 10
510.0010168978738
 20
580.4893549491704
 10
510.1810748649315
 20
580.4147724972104
 10
510.18123550306217
 20
580.4146651622431
 10
510.3190459048687
 20
580.2768547604533
 10
510.3191532398362
 20
580.2766941223223
 10
510.39373569184386
 20
580.0966361551442
 10
510.3937830268485
 20
580.096398186006
 10
510.40329078796094
 20
580.0
 10
509.9043807426595
 20
580.0
 10
509.9043807426595
 20
576.0
 10
510.4817310118491
 20
576.0
 10
510.4817310118491
 20
572.0
 10
510.4817310118491
 20
571.5010828062339
 10
510.4816329947087
 20
571.50109367613
 10
510.4806818849991
 20
571.501
 10
509.6167547349146
 20
571.501
 10
509.51930735447297
 20
571.5105977292546
 10
509.5190694528504
 20
571.5106450508296
 10
509.48170560806466
 20
571.5261216620804
  0
LWPOLYLINE
  5
43
330
17
100
AcDbEntity
  8
0
100
AcDbPolyline
 90
17
 70
0
 10
432.1157056080647
 20
515.0
 10
432.3060067767865
 20
515.9567085809127
 10
432.8479386550983
 20
516.7677669529663
 10
433.65899702715194
 20
517.3096988312782
 10
434.6157056080647
 20
517.5
 10
435.5724141889774
 20
517.3096988312782
 10
436.38347256103106
 20
516.7677669529663
 10
436.9254044393429
 20
515.9567085809127
 10
437.1157056080647
 20
515.0
 10
436.9254044393429
 20
514.0432914190873
 10
436.38347256103106
 20
513.2322330470337
 10
435.5724141889774
 20
512.6903011687218
 10
434.6157056080647
 20
512.5
 10
433.65899702715194
 20
512.6903011687218
 10
432.8479386550983
 20
513.2322330470337
 10
432.30600677678643
 20
514.0432914190873
 10
432.1157056080647
 20
515.0
  0
LWPOLYLINE
  5
44
330
17
100
AcDbEntity
  8
0
100
AcDbPolyline
 90
17
 70
0
 10
602.1157056080647
 20
515.0
 10
602.3060067767865
 20
515.9567085809127
 10
602.8479386550983
 20
516.7677669529663
 10
603.6589970271519
 20
517.3096988312782
 10
604.6157056080647
 20
517.5
 10
605.5724141889774
 20
517.3096988312782
 10
606.3834725610311
 20
516.7677669529663
 10
606.9254044393429
 20
515.9567085809127
 10
607.1157056080647
 20
515.0
 10
606.9254044393429
 20
514.0432914190873
 10
606.383472561031
 20
513.2322330470337
 10
605.5724141889774
 20
512.6903011687218
 10
604.6157056080647
 20
512.5
 10
603.6589970271519
 20
512.6903011687218
 10
602.8479386550982
 20
513.2322330470337
 10
602.3060067767865
 20
514.0432914190873
 10
602.1157056080647
 20
515.0
  0
LWPOLYLINE
  5
45
330
17
100
AcDbEntity
  8
0
100
AcDbPolyline
 90
17
 70
0
 10
432.1157056080647
 20
585.0
 10
432.3060067767865
 20
585.9567085809127
 10
432.8479386550983
 20
586.7677669529663
 10
433.65899702715194
 20
587.3096988312782
 10
434.6157056080647
 20
587.5
 10
435.5724141889774
 20
587.3096988312782
 10
436.38347256103106
 20
586.7677669529663
 10
436.9254044393429
 20
585.9567085809127
 10
437.1157056080647
 20
585.0
 10
436.9254044393429
 20
584.0432914190873
 10
436.38347256103106
 20
583.2322330470337
 10
435.5724141889774
 20
582.6903011687218
 10
434.6157056080647
 20
582.5
 10
433.65899702715194
 20
582.6903011687218
 10
432.8479386550983
 20
583.2322330470337
 10
432.30600677678643
 20
584.0432914190873
 10
432.1157056080647
 20
585.0
  0
LWPOLYLINE
  5
46
330
17
100
AcDbEntity
  8
0
100
AcDbPolyline
 90
17
 70
0
 10
602.1157056080647
 20
585.0
 10
602.3060067767865
 20
585.9567085809127
 10
602.8479386550983
 20
586.7677669529663
 10
603.6589970271519
 20
587.3096988312782
 10
604.6157056080647
 20
587.5
 10
605.5724141889774
 20
587.3096988312782
 10
606.3834725610311
 20
586.7677669529663
 10
606.9254044393429
 20
585.9567085809127
 10
607.1157056080647
 20
585.0
 10
606.9254044393429
 20
584.0432914190873
 10
606.383472561031
 20
583.2322330470337
 10
605.5724141889774
 20
582.6903011687218
 10
604.6157056080647
 20
582.5
 10
603.6589970271519
 20
582.6903011687218
 10
602.8479386550982
 20
583.2322330470337
 10
602.3060067767865
 20
584.0432914190873
 10
602.1157056080647
 20
585.0
  0
LWPOLYLINE
  5
47
330
17
100
AcDbEntity
  8
0
100
AcDbPolyline
 90
21
 70
0
 10
585.5090649830647
 20
513.44453125
 10
584.7229399830646
 20
512.48159375
 10
583.9824399830646
 20
512.48884375
 10
583.3843149830647
 20
512.89853125
 10
583.1723462330647
 20
513.691125
 10
583.8340649830646
 20
514.43828125
 10
583.3460962330646
 20
515.07240625
 10
583.7120415455647
 20
515.8842734375
 10
584.8486899830647
 20
516.00628125
 10
585.4653149830647
 20
515.16640625
 10
585.0254712330646
 20
515.08828125
 10
584.5246821705647
 20
515.7182578125
 10
583.9255493580647
 20
515.540890625
 10
583.8489087330647
 20
514.9076171875
 10
584.5934399830646
 20
514.58046875
 10
584.6426587330646
 20
514.19453125
 10
583.7918227955647
 20
514.0058125
 10
583.7687212330646
 20
513.10490625
 10
584.5186821705647
 20
512.8148359375
 10
585.0700024830646
 20
513.503125
 10
585.5090649830647
 20
513.44453125
  0
LWPOLYLINE
  5
48
330
17
100
AcDbEntity
  8
0
100
AcDbPolyline
 90
7
 70
0
 10
599.2492993580647
 20
512.5
 10
597.0133618580646
 20
512.5
 10
597.0133618580646
 20
512.92265625
 10
598.7758618580647
 20
512.92265625
 10
598.7758618580647
 20
516.07890625
 10
599.2492993580647
 20
516.07890625
 10
599.2492993580647
 20
512.5
  0
LWPOLYLINE
  5
49
330
17
100
AcDbEntity
  8
0
100
AcDbPolyline
 90
14
 70
0
 10
594.8130688893146
 20
512.81953125
 10
594.7255688893147
 20
512.5
 10
594.2661938893146
 20
512.5
 10
594.5279126393146
 20
514.82684375
 10
595.2211938893147
 20
515.14453125
 10
596.2214673268147
 20
514.9484375
 10
596.5786938893146
 20
514.353125
 10
595.3461938893147
 20
514.7815625
 10
594.9274438893146
 20
514.58865625
 10
594.8497876393146
 20
514.1453125
 10
596.3945063893146
 20
513.74375
 10
596.5419282643147
 20
512.7856328125
 10
595.7163657643147
 20
512.4422578125
 10
594.8130688893146
 20
512.81953125
  0
LWPOLYLINE
  5
4A
330
17
100
AcDbEntity
  8
0
100
AcDbPolyline
 90
10
 70
0
 10
588.4484204518146
 20
512.5
 10
588.0093579518146
 20
512.5
 10
587.9008813893147
 20
514.456609375
 10
587.1913892018147
 20
514.60234375
 10
587.1313892018147
 20
515.0610625
 10
587.6667954518147
 20
515.11978125
 10
588.0531079518147
 20
514.7
 10
588.0531079518147
 20
515.09296875
 10
588.4484204518146
 20
515.09296875
 10
588.4484204518146
 20
512.5
  0
LWPOLYLINE
  5
4B
330
17
100
AcDbEntity
  8
0
100
AcDbPolyline
 90
11
 70
0
 10
593.7440259205647
 20
511.5015625
 10
592.8545259205647
 20
511.825546875
 10
591.5979321705647
 20
515.09296875
 10
592.0377759205646
 20
515.09296875
 10
592.7721509205646
 20
512.990625
 10
593.5002759205647
 20
515.09296875
 10
593.9737134205646
 20
515.09296875
 10
592.9893384205646
 20
512.4953125
 10
593.2732759205646
 20
511.94515625
 10
593.7932446705647
 20
511.9140625
 10
593.7440259205647
 20
511.5015625
  0
LWPOLYLINE
  5
4C
330
17
100
AcDbEntity
  8
0
100
AcDbPolyline
 90
13
 70
0
 10
589.4494946705647
 20
513.33515625
 10
589.7918384205647
 20
512.884125
 10
590.3183852955647
 20
512.823515625
 10
590.9166821705646
 20
513.684375
 10
588.9830884205646
 20
513.684375
 10
589.3782759205646
 20
514.8648984375
 10
590.2657837330646
 20
515.1479453125
 10
591.0346509205647
 20
514.78984375
 10
591.3680337330646
 20
513.650625
 10
590.9687056080647
 20
512.72490625
 10
589.6514946705647
 20
512.5204375
 10
588.9955884205647
 20
513.27890625
 10
589.4494946705647
 20
513.33515625
  0
ENDSEC
  0
SECTION
  2
OBJECTS
  0
DICTIONARY
  5
A
330
0
100
AcDbDictionary
280
0
281
1
  3
ACAD_COLOR
350
B
  3
ACAD_GROUP
350
C
  3
ACAD_LAYOUT
350
D
  3
ACAD_MATERIAL
350
E
  3
ACAD_MLEADERSTYLE
350
F
  3
ACAD_MLINESTYLE
350
10
  3
ACAD_PLOTSETTINGS
350
11
  3
ACAD_PLOTSTYLENAME
350
12
  3
ACAD_SCALELIST
350
14
  3
ACAD_TABLESTYLE
350
15
  3
ACAD_VISUALSTYLE
350
16
  3
EZDXF_META
350
2D
  0
DICTIONARY
  5
B
330
A
100
AcDbDictionary
280
0
281
1
  0
DICTIONARY
  5
C
330
A
100
AcDbDictionary
280
0
281
1
  0
DICTIONARY
  5
D
330
A
100
AcDbDictionary
280
0
281
1
  3
Model
350
1A
  3
Layout1
350
1E
  0
DICTIONARY
  5
E
330
A
100
AcDbDictionary
280
0
281
1
  3
ByBlock
350
1F
  3
ByLayer
350
20
  3
Global
350
21
  0
DICTIONARY
  5
F
330
A
100
AcDbDictionary
280
0
281
1
  3
Standard
350
2C
  0
DICTIONARY
  5
10
330
A
100
AcDbDictionary
280
0
281
1
  3
Standard
350
22
  0
DICTIONARY
  5
11
330
A
100
AcDbDictionary
280
0
281
1
  0
ACDBDICTIONARYWDFLT
  5
12
330
A
100
AcDbDictionary
280
0
281
1
  3
Normal
350
13
100
AcDbDictionaryWithDefault
340
13
  0
ACDBPLACEHOLDER
  5
13
330
12
  0
DICTIONARY
  5
14
330
A
100
AcDbDictionary
280
0
281
1
  0
DICTIONARY
  5
15
330
A
100
AcDbDictionary
280
0
281
1
  0
DICTIONARY
  5
16
330
A
100
AcDbDictionary
280
0
281
1
  0
LAYOUT
  5
1A
330
D
100
AcDbPlotSettings
  1

  4
A3
  6

 40
7.5
 41
20.0
 42
7.5
 43
20.0
 44
420.0
 45
297.0
 46
0.0
 47
0.0
 48
0.0
 49
0.0
140
0.0
141
0.0
142
1.0
143
1.0
 70
1024
 72
1
 73
0
 74
5
  7

 75
16
 76
0
 77
2
 78
300
147
1.0
148
0.0
149
0.0
100
AcDbLayout
  1
Model
 70
1
 71
0
 10
0.0
 20
0.0
 11
420.0
 21
297.0
 12
0.0
 22
0.0
 32
0.0
 14
1e+20
 24
1e+20
 34
1e+20
 15
-1e+20
 25
-1e+20
 35
-1e+20
146
0.0
 13
0.0
 23
0.0
 33
0.0
 16
1.0
 26
0.0
 36
0.0
 17
0.0
 27
1.0
 37
0.0
 76
1
330
17
  0
LAYOUT
  5
1E
330
D
100
AcDbPlotSettings
  1

  4
A3
  6

 40
7.5
 41
20.0
 42
7.5
 43
20.0
 44
420.0
 45
297.0
 46
0.0
 47
0.0
 48
0.0
 49
0.0
140
0.0
141
0.0
142
1.0
143
1.0
 70
0
 72
1
 73
0
 74
5
  7

 75
16
 76
0
 77
2
 78
300
147
1.0
148
0.0
149
0.0
100
AcDbLayout
  1
Layout1
 70
1
 71
1
 10
0.0
 20
0.0
 11
420.0
 21
297.0
 12
0.0
 22
0.0
 32
0.0
 14
1e+20
 24
1e+20
 34
1e+20
 15
-1e+20
 25
-1e+20
 35
-1e+20
146
0.0
 13
0.0
 23
0.0
 33
0.0
 16
1.0
 26
0.0
 36
0.0
 17
0.0
 27
1.0
 37
0.0
 76
1
330
1B
  0
MATERIAL
  5
1F
102
{ACAD_REACTORS
330
E
102
}
330
E
100
AcDbMaterial
  1
ByBlock
  2

 70
0
 40
1.0
 71
1
 41
1.0
 91
-1023410177
 42
1.0
 72
1
  3

 73
1
 74
1
 75
1
 44
0.5
 73
0
 45
1.0
 46
1.0
 77
1
  4

 78
1
 79
1
170
1
 48
1.0
171
1
  6

172
1
173
1
174
1
140
1.0
141
1.0
175
1
  7

176
1
177
1
178
1
143
1.0
179
1
  8

270
1
271
1
272
1
145
1.0
146
1.0
273
1
  9

274
1
275
1
276
1
 42
1.0
 72
1
  3

 73
1
 74
1
 75
1
 94
63
  0
MATERIAL
  5
20
102
{ACAD_REACTORS
330
E
102
}
330
E
100
AcDbMaterial
  1
ByLayer
  2

 70
0
 40
1.0
 71
1
 41
1.0
 91
-1023410177
 42
1.0
 72
1
  3

 73
1
 74
1
 75
1
 44
0.5
 73
0
 45
1.0
 46
1.0
 77
1
  4

 78
1
 79
1
170
1
 48
1.0
171
1
  6

172
1
173
1
174
1
140
1.0
141
1.0
175
1
  7

176
1
177
1
178
1
143
1.0
179
1
  8

270
1
271
1
272
1
145
1.0
146
1.0
273
1
  9

274
1
275
1
276
1
 42
1.0
 72
1
  3

 73
1
 74
1
 75
1
 94
63
  0
MATERIAL
  5
21
102
{ACAD_REACTORS
330
E
102
}
330
E
100
AcDbMaterial
  1
Global
  2

 70
0
 40
1.0
 71
1
 41
1.0
 91
-1023410177
 42
1.0
 72
1
  3

 73
1
 74
1
 75
1
 44
0.5
 73
0
 45
1.0
 46
1.0
 77
1
  4

 78
1
 79
1
170
1
 48
1.0
171
1
  6

172
1
173
1
174
1
140
1.0
141
1.0
175
1
  7

176
1
177
1
178
1
143
1.0
179
1
  8

270
1
271
1
272
1
145
1.0
146
1.0
273
1
  9

274
1
275
1
276
1
 42
1.0
 72
1
  3

 73
1
 74
1
 75
1
 94
63
  0
MLINESTYLE
  5
22
102
{ACAD_REACTORS
330
10
102
}
330
10
100
AcDbMlineStyle
  2
Standard
 70
0
  3

 62
256
 51
90.0
 52
90.0
 71
2
 49
0.5
 62
256
  6
BYLAYER
 49
-0.5
 62
256
  6
BYLAYER
  0
MLEADERSTYLE
  5
2C
102
{ACAD_REACTORS
330
F
102
}
330
F
100
AcDbMLeaderStyle
179
2
170
2
171
1
172
0
 90
2
 40
0.0
 41
0.0
173
1
 91
-1056964608
 92
-2
290
1
 42
2.0
291
1
 43
8.0
  3
Standard
 44
4.0
300

342
29
174
1
175
1
176
0
178
1
 93
-1056964608
 45
4.0
292
0
297
0
 46
4.0
 94
-1056964608
 47
1.0
 49
1.0
140
1.0
294
1
141
0.0
177
0
142
1.0
295
0
296
0
143
3.75
271
0
272
9
273
9
  0
DICTIONARY
  5
2D
330
A
100
AcDbDictionary
281
1
  3
CREATED_BY_EZDXF
350
2E
  3
WRITTEN_BY_EZDXF
350
4F
  0
DICTIONARYVAR
  5
2E
330
2D
100
DictionaryVariables
280
0
  1
1.3.4 @ 2024-12-03T06:35:39.321706+00:00
  0
DICTIONARYVAR
  5
4F
330
2D
100
DictionaryVariables
280
0
  1
1.3.4 @ 2024-12-03T06:35:39.328889+00:00
  0
ENDSEC
  0
EOF
