  0
SECTION
  2
HEADER
  9
$ACADVER
  1
AC1024
  9
$ACADMAINTVER
 70
6
  9
$DWGCODEPAGE
  3
ANSI_1252
  9
$LASTSAVEDBY
  1
ezdxf
  9
$INSBASE
 10
0.0
 20
0.0
 30
0.0
  9
$EXTMIN
 10
1e+20
 20
1e+20
 30
1e+20
  9
$EXTMAX
 10
-1e+20
 20
-1e+20
 30
-1e+20
  9
$LIMMIN
 10
0.0
 20
0.0
  9
$LIMMAX
 10
420.0
 20
297.0
  9
$ORTHOMODE
 70
0
  9
$REGENMODE
 70
1
  9
$FILLMODE
 70
1
  9
$QTEXTMODE
 70
0
  9
$MIRRTEXT
 70
1
  9
$LTSCALE
 40
1.0
  9
$ATTMODE
 70
1
  9
$TEXTSIZE
 40
2.5
  9
$TRACEWID
 40
1.0
  9
$TEXTSTYLE
  7
Standard
  9
$CLAYER
  8
0
  9
$CELTYPE
  6
ByLayer
  9
$CECOLOR
 62
256
  9
$CELTSCALE
 40
1.0
  9
$DISPSILH
 70
0
  9
$DIMSCALE
 40
1.0
  9
$DIMASZ
 40
2.5
  9
$DIMEXO
 40
0.625
  9
$DIMDLI
 40
3.75
  9
$DIMRND
 40
0.0
  9
$DIMDLE
 40
0.0
  9
$DIMEXE
 40
1.25
  9
$DIMTP
 40
0.0
  9
$DIMTM
 40
0.0
  9
$DIMTXT
 40
2.5
  9
$DIMCEN
 40
2.5
  9
$DIMTSZ
 40
0.0
  9
$DIMTOL
 70
0
  9
$DIMLIM
 70
0
  9
$DIMTIH
 70
0
  9
$DIMTOH
 70
0
  9
$DIMSE1
 70
0
  9
$DIMSE2
 70
0
  9
$DIMTAD
 70
1
  9
$DIMZIN
 70
8
  9
$DIMBLK
  1

  9
$DIMASO
 70
1
  9
$DIMSHO
 70
1
  9
$DIMPOST
  1

  9
$DIMAPOST
  1

  9
$DIMALT
 70
0
  9
$DIMALTD
 70
3
  9
$DIMALTF
 40
0.03937007874
  9
$DIMLFAC
 40
1.0
  9
$DIMTOFL
 70
1
  9
$DIMTVP
 40
0.0
  9
$DIMTIX
 70
0
  9
$DIMSOXD
 70
0
  9
$DIMSAH
 70
0
  9
$DIMBLK1
  1

  9
$DIMBLK2
  1

  9
$DIMSTYLE
  2
ISO-25
  9
$DIMCLRD
 70
0
  9
$DIMCLRE
 70
0
  9
$DIMCLRT
 70
0
  9
$DIMTFAC
 40
1.0
  9
$DIMGAP
 40
0.625
  9
$DIMJUST
 70
0
  9
$DIMSD1
 70
0
  9
$DIMSD2
 70
0
  9
$DIMTOLJ
 70
0
  9
$DIMTZIN
 70
8
  9
$DIMALTZ
 70
0
  9
$DIMALTTZ
 70
0
  9
$DIMUPT
 70
0
  9
$DIMDEC
 70
2
  9
$DIMTDEC
 70
2
  9
$DIMALTU
 70
2
  9
$DIMALTTD
 70
3
  9
$DIMTXSTY
  7
Standard
  9
$DIMAUNIT
 70
0
  9
$DIMADEC
 70
0
  9
$DIMALTRND
 40
0.0
  9
$DIMAZIN
 70
0
  9
$DIMDSEP
 70
44
  9
$DIMATFIT
 70
3
  9
$DIMFRAC
 70
0
  9
$DIMLDRBLK
  1

  9
$DIMLUNIT
 70
2
  9
$DIMLWD
 70
-2
  9
$DIMLWE
 70
-2
  9
$DIMTMOVE
 70
0
  9
$DIMFXL
 40
1.0
  9
$DIMFXLON
 70
0
  9
$DIMJOGANG
 40
0.785398163397
  9
$DIMTFILL
 70
0
  9
$DIMTFILLCLR
 70
0
  9
$DIMARCSYM
 70
0
  9
$DIMLTYPE
  6

  9
$DIMLTEX1
  6

  9
$DIMLTEX2
  6

  9
$DIMTXTDIRECTION
 70
0
  9
$LUNITS
 70
2
  9
$LUPREC
 70
4
  9
$SKETCHINC
 40
1.0
  9
$FILLETRAD
 40
10.0
  9
$AUNITS
 70
0
  9
$AUPREC
 70
2
  9
$MENU
  1
.
  9
$ELEVATION
 40
0.0
  9
$PELEVATION
 40
0.0
  9
$THICKNESS
 40
0.0
  9
$LIMCHECK
 70
0
  9
$CHAMFERA
 40
0.0
  9
$CHAMFERB
 40
0.0
  9
$CHAMFERC
 40
0.0
  9
$CHAMFERD
 40
0.0
  9
$SKPOLY
 70
0
  9
$TDCREATE
 40
2460656.9616550924
  9
$TDUCREATE
 40
2458532.153996898
  9
$TDUPDATE
 40
2460656.9616550924
  9
$TDUUPDATE
 40
2458532.1544311
  9
$TDINDWG
 40
0.0
  9
$TDUSRTIMER
 40
0.0
  9
$USRTIMER
 70
1
  9
$ANGBASE
 50
0.0
  9
$ANGDIR
 70
0
  9
$PDMODE
 70
0
  9
$PDSIZE
 40
0.0
  9
$PLINEWID
 40
0.0
  9
$SPLFRAME
 70
0
  9
$SPLINETYPE
 70
6
  9
$SPLINESEGS
 70
8
  9
$HANDSEED
  5
62
  9
$SURFTAB1
 70
6
  9
$SURFTAB2
 70
6
  9
$SURFTYPE
 70
6
  9
$SURFU
 70
6
  9
$SURFV
 70
6
  9
$UCSBASE
  2

  9
$UCSNAME
  2

  9
$UCSORG
 10
0.0
 20
0.0
 30
0.0
  9
$UCSXDIR
 10
1.0
 20
0.0
 30
0.0
  9
$UCSYDIR
 10
0.0
 20
1.0
 30
0.0
  9
$UCSORTHOREF
  2

  9
$UCSORTHOVIEW
 70
0
  9
$UCSORGTOP
 10
0.0
 20
0.0
 30
0.0
  9
$UCSORGBOTTOM
 10
0.0
 20
0.0
 30
0.0
  9
$UCSORGLEFT
 10
0.0
 20
0.0
 30
0.0
  9
$UCSORGRIGHT
 10
0.0
 20
0.0
 30
0.0
  9
$UCSORGFRONT
 10
0.0
 20
0.0
 30
0.0
  9
$UCSORGBACK
 10
0.0
 20
0.0
 30
0.0
  9
$PUCSBASE
  2

  9
$PUCSNAME
  2

  9
$PUCSORG
 10
0.0
 20
0.0
 30
0.0
  9
$PUCSXDIR
 10
1.0
 20
0.0
 30
0.0
  9
$PUCSYDIR
 10
0.0
 20
1.0
 30
0.0
  9
$PUCSORTHOREF
  2

  9
$PUCSORTHOVIEW
 70
0
  9
$PUCSORGTOP
 10
0.0
 20
0.0
 30
0.0
  9
$PUCSORGBOTTOM
 10
0.0
 20
0.0
 30
0.0
  9
$PUCSORGLEFT
 10
0.0
 20
0.0
 30
0.0
  9
$PUCSORGRIGHT
 10
0.0
 20
0.0
 30
0.0
  9
$PUCSORGFRONT
 10
0.0
 20
0.0
 30
0.0
  9
$PUCSORGBACK
 10
0.0
 20
0.0
 30
0.0
  9
$USERI1
 70
0
  9
$USERI2
 70
0
  9
$USERI3
 70
0
  9
$USERI4
 70
0
  9
$USERI5
 70
0
  9
$USERR1
 40
0.0
  9
$USERR2
 40
0.0
  9
$USERR3
 40
0.0
  9
$USERR4
 40
0.0
  9
$USERR5
 40
0.0
  9
$WORLDVIEW
 70
1
  9
$SHADEDGE
 70
3
  9
$SHADEDIF
 70
70
  9
$TILEMODE
 70
1
  9
$MAXACTVP
 70
64
  9
$PINSBASE
 10
0.0
 20
0.0
 30
0.0
  9
$PLIMCHECK
 70
0
  9
$PEXTMIN
 10
1e+20
 20
1e+20
 30
1e+20
  9
$PEXTMAX
 10
-1e+20
 20
-1e+20
 30
-1e+20
  9
$PLIMMIN
 10
0.0
 20
0.0
  9
$PLIMMAX
 10
420.0
 20
297.0
  9
$UNITMODE
 70
0
  9
$VISRETAIN
 70
1
  9
$PLINEGEN
 70
0
  9
$PSLTSCALE
 70
1
  9
$TREEDEPTH
 70
3020
  9
$CMLSTYLE
  2
Standard
  9
$CMLJUST
 70
0
  9
$CMLSCALE
 40
20.0
  9
$PROXYGRAPHICS
 70
1
  9
$MEASUREMENT
 70
1
  9
$CELWEIGHT
370
-1
  9
$ENDCAPS
280
0
  9
$JOINSTYLE
280
0
  9
$LWDISPLAY
290
0
  9
$INSUNITS
 70
6
  9
$HYPERLINKBASE
  1

  9
$STYLESHEET
  1

  9
$XEDIT
290
1
  9
$CEPSNTYPE
380
0
  9
$PSTYLEMODE
290
1
  9
$FINGERPRINTGUID
  2
{80E89C91-0918-43F0-B823-D0CA5DED2D23}
  9
$VERSIONGUID
  2
{FC7EBC32-19C9-4778-8B3F-96654EDEEF6C}
  9
$EXTNAMES
290
1
  9
$PSVPSCALE
 40
0.0
  9
$OLESTARTUP
290
0
  9
$SORTENTS
280
127
  9
$INDEXCTL
280
0
  9
$HIDETEXT
280
1
  9
$XCLIPFRAME
280
1
  9
$HALOGAP
280
0
  9
$OBSCOLOR
 70
257
  9
$OBSLTYPE
280
0
  9
$INTERSECTIONDISPLAY
280
0
  9
$INTERSECTIONCOLOR
 70
257
  9
$DIMASSOC
280
2
  9
$PROJECTNAME
  1

  9
$CAMERADISPLAY
290
0
  9
$LENSLENGTH
 40
50.0
  9
$CAMERAHEIGHT
 40
0.0
  9
$STEPSPERSEC
 40
24.0
  9
$STEPSIZE
 40
100.0
  9
$3DDWFPREC
 40
2.0
  9
$PSOLWIDTH
 40
0.005
  9
$PSOLHEIGHT
 40
0.08
  9
$LOFTANG1
 40
1.570796326795
  9
$LOFTANG2
 40
1.570796326795
  9
$LOFTMAG1
 40
0.0
  9
$LOFTMAG2
 40
0.0
  9
$LOFTPARAM
 70
7
  9
$LOFTNORMALS
280
1
  9
$LATITUDE
 40
37.795
  9
$LONGITUDE
 40
-122.394
  9
$NORTHDIRECTION
 40
0.0
  9
$TIMEZONE
 70
-8000
  9
$LIGHTGLYPHDISPLAY
280
1
  9
$TILEMODELIGHTSYNCH
280
1
  9
$CMATERIAL
347
20
  9
$SOLIDHIST
280
0
  9
$SHOWHIST
280
1
  9
$DWFFRAME
280
2
  9
$DGNFRAME
280
2
  9
$REALWORLDSCALE
290
1
  9
$INTERFERECOLOR
 62
256
  9
$CSHADOW
280
0
  9
$SHADOWPLANELOCATION
 40
0.0
  0
ENDSEC
  0
SECTION
  2
CLASSES
  0
CLASS
  1
ACDBDICTIONARYWDFLT
  2
AcDbDictionaryWithDefault
  3
ObjectDBX Classes
 90
0
 91
0
280
0
281
0
  0
CLASS
  1
SUN
  2
AcDbSun
  3
SCENEOE
 90
1153
 91
0
280
0
281
0
  0
CLASS
  1
VISUALSTYLE
  2
AcDbVisualStyle
  3
ObjectDBX Classes
 90
4095
 91
0
280
0
281
0
  0
CLASS
  1
MATERIAL
  2
AcDbMaterial
  3
ObjectDBX Classes
 90
1153
 91
0
280
0
281
0
  0
CLASS
  1
SCALE
  2
AcDbScale
  3
ObjectDBX Classes
 90
1153
 91
0
280
0
281
0
  0
CLASS
  1
TABLESTYLE
  2
AcDbTableStyle
  3
ObjectDBX Classes
 90
4095
 91
0
280
0
281
0
  0
CLASS
  1
MLEADERSTYLE
  2
AcDbMLeaderStyle
  3
ACDB_MLEADERSTYLE_CLASS
 90
4095
 91
0
280
0
281
0
  0
CLASS
  1
DICTIONARYVAR
  2
AcDbDictionaryVar
  3
ObjectDBX Classes
 90
0
 91
0
280
0
281
0
  0
CLASS
  1
CELLSTYLEMAP
  2
AcDbCellStyleMap
  3
ObjectDBX Classes
 90
1152
 91
0
280
0
281
0
  0
CLASS
  1
MENTALRAYRENDERSETTINGS
  2
AcDbMentalRayRenderSettings
  3
SCENEOE
 90
1024
 91
0
280
0
281
0
  0
CLASS
  1
ACDBDETAILVIEWSTYLE
  2
AcDbDetailViewStyle
  3
ObjectDBX Classes
 90
1025
 91
0
280
0
281
0
  0
CLASS
  1
ACDBSECTIONVIEWSTYLE
  2
AcDbSectionViewStyle
  3
ObjectDBX Classes
 90
1025
 91
0
280
0
281
0
  0
CLASS
  1
RASTERVARIABLES
  2
AcDbRasterVariables
  3
ISM
 90
0
 91
0
280
0
281
0
  0
CLASS
  1
LAYOUT
  2
AcDbLayout
  3
ObjectDBX Classes
 90
0
 91
0
280
0
281
0
  0
CLASS
  1
ACDBPLACEHOLDER
  2
AcDbPlaceHolder
  3
ObjectDBX Classes
 90
0
 91
0
280
0
281
0
  0
ENDSEC
  0
SECTION
  2
TABLES
  0
TABLE
  2
VPORT
  5
8
330
0
100
AcDbSymbolTable
 70
1
  0
VPORT
  5
23
330
8
100
AcDbSymbolTableRecord
100
AcDbViewportTableRecord
  2
*Active
 70
0
 10
0.0
 20
0.0
 11
1.0
 21
1.0
 12
0.0
 22
0.0
 13
0.0
 23
0.0
 14
0.5
 24
0.5
 15
0.5
 25
0.5
 16
0.0
 26
0.0
 36
1.0
 17
0.0
 27
0.0
 37
0.0
 40
1000.0
 41
1.34
 42
50.0
 43
0.0
 44
0.0
 50
0.0
 51
0.0
 71
0
 72
1000
 73
1
 74
3
 75
0
 76
0
 77
0
 78
0
281
0
 65
0
146
0.0
  0
ENDTAB
  0
TABLE
  2
LTYPE
  5
2
330
0
100
AcDbSymbolTable
 70
3
  0
LTYPE
  5
24
330
2
100
AcDbSymbolTableRecord
100
AcDbLinetypeTableRecord
  2
ByBlock
 70
0
  3

 72
65
 73
0
 40
0.0
  0
LTYPE
  5
25
330
2
100
AcDbSymbolTableRecord
100
AcDbLinetypeTableRecord
  2
ByLayer
 70
0
  3

 72
65
 73
0
 40
0.0
  0
LTYPE
  5
26
330
2
100
AcDbSymbolTableRecord
100
AcDbLinetypeTableRecord
  2
Continuous
 70
0
  3

 72
65
 73
0
 40
0.0
  0
ENDTAB
  0
TABLE
  2
LAYER
  5
1
330
0
100
AcDbSymbolTable
 70
2
  0
LAYER
  5
27
330
1
100
AcDbSymbolTableRecord
100
AcDbLayerTableRecord
  2
0
 70
0
 62
7
  6
Continuous
370
-3
390
13
347
21
  0
LAYER
  5
28
330
1
100
AcDbSymbolTableRecord
100
AcDbLayerTableRecord
  2
Defpoints
 70
0
 62
7
  6
Continuous
290
0
370
-3
390
13
347
21
  0
ENDTAB
  0
TABLE
  2
STYLE
  5
5
330
0
100
AcDbSymbolTable
 70
1
  0
STYLE
  5
29
330
5
100
AcDbSymbolTableRecord
100
AcDbTextStyleTableRecord
  2
Standard
 70
0
 40
0.0
 41
1.0
 50
0.0
 71
0
 42
2.5
  3
txt
  4

  0
ENDTAB
  0
TABLE
  2
VIEW
  5
7
330
0
100
AcDbSymbolTable
 70
0
  0
ENDTAB
  0
TABLE
  2
UCS
  5
6
330
0
100
AcDbSymbolTable
 70
0
  0
ENDTAB
  0
TABLE
  2
APPID
  5
3
330
0
100
AcDbSymbolTable
 70
3
  0
APPID
  5
2A
330
3
100
AcDbSymbolTableRecord
100
AcDbRegAppTableRecord
  2
ACAD
 70
0
  0
APPID
  5
5F
330
3
100
AcDbSymbolTableRecord
100
AcDbRegAppTableRecord
  2
HATCHBACKGROUNDCOLOR
 70
0
  0
APPID
  5
60
330
3
100
AcDbSymbolTableRecord
100
AcDbRegAppTableRecord
  2
EZDXF
 70
0
  0
ENDTAB
  0
TABLE
  2
DIMSTYLE
  5
4
330
0
100
AcDbSymbolTable
 70
1
100
AcDbDimStyleTable
  0
DIMSTYLE
105
2B
330
4
100
AcDbSymbolTableRecord
100
AcDbDimStyleTableRecord
  2
Standard
 70
0
 40
1.0
 41
2.5
 42
0.625
 43
3.75
 44
1.25
 45
0.0
 46
0.0
 47
0.0
 48
0.0
 49
2.5
140
2.5
141
2.5
142
0.0
143
0.03937007874
144
1.0
145
0.0
146
1.0
147
0.625
148
0.0
 69
0
 70
0
 71
0
 72
0
 73
0
 74
0
 75
0
 76
0
 77
1
 78
8
 79
3
170
0
171
3
172
1
173
0
174
0
175
0
176
0
177
0
178
0
179
2
271
2
272
2
273
2
274
3
275
0
276
0
277
2
278
44
279
0
280
0
281
0
282
0
283
0
284
8
285
0
286
0
288
0
289
3
290
0
371
-2
372
-2
  0
ENDTAB
  0
TABLE
  2
BLOCK_RECORD
  5
9
330
0
100
AcDbSymbolTable
 70
2
  0
BLOCK_RECORD
  5
17
330
9
100
AcDbSymbolTableRecord
100
AcDbBlockTableRecord
  2
*Model_Space
340
1A
 70
0
280
1
281
0
  0
BLOCK_RECORD
  5
1B
330
9
100
AcDbSymbolTableRecord
100
AcDbBlockTableRecord
  2
*Paper_Space
340
1E
 70
0
280
1
281
0
  0
ENDTAB
  0
ENDSEC
  0
SECTION
  2
BLOCKS
  0
BLOCK
  5
18
330
17
100
AcDbEntity
  8
0
100
AcDbBlockBegin
  2
*Model_Space
 70
0
 10
0.0
 20
0.0
 30
0.0
  3
*Model_Space
  1

  0
ENDBLK
  5
19
330
17
100
AcDbEntity
  8
0
100
AcDbBlockEnd
  0
BLOCK
  5
1C
330
1B
100
AcDbEntity
  8
0
100
AcDbBlockBegin
  2
*Paper_Space
 70
0
 10
0.0
 20
0.0
 30
0.0
  3
*Paper_Space
  1

  0
ENDBLK
  5
1D
330
1B
100
AcDbEntity
  8
0
100
AcDbBlockEnd
  0
ENDSEC
  0
SECTION
  2
ENTITIES
  0
LWPOLYLINE
  5
2F
330
17
100
AcDbEntity
  8
0
100
AcDbPolyline
 90
5
 70
0
 10
27.807852804032308
 20
-75.8078528040323
 10
-36.80785280403231
 20
-75.8078528040323
 10
-36.80785280403231
 20
48.80785280403231
 10
27.807852804032308
 20
48.80785280403231
 10
27.807852804032308
 20
-75.8078528040323
  0
LWPOLYLINE
  5
30
330
17
100
AcDbEntity
  8
0
100
AcDbPolyline
 90
25
 70
0
 10
2.0
 20
-37.0
 10
0.0
 20
-37.0
 10
0.0
 20
-36.501103329975734
 10
-0.09639825357027156
 20
-36.510597729250364
 10
-0.09663615519278031
 20
-36.510645050825296
 10
-0.2766941223224231
 20
-36.58522750282331
 10
-0.27685476045327523
 20
-36.58533483779078
 10
-0.41466516221219696
 20
-36.723145239551194
 10
-0.4147724971796916
 20
-36.72330587768208
 10
-0.4893549491732302
 20
-36.903363844799806
 10
-0.4894022707481808
 20
-36.90360174642238
 10
-0.499
 20
-37.00104912684978
 10
-0.499
 20
-37.49895087315022
 10
-0.4894022707481808
 20
-37.59639825357762
 10
-0.4893549491732302
 20
-37.596636155200194
 10
-0.4147724971796917
 20
-37.77669412231792
 10
-0.41466516221219707
 20
-37.776854760448806
 10
-0.27685476045327545
 20
-37.91466516220921
 10
-0.27669412232242335
 20
-37.914772497176685
 10
-0.09663615519278008
 20
-37.989354949174704
 10
-0.0963982535702714
 20
-37.989402270749636
 10
0.0
 20
-37.998896670024266
 10
0.0
 20
-37.5
 10
2.0
 20
-37.5
 10
2.0
 20
-37.0
  0
LWPOLYLINE
  5
31
330
17
100
AcDbEntity
  8
0
100
AcDbPolyline
 90
18
 70
0
 10
4.0
 20
-37.0
 10
4.0
 20
-37.498896670024266
 10
4.096398253570287
 20
-37.489402270749636
 10
4.096636155192796
 20
-37.489354949174704
 10
4.276694122322502
 20
-37.414772497176635
 10
4.2768547604533556
 20
-37.41466516220916
 10
4.414665162211958
 20
-37.27685476044916
 10
4.414772497179452
 20
-37.276694122318276
 10
4.489354949173201
 20
-37.09663615520035
 10
4.489402270748152
 20
-37.096398253577775
 10
4.4990000000000006
 20
-36.99895087315023
 10
4.4990000000000006
 20
-36.50104912684977
 10
4.498906323869971
 20
-36.50009801714033
 10
4.498917193766133
 20
-36.5
 10
4.0
 20
-36.5
 10
2.0
 20
-36.5
 10
2.0
 20
-37.0
 10
4.0
 20
-37.0
  0
LWPOLYLINE
  5
32
330
17
100
AcDbEntity
  8
0
100
AcDbPolyline
 90
18
 70
0
 10
8.0
 20
-36.5
 10
6.000000000000001
 20
-36.5
 10
5.5010828062338675
 20
-36.5
 10
5.50109367613003
 20
-36.50009801714033
 10
5.501
 20
-36.50104912684977
 10
5.501
 20
-36.99895087315023
 10
5.510597729251958
 20
-37.09639825357832
 10
5.510645050826909
 20
-37.0966361552009
 10
5.585227502820022
 20
-37.276694122317494
 10
5.58533483778752
 20
-37.27685476044839
 10
5.723145239546907
 20
-37.41466516220934
 10
5.72330587767776
 20
-37.41477249717681
 10
5.903363844807205
 20
-37.489354949174704
 10
5.903601746429714
 20
-37.489402270749636
 10
6.000000000000001
 20
-37.498896670024266
 10
6.000000000000001
 20
-37.0
 10
8.0
 20
-37.0
 10
8.0
 20
-36.5
  0
LWPOLYLINE
  5
33
330
17
100
AcDbEntity
  8
0
100
AcDbPolyline
 90
25
 70
0
 10
8.0
 20
-37.5
 10
10.0
 20
-37.5
 10
10.0
 20
-37.998896670024266
 10
10.096398253570285
 20
-37.989402270749636
 10
10.096636155192794
 20
-37.989354949174704
 10
10.27669412232224
 20
-37.91477249717681
 10
10.276854760453089
 20
-37.91466516220934
 10
10.414665162212483
 20
-37.77685476044838
 10
10.414772497179976
 20
-37.776694122317494
 10
10.489354949173308
 20
-37.5966361551998
 10
10.489402270748256
 20
-37.59639825357724
 10
10.498999999999999
 20
-37.498950873150214
 10
10.498999999999999
 20
-37.001049126849786
 10
10.489402270748256
 20
-36.90360174642276
 10
10.489354949173308
 20
-36.9033638448002
 10
10.414772497179976
 20
-36.723305877682506
 10
10.414665162212483
 20
-36.72314523955162
 10
10.276854760453089
 20
-36.58533483779066
 10
10.27669412232224
 20
-36.58522750282319
 10
10.096636155192794
 20
-36.510645050825296
 10
10.096398253570285
 20
-36.510597729250364
 10
10.0
 20
-36.501103329975734
 10
10.0
 20
-37.0
 10
8.0
 20
-37.0
 10
8.0
 20
-37.5
  0
LWPOLYLINE
  5
34
330
17
100
AcDbEntity
  8
0
100
AcDbPolyline
 90
18
 70
0
 10
-12.0
 20
-31.5
 10
-14.0
 20
-31.5
 10
-14.0
 20
-31.001103329975734
 10
-14.096398253579006
 20
-31.01059772925209
 10
-14.096636155201548
 20
-31.010645050827033
 10
-14.276694122319075
 20
-31.085227502821077
 10
-14.276854760449957
 20
-31.08533483778857
 10
-14.41466516221108
 20
-31.223145239549513
 10
-14.41477249717857
 20
-31.223305877680392
 10
-14.489354949173482
 20
-31.40336384480106
 10
-14.48940227074843
 20
-31.40360174642363
 10
-14.498999999999999
 20
-31.501049126849775
 10
-14.498999999999999
 20
-31.99895087315022
 10
-14.498906323869969
 20
-31.999901982859672
 10
-14.498917193766133
 20
-32.0
 10
-14.0
 20
-32.0
 10
-12.0
 20
-32.0
 10
-12.0
 20
-31.5
  0
LWPOLYLINE
  5
35
330
17
100
AcDbEntity
  8
0
100
AcDbPolyline
 90
18
 70
0
 10
-12.0
 20
-32.5
 10
-10.0
 20
-32.5
 10
-9.50108280623387
 20
-32.5
 10
-9.501093676130033
 20
-32.49990198285967
 10
-9.501000000000001
 20
-32.498950873150214
 10
-9.501000000000001
 20
-32.00104912684978
 10
-9.510597729251744
 20
-31.903601746422755
 10
-9.510645050826692
 20
-31.903363844800186
 10
-9.585227502820024
 20
-31.7233058776825
 10
-9.585334837787524
 20
-31.723145239551602
 10
-9.72314523954689
 20
-31.585334837790676
 10
-9.723305877677783
 20
-31.585227502823173
 10
-9.903363844802815
 20
-31.510645050826163
 10
-9.90360174642539
 20
-31.510597729251213
 10
-10.0
 20
-31.501103329975727
 10
-10.0
 20
-32.0
 10
-12.0
 20
-32.0
 10
-12.0
 20
-32.5
  0
LWPOLYLINE
  5
36
330
17
100
AcDbEntity
  8
0
100
AcDbPolyline
 90
18
 70
0
 10
-6.0
 20
-32.0
 10
-8.0
 20
-32.0
 10
-8.0
 20
-31.501103329975727
 10
-8.09639825357461
 20
-31.510597729251213
 10
-8.096636155197185
 20
-31.510645050826163
 10
-8.276694122322219
 20
-31.585227502823173
 10
-8.276854760453112
 20
-31.585334837790676
 10
-8.414665162212476
 20
-31.723145239551602
 10
-8.414772497179973
 20
-31.723305877682495
 10
-8.489354949173093
 20
-31.9033638447991
 10
-8.48940227074804
 20
-31.90360174642166
 10
-8.499
 20
-32.00104912684978
 10
-8.499
 20
-32.498950873150214
 10
-8.498906323869969
 20
-32.49990198285967
 10
-8.498917193766133
 20
-32.5
 10
-8.0
 20
-32.5
 10
-6.0
 20
-32.5
 10
-6.0
 20
-32.0
  0
LWPOLYLINE
  5
37
330
17
100
AcDbEntity
  8
0
100
AcDbPolyline
 90
25
 70
0
 10
-4.0
 20
-32.0
 10
-4.0
 20
-32.49889667002427
 10
-3.903601746421065
 20
-32.489402270747924
 10
-3.9033638447984162
 20
-32.489354949172956
 10
-3.7233058776809296
 20
-32.41477249717893
 10
-3.72314523955004
 20
-32.414665162211435
 10
-3.585334837788926
 20
-32.27685476045049
 10
-3.585227502821433
 20
-32.27669412231961
 10
-3.510645050826736
 20
-32.09663615520003
 10
-3.5105977292517854
 20
-32.096398253577455
 10
-3.501
 20
-31.998950873150225
 10
-3.501
 20
-31.50104912684977
 10
-3.510597729251786
 20
-31.40360174642254
 10
-3.510645050826736
 20
-31.403363844799962
 10
-3.5852275028214295
 20
-31.223305877680392
 10
-3.5853348377889214
 20
-31.22314523954951
 10
-3.723145239550039
 20
-31.08533483778857
 10
-3.7233058776809234
 20
-31.085227502821077
 10
-3.903363844798449
 20
-31.010645050827033
 10
-3.9036017464209944
 20
-31.01059772925209
 10
-4.0
 20
-31.001103329975734
 10
-4.0
 20
-31.5
 10
-6.0
 20
-31.5
 10
-6.0
 20
-32.0
 10
-4.0
 20
-32.0
  0
LWPOLYLINE
  5
38
330
17
100
AcDbEntity
  8
0
100
AcDbPolyline
 90
25
 70
0
 10
-12.0
 20
-9.5
 10
-14.0
 20
-9.5
 10
-14.0
 20
-9.001103329975734
 10
-14.096398253576805
 20
-9.010597729251657
 10
-14.096636155199377
 20
-9.010645050826605
 10
-14.276694122317497
 20
-9.085227502820024
 10
-14.276854760448389
 20
-9.08533483778752
 10
-14.41466516221248
 20
-9.223145239551611
 10
-14.414772497179976
 20
-9.223305877682503
 10
-14.489354949173395
 20
-9.403363844800623
 10
-14.489402270748343
 20
-9.403601746423195
 10
-14.498999999999999
 20
-9.50104912684978
 10
-14.498999999999999
 20
-9.99895087315022
 10
-14.489402270748343
 20
-10.096398253576805
 10
-14.489354949173395
 20
-10.096636155199377
 10
-14.414772497179976
 20
-10.276694122317497
 10
-14.41466516221248
 20
-10.276854760448389
 10
-14.276854760448389
 20
-10.41466516221248
 10
-14.276694122317497
 20
-10.414772497179976
 10
-14.096636155199377
 20
-10.489354949173395
 10
-14.096398253576805
 20
-10.489402270748343
 10
-14.0
 20
-10.498896670024266
 10
-14.0
 20
-10.0
 10
-12.0
 20
-10.0
 10
-12.0
 20
-9.5
  0
LWPOLYLINE
  5
39
330
17
100
AcDbEntity
  8
0
100
AcDbPolyline
 90
18
 70
0
 10
-12.0
 20
-10.5
 10
-10.0
 20
-10.5
 10
-9.501082806233867
 20
-10.5
 10
-9.501093676130031
 20
-10.49990198285967
 10
-9.501000000000001
 20
-10.49895087315022
 10
-9.501000000000001
 20
-10.00104912684978
 10
-9.510597729251657
 20
-9.903601746423195
 10
-9.510645050826605
 20
-9.903363844800623
 10
-9.585227502820024
 20
-9.723305877682503
 10
-9.58533483778752
 20
-9.723145239551611
 10
-9.723145239551611
 20
-9.58533483778752
 10
-9.723305877682503
 20
-9.585227502820024
 10
-9.903363844800623
 20
-9.510645050826605
 10
-9.903601746423195
 20
-9.510597729251657
 10
-10.0
 20
-9.501103329975734
 10
-10.0
 20
-10.0
 10
-12.0
 20
-10.0
 10
-12.0
 20
-10.5
  0
LWPOLYLINE
  5
3A
330
17
100
AcDbEntity
  8
0
100
AcDbPolyline
 90
18
 70
0
 10
-6.0
 20
-10.0
 10
-8.0
 20
-10.0
 10
-8.0
 20
-9.501103329975734
 10
-8.096398253576806
 20
-9.510597729251657
 10
-8.096636155199379
 20
-9.510645050826605
 10
-8.2766941223175
 20
-9.585227502820024
 10
-8.27685476044839
 20
-9.58533483778752
 10
-8.41466516221248
 20
-9.723145239551611
 10
-8.414772497179975
 20
-9.723305877682499
 10
-8.489354949173178
 20
-9.90336384479953
 10
-8.489402270748126
 20
-9.9036017464221
 10
-8.499
 20
-10.001049126849782
 10
-8.499
 20
-10.498950873150216
 10
-8.498906323869969
 20
-10.499901982859669
 10
-8.498917193766133
 20
-10.5
 10
-8.0
 20
-10.5
 10
-6.0
 20
-10.5
 10
-6.0
 20
-10.0
  0
LWPOLYLINE
  5
3B
330
17
100
AcDbEntity
  8
0
100
AcDbPolyline
 90
5
 70
0
 10
-4.0
 20
-10.0
 10
-4.0
 20
-9.5
 10
-6.0
 20
-9.5
 10
-6.0
 20
-10.0
 10
-4.0
 20
-10.0
  0
LWPOLYLINE
  5
3C
330
17
100
AcDbEntity
  8
0
100
AcDbPolyline
 90
12
 70
0
 10
-4.0
 20
-10.498896670024266
 10
-3.903601746423192
 20
-10.489402270748343
 10
-3.903363844800624
 20
-10.489354949173395
 10
-3.7233058776824985
 20
-10.414772497179975
 10
-3.723145239551609
 20
-10.41466516221248
 10
-3.585334837787523
 20
-10.276854760448392
 10
-3.5852275028200253
 20
-10.2766941223175
 10
-3.510645050826823
 20
-10.09663615520047
 10
-3.5105977292518715
 20
-10.096398253577888
 10
-3.5011033299757344
 20
-10.0
 10
-4.0
 20
-10.0
 10
-4.0
 20
-10.498896670024266
  0
LWPOLYLINE
  5
3D
330
17
100
AcDbEntity
  8
0
100
AcDbPolyline
 90
17
 70
0
 10
-26.80969883127822
 20
-64.45670858091272
 10
-26.26776695296637
 20
-65.26776695296637
 10
-25.456708580912725
 20
-65.80969883127821
 10
-24.5
 20
-66.0
 10
-23.543291419087275
 20
-65.80969883127821
 10
-22.73223304703363
 20
-65.26776695296637
 10
-22.19030116872178
 20
-64.45670858091272
 10
-22.0
 20
-63.5
 10
-22.190301168721785
 20
-62.543291419087275
 10
-22.73223304703363
 20
-61.73223304703363
 10
-23.543291419087275
 20
-61.19030116872178
 10
-24.5
 20
-61.0
 10
-25.456708580912725
 20
-61.19030116872178
 10
-26.26776695296637
 20
-61.73223304703363
 10
-26.80969883127822
 20
-62.543291419087275
 10
-27.0
 20
-63.5
 10
-26.80969883127822
 20
-64.45670858091272
  0
LWPOLYLINE
  5
3E
330
17
100
AcDbEntity
  8
0
100
AcDbPolyline
 90
17
 70
0
 10
13.190301168721783
 20
-64.45670858091272
 10
13.732233047033631
 20
-65.26776695296637
 10
14.543291419087275
 20
-65.80969883127821
 10
15.5
 20
-66.0
 10
16.456708580912725
 20
-65.80969883127821
 10
17.26776695296637
 20
-65.26776695296637
 10
17.80969883127822
 20
-64.45670858091272
 10
18.0
 20
-63.5
 10
17.809698831278215
 20
-62.543291419087275
 10
17.26776695296637
 20
-61.73223304703363
 10
16.456708580912725
 20
-61.19030116872178
 10
15.5
 20
-61.0
 10
14.543291419087275
 20
-61.19030116872178
 10
13.732233047033631
 20
-61.73223304703363
 10
13.190301168721783
 20
-62.543291419087275
 10
13.0
 20
-63.5
 10
13.190301168721783
 20
-64.45670858091272
  0
LWPOLYLINE
  5
3F
330
17
100
AcDbEntity
  8
0
100
AcDbPolyline
 90
17
 70
0
 10
-26.80969883127822
 20
35.543291419087275
 10
-26.26776695296637
 20
34.73223304703363
 10
-25.456708580912725
 20
34.19030116872178
 10
-24.5
 20
34.0
 10
-23.543291419087275
 20
34.19030116872178
 10
-22.73223304703363
 20
34.73223304703363
 10
-22.19030116872178
 20
35.543291419087275
 10
-22.0
 20
36.5
 10
-22.190301168721785
 20
37.456708580912725
 10
-22.73223304703363
 20
38.26776695296637
 10
-23.543291419087275
 20
38.80969883127822
 10
-24.5
 20
39.0
 10
-25.456708580912725
 20
38.80969883127822
 10
-26.26776695296637
 20
38.26776695296637
 10
-26.80969883127822
 20
37.456708580912725
 10
-27.0
 20
36.5
 10
-26.80969883127822
 20
35.543291419087275
  0
LWPOLYLINE
  5
40
330
17
100
AcDbEntity
  8
0
100
AcDbPolyline
 90
17
 70
0
 10
13.190301168721783
 20
35.543291419087275
 10
13.732233047033631
 20
34.73223304703363
 10
14.543291419087275
 20
34.19030116872178
 10
15.5
 20
34.0
 10
16.456708580912725
 20
34.19030116872178
 10
17.26776695296637
 20
34.73223304703363
 10
17.80969883127822
 20
35.543291419087275
 10
18.0
 20
36.5
 10
17.809698831278215
 20
37.456708580912725
 10
17.26776695296637
 20
38.26776695296637
 10
16.456708580912725
 20
38.80969883127822
 10
15.5
 20
39.0
 10
14.543291419087275
 20
38.80969883127822
 10
13.732233047033631
 20
38.26776695296637
 10
13.190301168721783
 20
37.456708580912725
 10
13.0
 20
36.5
 10
13.190301168721783
 20
35.543291419087275
  0
LWPOLYLINE
  5
41
330
17
100
AcDbEntity
  8
0
100
AcDbPolyline
 90
11
 70
0
 10
-12.763289062499998
 20
-66.71453125
 10
-11.4822265625
 20
-63.40703125
 10
-11.9220703125
 20
-63.40703125
 10
-12.6564453125
 20
-65.509375
 10
-13.3845703125
 20
-63.40703125
 10
-13.858007812499999
 20
-63.40703125
 10
-12.873632812499999
 20
-66.0046875
 10
-13.1261015625
 20
-66.53078125
 10
-13.567914062499998
 20
-66.6109375
 10
-13.424117187499998
 20
-67.0474921875
 10
-12.763289062499998
 20
-66.71453125
  0
LWPOLYLINE
  5
42
330
17
100
AcDbEntity
  8
0
100
AcDbPolyline
 90
15
 70
0
 10
-14.73408203125
 20
-64.3546875
 10
-16.22470703125
 20
-64.715625
 10
-16.50201953125
 20
-65.55778125
 10
-15.96230078125
 20
-66.02521875
 10
-14.98405078125
 20
-65.8853125
 10
-14.697363281249999
 20
-65.68046875
 10
-14.60986328125
 20
-66.0
 10
-14.150488281249999
 20
-66.0
 10
-14.34091796875
 20
-63.8196015625
 10
-14.84220703125
 20
-63.3984375
 10
-15.88173828125
 20
-63.440625
 10
-16.46298828125
 20
-64.146875
 10
-15.23048828125
 20
-63.7184375
 10
-14.811738281250001
 20
-63.91134375
 10
-14.73408203125
 20
-64.3546875
  0
LWPOLYLINE
  5
43
330
17
100
AcDbEntity
  8
0
100
AcDbPolyline
 90
14
 70
0
 10
-10.849453125
 20
-63.6414296875
 10
-11.252296874999999
 20
-64.59778125
 10
-10.922070312499999
 20
-65.70859375
 10
-9.931023437499999
 20
-66.0563984375
 10
-9.032812499999999
 20
-65.5744140625
 10
-8.8798828125
 20
-65.22109375
 10
-9.3337890625
 20
-65.16484375
 10
-9.7138671875
 20
-65.634859375
 10
-10.3154296875
 20
-65.640234375
 10
-10.794203125
 20
-64.89909375
 10
-8.867382812499999
 20
-64.815625
 10
-9.1947265625
 20
-63.70234375
 10
-9.9425703125
 20
-63.3519765625
 10
-10.849453125
 20
-63.6414296875
  0
LWPOLYLINE
  5
44
330
17
100
AcDbEntity
  8
0
100
AcDbPolyline
 90
10
 70
0
 10
-8.332714843749999
 20
-63.40703125
 10
-8.332714843749999
 20
-66.0
 10
-7.893652343749999
 20
-66.0
 10
-7.770839843749998
 20
-64.0173125
 10
-7.07568359375
 20
-63.89765625
 10
-6.924121093749999
 20
-63.48984375
 10
-7.4946835937500005
 20
-63.3625625
 10
-7.877714843749997
 20
-63.69721875
 10
-7.93740234375
 20
-63.40703125
 10
-8.332714843749999
 20
-63.40703125
  0
LWPOLYLINE
  5
45
330
17
100
AcDbEntity
  8
0
100
AcDbPolyline
 90
7
 70
0
 10
-16.89765625
 20
-65.57734375
 10
-18.66015625
 20
-65.57734375
 10
-18.66015625
 20
-62.42109375
 10
-19.13359375
 20
-62.42109375
 10
-19.13359375
 20
-66.0
 10
-16.89765625
 20
-66.0
 10
-16.89765625
 20
-65.57734375
  0
LWPOLYLINE
  5
46
330
17
100
AcDbEntity
  8
0
100
AcDbPolyline
 90
7
 70
0
 10
-3.7410156249999993
 20
-66.0
 10
-3.7410156249999993
 20
-62.40625
 10
-5.058984375
 20
-63.3046875
 10
-5.058984375
 20
-63.7296875
 10
-4.322828124999997
 20
-63.32075
 10
-4.180078125
 20
-66.0
 10
-3.7410156249999993
 20
-66.0
  0
LWPOLYLINE
  5
47
330
17
100
AcDbEntity
  8
0
100
AcDbPolyline
 90
5
 70
0
 10
32.80785280403231
 20
48.80785280403231
 10
97.42355841209692
 20
48.80785280403231
 10
97.42355841209692
 20
-75.8078528040323
 10
32.80785280403231
 20
-75.8078528040323
 10
32.80785280403231
 20
48.80785280403231
  0
LWPOLYLINE
  5
48
330
17
100
AcDbEntity
  8
0
100
AcDbPolyline
 90
18
 70
0
 10
56.615705608064616
 20
-36.501103329975734
 10
56.51930735449433
 20
-36.510597729250364
 10
56.51906945287182
 20
-36.510645050825296
 10
56.33901148574211
 20
-36.585227502823365
 10
56.33885084761126
 20
-36.58533483779084
 10
56.201040445852655
 20
-36.72314523955084
 10
56.20093311088516
 20
-36.723305877681724
 10
56.12635065889141
 20
-36.90336384479965
 10
56.126303337316465
 20
-36.903601746422225
 10
56.11670560806461
 20
-37.00104912684977
 10
56.11670560806461
 20
-37.49895087315023
 10
56.11679928419464
 20
-37.49990198285967
 10
56.11678841429848
 20
-37.5
 10
56.615705608064616
 20
-37.5
 10
58.615705608064616
 20
-37.5
 10
58.615705608064616
 20
-37.0
 10
56.615705608064616
 20
-37.0
 10
56.615705608064616
 20
-36.501103329975734
  0
LWPOLYLINE
  5
49
330
17
100
AcDbEntity
  8
0
100
AcDbPolyline
 90
25
 70
0
 10
60.615705608064616
 20
-37.0
 10
60.615705608064616
 20
-37.498896670024266
 10
60.71210386163489
 20
-37.489402270749636
 10
60.7123417632574
 20
-37.489354949174704
 10
60.89239973038704
 20
-37.414772497176685
 10
60.89256036851789
 20
-37.41466516220921
 10
61.03037077027681
 20
-37.276854760448806
 10
61.030478105244306
 20
-37.27669412231792
 10
61.10506055723785
 20
-37.096636155200194
 10
61.105107878812795
 20
-37.09639825357762
 10
61.11470560806462
 20
-36.99895087315022
 10
61.11470560806462
 20
-36.50104912684978
 10
61.105107878812795
 20
-36.40360174642238
 10
61.10506055723785
 20
-36.403363844799806
 10
61.030478105244306
 20
-36.22330587768208
 10
61.03037077027681
 20
-36.223145239551194
 10
60.89256036851789
 20
-36.08533483779078
 10
60.89239973038704
 20
-36.08522750282331
 10
60.7123417632574
 20
-36.010645050825296
 10
60.71210386163489
 20
-36.010597729250364
 10
60.615705608064616
 20
-36.001103329975734
 10
60.615705608064616
 20
-36.5
 10
58.615705608064616
 20
-36.5
 10
58.615705608064616
 20
-37.0
 10
60.615705608064616
 20
-37.0
  0
LWPOLYLINE
  5
4A
330
17
100
AcDbEntity
  8
0
100
AcDbPolyline
 90
18
 70
0
 10
54.615705608064616
 20
-37.5
 10
55.11462280183075
 20
-37.5
 10
55.11461193193458
 20
-37.49990198285967
 10
55.11470560806462
 20
-37.49895087315023
 10
55.11470560806462
 20
-37.00104912684977
 10
55.10510787881266
 20
-36.90360174642168
 10
55.10506055723771
 20
-36.9033638447991
 10
55.0304781052446
 20
-36.723305877682506
 10
55.030370770277095
 20
-36.72314523955161
 10
54.89256036851771
 20
-36.58533483779066
 10
54.892399730386856
 20
-36.58522750282319
 10
54.71234176325741
 20
-36.510645050825296
 10
54.7121038616349
 20
-36.510597729250364
 10
54.615705608064616
 20
-36.501103329975734
 10
54.615705608064616
 20
-37.0
 10
52.615705608064616
 20
-37.0
 10
52.615705608064616
 20
-37.5
 10
54.615705608064616
 20
-37.5
  0
LWPOLYLINE
  5
4B
330
17
100
AcDbEntity
  8
0
100
AcDbPolyline
 90
25
 70
0
 10
52.615705608064616
 20
-36.5
 10
50.615705608064616
 20
-36.5
 10
50.615705608064616
 20
-36.001103329975734
 10
50.51930735449433
 20
-36.010597729250364
 10
50.51906945287182
 20
-36.010645050825296
 10
50.339011485742375
 20
-36.08522750282319
 10
50.338850847611525
 20
-36.08533483779066
 10
50.20104044585213
 20
-36.22314523955162
 10
50.20093311088464
 20
-36.223305877682506
 10
50.12635065889131
 20
-36.4033638448002
 10
50.12630333731636
 20
-36.40360174642276
 10
50.11670560806462
 20
-36.501049126849786
 10
50.11670560806462
 20
-36.998950873150214
 10
50.12630333731636
 20
-37.09639825357724
 10
50.12635065889131
 20
-37.0966361551998
 10
50.20093311088464
 20
-37.276694122317494
 10
50.20104044585213
 20
-37.27685476044838
 10
50.338850847611525
 20
-37.41466516220934
 10
50.339011485742375
 20
-37.41477249717681
 10
50.51906945287182
 20
-37.489354949174704
 10
50.51930735449433
 20
-37.489402270749636
 10
50.615705608064616
 20
-37.498896670024266
 10
50.615705608064616
 20
-37.0
 10
52.615705608064616
 20
-37.0
 10
52.615705608064616
 20
-36.5
  0
LWPOLYLINE
  5
4C
330
17
100
AcDbEntity
  8
0
100
AcDbPolyline
 90
25
 70
0
 10
64.61570560806462
 20
-31.501103329975727
 10
64.51930735449001
 20
-31.510597729251213
 10
64.51906945286743
 20
-31.510645050826163
 10
64.3390114857424
 20
-31.585227502823173
 10
64.3388508476115
 20
-31.585334837790676
 10
64.20104044585214
 20
-31.7231452395516
 10
64.20093311088465
 20
-31.7233058776825
 10
64.12635065889152
 20
-31.9033638447991
 10
64.12630333731657
 20
-31.903601746421675
 10
64.11670560806462
 20
-32.00104912684977
 10
64.11670560806462
 20
-32.49895087315022
 10
64.12630333731657
 20
-32.59639825357833
 10
64.12635065889152
 20
-32.5966361552009
 10
64.20093311088463
 20
-32.776694122317494
 10
64.20104044585213
 20
-32.77685476044839
 10
64.33885084761152
 20
-32.91466516220934
 10
64.33901148574238
 20
-32.91477249717681
 10
64.51906945287182
 20
-32.989354949174704
 10
64.51930735449433
 20
-32.989402270749636
 10
64.61570560806462
 20
-32.998896670024266
 10
64.61570560806462
 20
-32.5
 10
66.61570560806462
 20
-32.5
 10
66.61570560806462
 20
-32.0
 10
64.61570560806462
 20
-32.0
 10
64.61570560806462
 20
-31.501103329975727
  0
LWPOLYLINE
  5
4D
330
17
100
AcDbEntity
  8
0
100
AcDbPolyline
 90
18
 70
0
 10
68.61570560806462
 20
-32.0
 10
68.61570560806462
 20
-32.49889667002427
 10
68.71210386164356
 20
-32.489402270747924
 10
68.7123417632662
 20
-32.489354949172956
 10
68.89239973038369
 20
-32.41477249717893
 10
68.89256036851457
 20
-32.414665162211435
 10
69.0303707702757
 20
-32.27685476045049
 10
69.03047810524318
 20
-32.27669412231961
 10
69.10506055723788
 20
-32.09663615520004
 10
69.10510787881283
 20
-32.09639825357745
 10
69.11470560806461
 20
-31.998950873150218
 10
69.11470560806461
 20
-31.501049126849775
 10
69.11461193193459
 20
-31.500098017140328
 10
69.11462280183075
 20
-31.5
 10
68.61570560806462
 20
-31.5
 10
66.61570560806462
 20
-31.5
 10
66.61570560806462
 20
-32.0
 10
68.61570560806462
 20
-32.0
  0
LWPOLYLINE
  5
4E
330
17
100
AcDbEntity
  8
0
100
AcDbPolyline
 90
12
 70
0
 10
75.10510787881287
 20
-31.903601746422755
 10
75.10506055723792
 20
-31.903363844800186
 10
75.0304781052446
 20
-31.7233058776825
 10
75.03037077027709
 20
-31.723145239551602
 10
74.89256036851772
 20
-31.585334837790676
 10
74.89239973038683
 20
-31.585227502823173
 10
74.7123417632618
 20
-31.510645050826163
 10
74.71210386163922
 20
-31.510597729251213
 10
74.61570560806462
 20
-31.501103329975727
 10
74.61570560806462
 20
-32.0
 10
75.11460227808888
 20
-32.0
 10
75.10510787881287
 20
-31.903601746422755
  0
LWPOLYLINE
  5
4F
330
17
100
AcDbEntity
  8
0
100
AcDbPolyline
 90
5
 70
0
 10
72.61570560806462
 20
-32.0
 10
72.61570560806462
 20
-32.5
 10
74.61570560806462
 20
-32.5
 10
74.61570560806462
 20
-32.0
 10
72.61570560806462
 20
-32.0
  0
LWPOLYLINE
  5
50
330
17
100
AcDbEntity
  8
0
100
AcDbPolyline
 90
18
 70
0
 10
72.61570560806462
 20
-31.5
 10
70.61570560806462
 20
-31.5
 10
70.11678841429848
 20
-31.5
 10
70.11679928419464
 20
-31.500098017140328
 10
70.11670560806462
 20
-31.501049126849775
 10
70.11670560806462
 20
-31.99895087315022
 10
70.12630333731619
 20
-32.09639825357635
 10
70.12635065889114
 20
-32.09663615519896
 10
70.20093311088604
 20
-32.276694122319604
 10
70.20104044585354
 20
-32.27685476045049
 10
70.33885084761467
 20
-32.414665162211435
 10
70.33901148574554
 20
-32.41477249717893
 10
70.51906945286304
 20
-32.489354949172956
 10
70.51930735448568
 20
-32.489402270747924
 10
70.61570560806462
 20
-32.49889667002427
 10
70.61570560806462
 20
-32.0
 10
72.61570560806462
 20
-32.0
 10
72.61570560806462
 20
-31.5
  0
LWPOLYLINE
  5
51
330
17
100
AcDbEntity
  8
0
100
AcDbPolyline
 90
25
 70
0
 10
74.61570560806462
 20
-10.5
 10
74.61570560806462
 20
-10.998896670024266
 10
74.71210386164142
 20
-10.989402270748343
 10
74.71234176326399
 20
-10.989354949173395
 10
74.89239973038211
 20
-10.914772497179976
 10
74.892560368513
 20
-10.91466516221248
 10
75.0303707702771
 20
-10.776854760448389
 10
75.0304781052446
 20
-10.776694122317497
 10
75.105060557238
 20
-10.596636155199377
 10
75.10510787881296
 20
-10.596398253576805
 10
75.11470560806461
 20
-10.49895087315022
 10
75.11470560806461
 20
-10.00104912684978
 10
75.10510787881296
 20
-9.903601746423195
 10
75.105060557238
 20
-9.903363844800623
 10
75.0304781052446
 20
-9.723305877682503
 10
75.0303707702771
 20
-9.723145239551611
 10
74.892560368513
 20
-9.58533483778752
 10
74.89239973038211
 20
-9.585227502820024
 10
74.71234176326399
 20
-9.510645050826605
 10
74.71210386164142
 20
-9.510597729251657
 10
74.61570560806462
 20
-9.501103329975734
 10
74.61570560806462
 20
-10.0
 10
72.61570560806462
 20
-10.0
 10
72.61570560806462
 20
-10.5
 10
74.61570560806462
 20
-10.5
  0
LWPOLYLINE
  5
52
330
17
100
AcDbEntity
  8
0
100
AcDbPolyline
 90
18
 70
0
 10
72.61570560806462
 20
-9.5
 10
70.61570560806462
 20
-9.5
 10
70.11678841429848
 20
-9.5
 10
70.11679928419464
 20
-9.50009801714033
 10
70.11670560806462
 20
-9.50104912684978
 10
70.11670560806462
 20
-9.99895087315022
 10
70.12630333731627
 20
-10.096398253576805
 10
70.12635065889123
 20
-10.096636155199377
 10
70.20093311088463
 20
-10.276694122317497
 10
70.20104044585213
 20
-10.276854760448389
 10
70.33885084761623
 20
-10.41466516221248
 10
70.33901148574712
 20
-10.414772497179976
 10
70.51906945286524
 20
-10.489354949173395
 10
70.51930735448781
 20
-10.489402270748343
 10
70.61570560806462
 20
-10.498896670024266
 10
70.61570560806462
 20
-10.0
 10
72.61570560806462
 20
-10.0
 10
72.61570560806462
 20
-9.5
  0
LWPOLYLINE
  5
53
330
17
100
AcDbEntity
  8
0
100
AcDbPolyline
 90
18
 70
0
 10
68.61570560806462
 20
-10.498896670024266
 10
68.71210386164142
 20
-10.489402270748343
 10
68.71234176326399
 20
-10.489354949173395
 10
68.89239973038211
 20
-10.414772497179976
 10
68.892560368513
 20
-10.41466516221248
 10
69.0303707702771
 20
-10.276854760448389
 10
69.03047810524458
 20
-10.276694122317501
 10
69.10506055723779
 20
-10.09663615520047
 10
69.10510787881275
 20
-10.0963982535779
 10
69.11470560806461
 20
-9.998950873150218
 10
69.11470560806461
 20
-9.501049126849784
 10
69.11461193193459
 20
-9.500098017140331
 10
69.11462280183075
 20
-9.5
 10
68.61570560806462
 20
-9.5
 10
66.61570560806462
 20
-9.5
 10
66.61570560806462
 20
-10.0
 10
68.61570560806462
 20
-10.0
 10
68.61570560806462
 20
-10.498896670024266
  0
LWPOLYLINE
  5
54
330
17
100
AcDbEntity
  8
0
100
AcDbPolyline
 90
18
 70
0
 10
64.61570560806462
 20
-10.0
 10
64.11678841429848
 20
-10.0
 10
64.11679928419464
 20
-10.00009801714033
 10
64.11670560806462
 20
-10.001049126849773
 10
64.11670560806462
 20
-10.498950873150227
 10
64.12630333731649
 20
-10.596398253577888
 10
64.12635065889144
 20
-10.59663615520047
 10
64.20093311088465
 20
-10.7766941223175
 10
64.20104044585214
 20
-10.776854760448392
 10
64.33885084761623
 20
-10.91466516221248
 10
64.33901148574711
 20
-10.914772497179975
 10
64.51906945286524
 20
-10.989354949173395
 10
64.51930735448781
 20
-10.989402270748343
 10
64.61570560806462
 20
-10.998896670024266
 10
64.61570560806462
 20
-10.5
 10
66.61570560806462
 20
-10.5
 10
66.61570560806462
 20
-10.0
 10
64.61570560806462
 20
-10.0
  0
LWPOLYLINE
  5
55
330
17
100
AcDbEntity
  8
0
100
AcDbPolyline
 90
17
 70
0
 10
86.07241418897735
 20
-61.19030116872178
 10
85.11570560806462
 20
-61.0
 10
84.15899702715188
 20
-61.19030116872178
 10
83.34793865509825
 20
-61.73223304703363
 10
82.8060067767864
 20
-62.543291419087275
 10
82.61570560806462
 20
-63.5
 10
82.8060067767864
 20
-64.45670858091272
 10
83.34793865509825
 20
-65.26776695296637
 10
84.15899702715188
 20
-65.80969883127821
 10
85.11570560806462
 20
-66.0
 10
86.07241418897735
 20
-65.80969883127821
 10
86.88347256103098
 20
-65.26776695296637
 10
87.42540443934283
 20
-64.45670858091272
 10
87.61570560806462
 20
-63.5
 10
87.42540443934283
 20
-62.543291419087275
 10
86.88347256103098
 20
-61.73223304703363
 10
86.07241418897735
 20
-61.19030116872178
  0
LWPOLYLINE
  5
56
330
17
100
AcDbEntity
  8
0
100
AcDbPolyline
 90
17
 70
0
 10
46.07241418897734
 20
-61.19030116872178
 10
45.115705608064616
 20
-61.0
 10
44.15899702715189
 20
-61.19030116872178
 10
43.34793865509825
 20
-61.73223304703363
 10
42.806006776786404
 20
-62.543291419087275
 10
42.615705608064616
 20
-63.5
 10
42.8060067767864
 20
-64.45670858091272
 10
43.34793865509825
 20
-65.26776695296637
 10
44.15899702715189
 20
-65.80969883127821
 10
45.115705608064616
 20
-66.0
 10
46.07241418897734
 20
-65.80969883127821
 10
46.883472561030985
 20
-65.26776695296637
 10
47.425404439342834
 20
-64.45670858091272
 10
47.615705608064616
 20
-63.5
 10
47.425404439342834
 20
-62.543291419087275
 10
46.883472561030985
 20
-61.73223304703363
 10
46.07241418897734
 20
-61.19030116872178
  0
LWPOLYLINE
  5
57
330
17
100
AcDbEntity
  8
0
100
AcDbPolyline
 90
17
 70
0
 10
86.07241418897735
 20
38.80969883127822
 10
85.11570560806462
 20
39.0
 10
84.15899702715188
 20
38.80969883127822
 10
83.34793865509825
 20
38.26776695296637
 10
82.8060067767864
 20
37.456708580912725
 10
82.61570560806462
 20
36.5
 10
82.8060067767864
 20
35.543291419087275
 10
83.34793865509825
 20
34.73223304703363
 10
84.15899702715188
 20
34.19030116872178
 10
85.11570560806462
 20
34.0
 10
86.07241418897735
 20
34.19030116872178
 10
86.88347256103098
 20
34.73223304703363
 10
87.42540443934283
 20
35.543291419087275
 10
87.61570560806462
 20
36.5
 10
87.42540443934283
 20
37.456708580912725
 10
86.88347256103098
 20
38.26776695296637
 10
86.07241418897735
 20
38.80969883127822
  0
LWPOLYLINE
  5
58
330
17
100
AcDbEntity
  8
0
100
AcDbPolyline
 90
17
 70
0
 10
46.07241418897734
 20
38.80969883127822
 10
45.115705608064616
 20
39.0
 10
44.15899702715189
 20
38.80969883127822
 10
43.34793865509825
 20
38.26776695296637
 10
42.806006776786404
 20
37.456708580912725
 10
42.615705608064616
 20
36.5
 10
42.8060067767864
 20
35.543291419087275
 10
43.34793865509825
 20
34.73223304703363
 10
44.15899702715189
 20
34.19030116872178
 10
45.115705608064616
 20
34.0
 10
46.07241418897734
 20
34.19030116872178
 10
46.883472561030985
 20
34.73223304703363
 10
47.425404439342834
 20
35.543291419087275
 10
47.615705608064616
 20
36.5
 10
47.425404439342834
 20
37.456708580912725
 10
46.883472561030985
 20
38.26776695296637
 10
46.07241418897734
 20
38.80969883127822
  0
LWPOLYLINE
  5
59
330
17
100
AcDbEntity
  8
0
100
AcDbPolyline
 90
11
 70
0
 10
73.48933842056462
 20
-66.0046875
 10
74.47371342056462
 20
-63.40703125
 10
74.00027592056462
 20
-63.40703125
 10
73.27215092056461
 20
-65.509375
 10
72.53777592056461
 20
-63.40703125
 10
72.09793217056462
 20
-63.40703125
 10
73.37899467056461
 20
-66.71453125
 10
74.03982279556462
 20
-67.0474921875
 10
74.18361967056461
 20
-66.6109375
 10
73.74180717056461
 20
-66.53078125
 10
73.48933842056462
 20
-66.0046875
  0
LWPOLYLINE
  5
5A
330
17
100
AcDbEntity
  8
0
100
AcDbPolyline
 90
15
 70
0
 10
76.49744388931461
 20
-63.440625
 10
75.45791263931461
 20
-63.3984375
 10
74.95662357681462
 20
-63.8196015625
 10
74.76619388931462
 20
-66.0
 10
75.22556888931462
 20
-66.0
 10
75.31306888931462
 20
-65.68046875
 10
75.59975638931462
 20
-65.8853125
 10
76.57800638931462
 20
-66.02521875
 10
77.11772513931462
 20
-65.55778125
 10
76.84041263931462
 20
-64.715625
 10
75.34978763931461
 20
-64.3546875
 10
75.42744388931462
 20
-63.91134375
 10
75.84619388931462
 20
-63.7184375
 10
77.07869388931462
 20
-64.146875
 10
76.49744388931461
 20
-63.440625
  0
LWPOLYLINE
  5
5B
330
17
100
AcDbEntity
  8
0
100
AcDbPolyline
 90
14
 70
0
 10
71.40990873306461
 20
-64.89909375
 10
70.93113529556462
 20
-65.640234375
 10
70.32957279556462
 20
-65.634859375
 10
69.94949467056462
 20
-65.16484375
 10
69.49558842056462
 20
-65.22109375
 10
69.64851810806462
 20
-65.5744140625
 10
70.54672904556462
 20
-66.0563984375
 10
71.53777592056461
 20
-65.70859375
 10
71.86800248306461
 20
-64.59778125
 10
71.46515873306461
 20
-63.6414296875
 10
70.55827592056461
 20
-63.3519765625
 10
69.81043217056461
 20
-63.70234375
 10
69.48308842056461
 20
-64.815625
 10
71.40990873306461
 20
-64.89909375
  0
LWPOLYLINE
  5
5C
330
17
100
AcDbEntity
  8
0
100
AcDbPolyline
 90
10
 70
0
 10
67.53982670181462
 20
-63.48984375
 10
67.69138920181462
 20
-63.89765625
 10
68.38654545181461
 20
-64.0173125
 10
68.50935795181462
 20
-66.0
 10
68.94842045181461
 20
-66.0
 10
68.94842045181461
 20
-63.40703125
 10
68.55310795181461
 20
-63.40703125
 10
68.49342045181461
 20
-63.69721875
 10
68.11038920181461
 20
-63.3625625
 10
67.53982670181462
 20
-63.48984375
  0
LWPOLYLINE
  5
5D
330
17
100
AcDbEntity
  8
0
100
AcDbPolyline
 90
24
 70
0
 10
65.06997123306462
 20
-62.7930625
 10
65.52547123306462
 20
-63.41171875
 10
65.96531498306462
 20
-63.33359375
 10
65.47975248306462
 20
-62.561749999999996
 10
64.50156498306461
 20
-62.4678828125
 10
63.87390873306462
 20
-63.0990234375
 10
63.92109623306462
 20
-63.68071875
 10
64.33406498306462
 20
-64.06171875
 10
63.751447795564616
 20
-64.5143828125
 10
63.72006498306462
 20
-65.29509375
 10
64.15131498306461
 20
-65.85478125
 10
64.87156498306462
 20
-66.06328125
 10
65.65437748306462
 20
-65.7828125
 10
66.00906498306462
 20
-65.05546875
 10
65.57000248306461
 20
-64.996875
 10
65.46765873306461
 20
-65.3181640625
 10
64.80815873306462
 20
-65.6978515625
 10
64.16597123306461
 20
-65.19021875
 10
64.3699868580646
 20
-64.4165
 10
65.14265873306462
 20
-64.30546875
 10
65.09343998306461
 20
-63.91953125
 10
64.34890873306462
 20
-63.5923828125
 10
64.45672123306461
 20
-62.9265625
 10
65.06997123306462
 20
-62.7930625
  0
LWPOLYLINE
  5
5E
330
17
100
AcDbEntity
  8
0
100
AcDbPolyline
 90
7
 70
0
 10
79.27586185806462
 20
-62.42109375
 10
79.27586185806462
 20
-65.57734375
 10
77.51336185806461
 20
-65.57734375
 10
77.51336185806461
 20
-66.0
 10
79.74929935806462
 20
-66.0
 10
79.74929935806462
 20
-62.42109375
 10
79.27586185806462
 20
-62.42109375
  0
ENDSEC
  0
SECTION
  2
OBJECTS
  0
DICTIONARY
  5
A
330
0
100
AcDbDictionary
280
0
281
1
  3
ACAD_COLOR
350
B
  3
ACAD_GROUP
350
C
  3
ACAD_LAYOUT
350
D
  3
ACAD_MATERIAL
350
E
  3
ACAD_MLEADERSTYLE
350
F
  3
ACAD_MLINESTYLE
350
10
  3
ACAD_PLOTSETTINGS
350
11
  3
ACAD_PLOTSTYLENAME
350
12
  3
ACAD_SCALELIST
350
14
  3
ACAD_TABLESTYLE
350
15
  3
ACAD_VISUALSTYLE
350
16
  3
EZDXF_META
350
2D
  0
DICTIONARY
  5
B
330
A
100
AcDbDictionary
280
0
281
1
  0
DICTIONARY
  5
C
330
A
100
AcDbDictionary
280
0
281
1
  0
DICTIONARY
  5
D
330
A
100
AcDbDictionary
280
0
281
1
  3
Model
350
1A
  3
Layout1
350
1E
  0
DICTIONARY
  5
E
330
A
100
AcDbDictionary
280
0
281
1
  3
ByBlock
350
1F
  3
ByLayer
350
20
  3
Global
350
21
  0
DICTIONARY
  5
F
330
A
100
AcDbDictionary
280
0
281
1
  3
Standard
350
2C
  0
DICTIONARY
  5
10
330
A
100
AcDbDictionary
280
0
281
1
  3
Standard
350
22
  0
DICTIONARY
  5
11
330
A
100
AcDbDictionary
280
0
281
1
  0
ACDBDICTIONARYWDFLT
  5
12
330
A
100
AcDbDictionary
280
0
281
1
  3
Normal
350
13
100
AcDbDictionaryWithDefault
340
13
  0
ACDBPLACEHOLDER
  5
13
330
12
  0
DICTIONARY
  5
14
330
A
100
AcDbDictionary
280
0
281
1
  0
DICTIONARY
  5
15
330
A
100
AcDbDictionary
280
0
281
1
  0
DICTIONARY
  5
16
330
A
100
AcDbDictionary
280
0
281
1
  0
LAYOUT
  5
1A
330
D
100
AcDbPlotSettings
  1

  4
A3
  6

 40
7.5
 41
20.0
 42
7.5
 43
20.0
 44
420.0
 45
297.0
 46
0.0
 47
0.0
 48
0.0
 49
0.0
140
0.0
141
0.0
142
1.0
143
1.0
 70
1024
 72
1
 73
0
 74
5
  7

 75
16
 76
0
 77
2
 78
300
147
1.0
148
0.0
149
0.0
100
AcDbLayout
  1
Model
 70
1
 71
0
 10
0.0
 20
0.0
 11
420.0
 21
297.0
 12
0.0
 22
0.0
 32
0.0
 14
1e+20
 24
1e+20
 34
1e+20
 15
-1e+20
 25
-1e+20
 35
-1e+20
146
0.0
 13
0.0
 23
0.0
 33
0.0
 16
1.0
 26
0.0
 36
0.0
 17
0.0
 27
1.0
 37
0.0
 76
1
330
17
  0
LAYOUT
  5
1E
330
D
100
AcDbPlotSettings
  1

  4
A3
  6

 40
7.5
 41
20.0
 42
7.5
 43
20.0
 44
420.0
 45
297.0
 46
0.0
 47
0.0
 48
0.0
 49
0.0
140
0.0
141
0.0
142
1.0
143
1.0
 70
0
 72
1
 73
0
 74
5
  7

 75
16
 76
0
 77
2
 78
300
147
1.0
148
0.0
149
0.0
100
AcDbLayout
  1
Layout1
 70
1
 71
1
 10
0.0
 20
0.0
 11
420.0
 21
297.0
 12
0.0
 22
0.0
 32
0.0
 14
1e+20
 24
1e+20
 34
1e+20
 15
-1e+20
 25
-1e+20
 35
-1e+20
146
0.0
 13
0.0
 23
0.0
 33
0.0
 16
1.0
 26
0.0
 36
0.0
 17
0.0
 27
1.0
 37
0.0
 76
1
330
1B
  0
MATERIAL
  5
1F
102
{ACAD_REACTORS
330
E
102
}
330
E
100
AcDbMaterial
  1
ByBlock
  2

 70
0
 40
1.0
 71
1
 41
1.0
 91
-1023410177
 42
1.0
 72
1
  3

 73
1
 74
1
 75
1
 44
0.5
 73
0
 45
1.0
 46
1.0
 77
1
  4

 78
1
 79
1
170
1
 48
1.0
171
1
  6

172
1
173
1
174
1
140
1.0
141
1.0
175
1
  7

176
1
177
1
178
1
143
1.0
179
1
  8

270
1
271
1
272
1
145
1.0
146
1.0
273
1
  9

274
1
275
1
276
1
 42
1.0
 72
1
  3

 73
1
 74
1
 75
1
 94
63
  0
MATERIAL
  5
20
102
{ACAD_REACTORS
330
E
102
}
330
E
100
AcDbMaterial
  1
ByLayer
  2

 70
0
 40
1.0
 71
1
 41
1.0
 91
-1023410177
 42
1.0
 72
1
  3

 73
1
 74
1
 75
1
 44
0.5
 73
0
 45
1.0
 46
1.0
 77
1
  4

 78
1
 79
1
170
1
 48
1.0
171
1
  6

172
1
173
1
174
1
140
1.0
141
1.0
175
1
  7

176
1
177
1
178
1
143
1.0
179
1
  8

270
1
271
1
272
1
145
1.0
146
1.0
273
1
  9

274
1
275
1
276
1
 42
1.0
 72
1
  3

 73
1
 74
1
 75
1
 94
63
  0
MATERIAL
  5
21
102
{ACAD_REACTORS
330
E
102
}
330
E
100
AcDbMaterial
  1
Global
  2

 70
0
 40
1.0
 71
1
 41
1.0
 91
-1023410177
 42
1.0
 72
1
  3

 73
1
 74
1
 75
1
 44
0.5
 73
0
 45
1.0
 46
1.0
 77
1
  4

 78
1
 79
1
170
1
 48
1.0
171
1
  6

172
1
173
1
174
1
140
1.0
141
1.0
175
1
  7

176
1
177
1
178
1
143
1.0
179
1
  8

270
1
271
1
272
1
145
1.0
146
1.0
273
1
  9

274
1
275
1
276
1
 42
1.0
 72
1
  3

 73
1
 74
1
 75
1
 94
63
  0
MLINESTYLE
  5
22
102
{ACAD_REACTORS
330
10
102
}
330
10
100
AcDbMlineStyle
  2
Standard
 70
0
  3

 62
256
 51
90.0
 52
90.0
 71
2
 49
0.5
 62
256
  6
BYLAYER
 49
-0.5
 62
256
  6
BYLAYER
  0
MLEADERSTYLE
  5
2C
102
{ACAD_REACTORS
330
F
102
}
330
F
100
AcDbMLeaderStyle
179
2
170
2
171
1
172
0
 90
2
 40
0.0
 41
0.0
173
1
 91
-1056964608
 92
-2
290
1
 42
2.0
291
1
 43
8.0
  3
Standard
 44
4.0
300

342
29
174
1
175
1
176
0
178
1
 93
-1056964608
 45
4.0
292
0
297
0
 46
4.0
 94
-1056964608
 47
1.0
 49
1.0
140
1.0
294
1
141
0.0
177
0
142
1.0
295
0
296
0
143
3.75
271
0
272
9
273
9
  0
DICTIONARY
  5
2D
330
A
100
AcDbDictionary
281
1
  3
CREATED_BY_EZDXF
350
2E
  3
WRITTEN_BY_EZDXF
350
61
  0
DICTIONARYVAR
  5
2E
330
2D
100
DictionaryVariables
280
0
  1
1.3.4 @ 2024-12-12T06:04:47.135799+00:00
  0
DICTIONARYVAR
  5
61
330
2D
100
DictionaryVariables
280
0
  1
1.3.4 @ 2024-12-12T06:04:47.145297+00:00
  0
ENDSEC
  0
EOF
