  0
SECTION
  2
HEADER
  9
$ACADVER
  1
AC1024
  9
$ACADMAINTVER
 70
6
  9
$DWGCODEPAGE
  3
ANSI_1252
  9
$LASTSAVEDBY
  1
ezdxf
  9
$INSBASE
 10
0.0
 20
0.0
 30
0.0
  9
$EXTMIN
 10
1e+20
 20
1e+20
 30
1e+20
  9
$EXTMAX
 10
-1e+20
 20
-1e+20
 30
-1e+20
  9
$LIMMIN
 10
0.0
 20
0.0
  9
$LIMMAX
 10
420.0
 20
297.0
  9
$ORTHOMODE
 70
0
  9
$REGENMODE
 70
1
  9
$FILLMODE
 70
1
  9
$QTEXTMODE
 70
0
  9
$MIRRTEXT
 70
1
  9
$LTSCALE
 40
1.0
  9
$ATTMODE
 70
1
  9
$TEXTSIZE
 40
2.5
  9
$TRACEWID
 40
1.0
  9
$TEXTSTYLE
  7
Standard
  9
$CLAYER
  8
0
  9
$CELTYPE
  6
ByLayer
  9
$CECOLOR
 62
256
  9
$CELTSCALE
 40
1.0
  9
$DISPSILH
 70
0
  9
$DIMSCALE
 40
1.0
  9
$DIMASZ
 40
2.5
  9
$DIMEXO
 40
0.625
  9
$DIMDLI
 40
3.75
  9
$DIMRND
 40
0.0
  9
$DIMDLE
 40
0.0
  9
$DIMEXE
 40
1.25
  9
$DIMTP
 40
0.0
  9
$DIMTM
 40
0.0
  9
$DIMTXT
 40
2.5
  9
$DIMCEN
 40
2.5
  9
$DIMTSZ
 40
0.0
  9
$DIMTOL
 70
0
  9
$DIMLIM
 70
0
  9
$DIMTIH
 70
0
  9
$DIMTOH
 70
0
  9
$DIMSE1
 70
0
  9
$DIMSE2
 70
0
  9
$DIMTAD
 70
1
  9
$DIMZIN
 70
8
  9
$DIMBLK
  1

  9
$DIMASO
 70
1
  9
$DIMSHO
 70
1
  9
$DIMPOST
  1

  9
$DIMAPOST
  1

  9
$DIMALT
 70
0
  9
$DIMALTD
 70
3
  9
$DIMALTF
 40
0.03937007874
  9
$DIMLFAC
 40
1.0
  9
$DIMTOFL
 70
1
  9
$DIMTVP
 40
0.0
  9
$DIMTIX
 70
0
  9
$DIMSOXD
 70
0
  9
$DIMSAH
 70
0
  9
$DIMBLK1
  1

  9
$DIMBLK2
  1

  9
$DIMSTYLE
  2
ISO-25
  9
$DIMCLRD
 70
0
  9
$DIMCLRE
 70
0
  9
$DIMCLRT
 70
0
  9
$DIMTFAC
 40
1.0
  9
$DIMGAP
 40
0.625
  9
$DIMJUST
 70
0
  9
$DIMSD1
 70
0
  9
$DIMSD2
 70
0
  9
$DIMTOLJ
 70
0
  9
$DIMTZIN
 70
8
  9
$DIMALTZ
 70
0
  9
$DIMALTTZ
 70
0
  9
$DIMUPT
 70
0
  9
$DIMDEC
 70
2
  9
$DIMTDEC
 70
2
  9
$DIMALTU
 70
2
  9
$DIMALTTD
 70
3
  9
$DIMTXSTY
  7
Standard
  9
$DIMAUNIT
 70
0
  9
$DIMADEC
 70
0
  9
$DIMALTRND
 40
0.0
  9
$DIMAZIN
 70
0
  9
$DIMDSEP
 70
44
  9
$DIMATFIT
 70
3
  9
$DIMFRAC
 70
0
  9
$DIMLDRBLK
  1

  9
$DIMLUNIT
 70
2
  9
$DIMLWD
 70
-2
  9
$DIMLWE
 70
-2
  9
$DIMTMOVE
 70
0
  9
$DIMFXL
 40
1.0
  9
$DIMFXLON
 70
0
  9
$DIMJOGANG
 40
0.785398163397
  9
$DIMTFILL
 70
0
  9
$DIMTFILLCLR
 70
0
  9
$DIMARCSYM
 70
0
  9
$DIMLTYPE
  6

  9
$DIMLTEX1
  6

  9
$DIMLTEX2
  6

  9
$DIMTXTDIRECTION
 70
0
  9
$LUNITS
 70
2
  9
$LUPREC
 70
4
  9
$SKETCHINC
 40
1.0
  9
$FILLETRAD
 40
10.0
  9
$AUNITS
 70
0
  9
$AUPREC
 70
2
  9
$MENU
  1
.
  9
$ELEVATION
 40
0.0
  9
$PELEVATION
 40
0.0
  9
$THICKNESS
 40
0.0
  9
$LIMCHECK
 70
0
  9
$CHAMFERA
 40
0.0
  9
$CHAMFERB
 40
0.0
  9
$CHAMFERC
 40
0.0
  9
$CHAMFERD
 40
0.0
  9
$SKPOLY
 70
0
  9
$TDCREATE
 40
2460656.9616435184
  9
$TDUCREATE
 40
2458532.153996898
  9
$TDUPDATE
 40
2460656.9616435184
  9
$TDUUPDATE
 40
2458532.1544311
  9
$TDINDWG
 40
0.0
  9
$TDUSRTIMER
 40
0.0
  9
$USRTIMER
 70
1
  9
$ANGBASE
 50
0.0
  9
$ANGDIR
 70
0
  9
$PDMODE
 70
0
  9
$PDSIZE
 40
0.0
  9
$PLINEWID
 40
0.0
  9
$SPLFRAME
 70
0
  9
$SPLINETYPE
 70
6
  9
$SPLINESEGS
 70
8
  9
$HANDSEED
  5
54
  9
$SURFTAB1
 70
6
  9
$SURFTAB2
 70
6
  9
$SURFTYPE
 70
6
  9
$SURFU
 70
6
  9
$SURFV
 70
6
  9
$UCSBASE
  2

  9
$UCSNAME
  2

  9
$UCSORG
 10
0.0
 20
0.0
 30
0.0
  9
$UCSXDIR
 10
1.0
 20
0.0
 30
0.0
  9
$UCSYDIR
 10
0.0
 20
1.0
 30
0.0
  9
$UCSORTHOREF
  2

  9
$UCSORTHOVIEW
 70
0
  9
$UCSORGTOP
 10
0.0
 20
0.0
 30
0.0
  9
$UCSORGBOTTOM
 10
0.0
 20
0.0
 30
0.0
  9
$UCSORGLEFT
 10
0.0
 20
0.0
 30
0.0
  9
$UCSORGRIGHT
 10
0.0
 20
0.0
 30
0.0
  9
$UCSORGFRONT
 10
0.0
 20
0.0
 30
0.0
  9
$UCSORGBACK
 10
0.0
 20
0.0
 30
0.0
  9
$PUCSBASE
  2

  9
$PUCSNAME
  2

  9
$PUCSORG
 10
0.0
 20
0.0
 30
0.0
  9
$PUCSXDIR
 10
1.0
 20
0.0
 30
0.0
  9
$PUCSYDIR
 10
0.0
 20
1.0
 30
0.0
  9
$PUCSORTHOREF
  2

  9
$PUCSORTHOVIEW
 70
0
  9
$PUCSORGTOP
 10
0.0
 20
0.0
 30
0.0
  9
$PUCSORGBOTTOM
 10
0.0
 20
0.0
 30
0.0
  9
$PUCSORGLEFT
 10
0.0
 20
0.0
 30
0.0
  9
$PUCSORGRIGHT
 10
0.0
 20
0.0
 30
0.0
  9
$PUCSORGFRONT
 10
0.0
 20
0.0
 30
0.0
  9
$PUCSORGBACK
 10
0.0
 20
0.0
 30
0.0
  9
$USERI1
 70
0
  9
$USERI2
 70
0
  9
$USERI3
 70
0
  9
$USERI4
 70
0
  9
$USERI5
 70
0
  9
$USERR1
 40
0.0
  9
$USERR2
 40
0.0
  9
$USERR3
 40
0.0
  9
$USERR4
 40
0.0
  9
$USERR5
 40
0.0
  9
$WORLDVIEW
 70
1
  9
$SHADEDGE
 70
3
  9
$SHADEDIF
 70
70
  9
$TILEMODE
 70
1
  9
$MAXACTVP
 70
64
  9
$PINSBASE
 10
0.0
 20
0.0
 30
0.0
  9
$PLIMCHECK
 70
0
  9
$PEXTMIN
 10
1e+20
 20
1e+20
 30
1e+20
  9
$PEXTMAX
 10
-1e+20
 20
-1e+20
 30
-1e+20
  9
$PLIMMIN
 10
0.0
 20
0.0
  9
$PLIMMAX
 10
420.0
 20
297.0
  9
$UNITMODE
 70
0
  9
$VISRETAIN
 70
1
  9
$PLINEGEN
 70
0
  9
$PSLTSCALE
 70
1
  9
$TREEDEPTH
 70
3020
  9
$CMLSTYLE
  2
Standard
  9
$CMLJUST
 70
0
  9
$CMLSCALE
 40
20.0
  9
$PROXYGRAPHICS
 70
1
  9
$MEASUREMENT
 70
1
  9
$CELWEIGHT
370
-1
  9
$ENDCAPS
280
0
  9
$JOINSTYLE
280
0
  9
$LWDISPLAY
290
0
  9
$INSUNITS
 70
6
  9
$HYPERLINKBASE
  1

  9
$STYLESHEET
  1

  9
$XEDIT
290
1
  9
$CEPSNTYPE
380
0
  9
$PSTYLEMODE
290
1
  9
$FINGERPRINTGUID
  2
{A52E71A4-C72C-45B5-846A-2EDA71186470}
  9
$VERSIONGUID
  2
{F7D1DE58-B98A-4DCF-B41C-E8A8357C616A}
  9
$EXTNAMES
290
1
  9
$PSVPSCALE
 40
0.0
  9
$OLESTARTUP
290
0
  9
$SORTENTS
280
127
  9
$INDEXCTL
280
0
  9
$HIDETEXT
280
1
  9
$XCLIPFRAME
280
1
  9
$HALOGAP
280
0
  9
$OBSCOLOR
 70
257
  9
$OBSLTYPE
280
0
  9
$INTERSECTIONDISPLAY
280
0
  9
$INTERSECTIONCOLOR
 70
257
  9
$DIMASSOC
280
2
  9
$PROJECTNAME
  1

  9
$CAMERADISPLAY
290
0
  9
$LENSLENGTH
 40
50.0
  9
$CAMERAHEIGHT
 40
0.0
  9
$STEPSPERSEC
 40
24.0
  9
$STEPSIZE
 40
100.0
  9
$3DDWFPREC
 40
2.0
  9
$PSOLWIDTH
 40
0.005
  9
$PSOLHEIGHT
 40
0.08
  9
$LOFTANG1
 40
1.570796326795
  9
$LOFTANG2
 40
1.570796326795
  9
$LOFTMAG1
 40
0.0
  9
$LOFTMAG2
 40
0.0
  9
$LOFTPARAM
 70
7
  9
$LOFTNORMALS
280
1
  9
$LATITUDE
 40
37.795
  9
$LONGITUDE
 40
-122.394
  9
$NORTHDIRECTION
 40
0.0
  9
$TIMEZONE
 70
-8000
  9
$LIGHTGLYPHDISPLAY
280
1
  9
$TILEMODELIGHTSYNCH
280
1
  9
$CMATERIAL
347
20
  9
$SOLIDHIST
280
0
  9
$SHOWHIST
280
1
  9
$DWFFRAME
280
2
  9
$DGNFRAME
280
2
  9
$REALWORLDSCALE
290
1
  9
$INTERFERECOLOR
 62
256
  9
$CSHADOW
280
0
  9
$SHADOWPLANELOCATION
 40
0.0
  0
ENDSEC
  0
SECTION
  2
CLASSES
  0
CLASS
  1
ACDBDICTIONARYWDFLT
  2
AcDbDictionaryWithDefault
  3
ObjectDBX Classes
 90
0
 91
0
280
0
281
0
  0
CLASS
  1
SUN
  2
AcDbSun
  3
SCENEOE
 90
1153
 91
0
280
0
281
0
  0
CLASS
  1
VISUALSTYLE
  2
AcDbVisualStyle
  3
ObjectDBX Classes
 90
4095
 91
0
280
0
281
0
  0
CLASS
  1
MATERIAL
  2
AcDbMaterial
  3
ObjectDBX Classes
 90
1153
 91
0
280
0
281
0
  0
CLASS
  1
SCALE
  2
AcDbScale
  3
ObjectDBX Classes
 90
1153
 91
0
280
0
281
0
  0
CLASS
  1
TABLESTYLE
  2
AcDbTableStyle
  3
ObjectDBX Classes
 90
4095
 91
0
280
0
281
0
  0
CLASS
  1
MLEADERSTYLE
  2
AcDbMLeaderStyle
  3
ACDB_MLEADERSTYLE_CLASS
 90
4095
 91
0
280
0
281
0
  0
CLASS
  1
DICTIONARYVAR
  2
AcDbDictionaryVar
  3
ObjectDBX Classes
 90
0
 91
0
280
0
281
0
  0
CLASS
  1
CELLSTYLEMAP
  2
AcDbCellStyleMap
  3
ObjectDBX Classes
 90
1152
 91
0
280
0
281
0
  0
CLASS
  1
MENTALRAYRENDERSETTINGS
  2
AcDbMentalRayRenderSettings
  3
SCENEOE
 90
1024
 91
0
280
0
281
0
  0
CLASS
  1
ACDBDETAILVIEWSTYLE
  2
AcDbDetailViewStyle
  3
ObjectDBX Classes
 90
1025
 91
0
280
0
281
0
  0
CLASS
  1
ACDBSECTIONVIEWSTYLE
  2
AcDbSectionViewStyle
  3
ObjectDBX Classes
 90
1025
 91
0
280
0
281
0
  0
CLASS
  1
RASTERVARIABLES
  2
AcDbRasterVariables
  3
ISM
 90
0
 91
0
280
0
281
0
  0
CLASS
  1
LAYOUT
  2
AcDbLayout
  3
ObjectDBX Classes
 90
0
 91
0
280
0
281
0
  0
CLASS
  1
ACDBPLACEHOLDER
  2
AcDbPlaceHolder
  3
ObjectDBX Classes
 90
0
 91
0
280
0
281
0
  0
ENDSEC
  0
SECTION
  2
TABLES
  0
TABLE
  2
VPORT
  5
8
330
0
100
AcDbSymbolTable
 70
1
  0
VPORT
  5
23
330
8
100
AcDbSymbolTableRecord
100
AcDbViewportTableRecord
  2
*Active
 70
0
 10
0.0
 20
0.0
 11
1.0
 21
1.0
 12
0.0
 22
0.0
 13
0.0
 23
0.0
 14
0.5
 24
0.5
 15
0.5
 25
0.5
 16
0.0
 26
0.0
 36
1.0
 17
0.0
 27
0.0
 37
0.0
 40
1000.0
 41
1.34
 42
50.0
 43
0.0
 44
0.0
 50
0.0
 51
0.0
 71
0
 72
1000
 73
1
 74
3
 75
0
 76
0
 77
0
 78
0
281
0
 65
0
146
0.0
  0
ENDTAB
  0
TABLE
  2
LTYPE
  5
2
330
0
100
AcDbSymbolTable
 70
3
  0
LTYPE
  5
24
330
2
100
AcDbSymbolTableRecord
100
AcDbLinetypeTableRecord
  2
ByBlock
 70
0
  3

 72
65
 73
0
 40
0.0
  0
LTYPE
  5
25
330
2
100
AcDbSymbolTableRecord
100
AcDbLinetypeTableRecord
  2
ByLayer
 70
0
  3

 72
65
 73
0
 40
0.0
  0
LTYPE
  5
26
330
2
100
AcDbSymbolTableRecord
100
AcDbLinetypeTableRecord
  2
Continuous
 70
0
  3

 72
65
 73
0
 40
0.0
  0
ENDTAB
  0
TABLE
  2
LAYER
  5
1
330
0
100
AcDbSymbolTable
 70
2
  0
LAYER
  5
27
330
1
100
AcDbSymbolTableRecord
100
AcDbLayerTableRecord
  2
0
 70
0
 62
7
  6
Continuous
370
-3
390
13
347
21
  0
LAYER
  5
28
330
1
100
AcDbSymbolTableRecord
100
AcDbLayerTableRecord
  2
Defpoints
 70
0
 62
7
  6
Continuous
290
0
370
-3
390
13
347
21
  0
ENDTAB
  0
TABLE
  2
STYLE
  5
5
330
0
100
AcDbSymbolTable
 70
1
  0
STYLE
  5
29
330
5
100
AcDbSymbolTableRecord
100
AcDbTextStyleTableRecord
  2
Standard
 70
0
 40
0.0
 41
1.0
 50
0.0
 71
0
 42
2.5
  3
txt
  4

  0
ENDTAB
  0
TABLE
  2
VIEW
  5
7
330
0
100
AcDbSymbolTable
 70
0
  0
ENDTAB
  0
TABLE
  2
UCS
  5
6
330
0
100
AcDbSymbolTable
 70
0
  0
ENDTAB
  0
TABLE
  2
APPID
  5
3
330
0
100
AcDbSymbolTable
 70
3
  0
APPID
  5
2A
330
3
100
AcDbSymbolTableRecord
100
AcDbRegAppTableRecord
  2
ACAD
 70
0
  0
APPID
  5
51
330
3
100
AcDbSymbolTableRecord
100
AcDbRegAppTableRecord
  2
HATCHBACKGROUNDCOLOR
 70
0
  0
APPID
  5
52
330
3
100
AcDbSymbolTableRecord
100
AcDbRegAppTableRecord
  2
EZDXF
 70
0
  0
ENDTAB
  0
TABLE
  2
DIMSTYLE
  5
4
330
0
100
AcDbSymbolTable
 70
1
100
AcDbDimStyleTable
  0
DIMSTYLE
105
2B
330
4
100
AcDbSymbolTableRecord
100
AcDbDimStyleTableRecord
  2
Standard
 70
0
 40
1.0
 41
2.5
 42
0.625
 43
3.75
 44
1.25
 45
0.0
 46
0.0
 47
0.0
 48
0.0
 49
2.5
140
2.5
141
2.5
142
0.0
143
0.03937007874
144
1.0
145
0.0
146
1.0
147
0.625
148
0.0
 69
0
 70
0
 71
0
 72
0
 73
0
 74
0
 75
0
 76
0
 77
1
 78
8
 79
3
170
0
171
3
172
1
173
0
174
0
175
0
176
0
177
0
178
0
179
2
271
2
272
2
273
2
274
3
275
0
276
0
277
2
278
44
279
0
280
0
281
0
282
0
283
0
284
8
285
0
286
0
288
0
289
3
290
0
371
-2
372
-2
  0
ENDTAB
  0
TABLE
  2
BLOCK_RECORD
  5
9
330
0
100
AcDbSymbolTable
 70
2
  0
BLOCK_RECORD
  5
17
330
9
100
AcDbSymbolTableRecord
100
AcDbBlockTableRecord
  2
*Model_Space
340
1A
 70
0
280
1
281
0
  0
BLOCK_RECORD
  5
1B
330
9
100
AcDbSymbolTableRecord
100
AcDbBlockTableRecord
  2
*Paper_Space
340
1E
 70
0
280
1
281
0
  0
ENDTAB
  0
ENDSEC
  0
SECTION
  2
BLOCKS
  0
BLOCK
  5
18
330
17
100
AcDbEntity
  8
0
100
AcDbBlockBegin
  2
*Model_Space
 70
0
 10
0.0
 20
0.0
 30
0.0
  3
*Model_Space
  1

  0
ENDBLK
  5
19
330
17
100
AcDbEntity
  8
0
100
AcDbBlockEnd
  0
BLOCK
  5
1C
330
1B
100
AcDbEntity
  8
0
100
AcDbBlockBegin
  2
*Paper_Space
 70
0
 10
0.0
 20
0.0
 30
0.0
  3
*Paper_Space
  1

  0
ENDBLK
  5
1D
330
1B
100
AcDbEntity
  8
0
100
AcDbBlockEnd
  0
ENDSEC
  0
SECTION
  2
ENTITIES
  0
LWPOLYLINE
  5
2F
330
17
100
AcDbEntity
  8
0
100
AcDbPolyline
 90
5
 70
0
 10
28.432852804032308
 20
49.43285280403231
 10
28.432852804032308
 20
-76.4328528040323
 10
-37.43285280403231
 20
-76.4328528040323
 10
-37.43285280403231
 20
49.43285280403231
 10
28.432852804032308
 20
49.43285280403231
  0
LWPOLYLINE
  5
30
330
17
100
AcDbEntity
  8
0
100
AcDbPolyline
 90
25
 70
0
 10
-0.12078454382054701
 20
-35.887999569199614
 10
-0.12102244544305571
 20
-35.88804689077455
 10
-0.3461404014509468
 20
-35.98129380128621
 10
-0.3463010395817989
 20
-35.98140113625369
 10
-0.5185988637500457
 20
-36.15369896042379
 10
-0.5187061987175404
 20
-36.153859598554675
 10
-0.6119531092236116
 20
-36.378977554547674
 10
-0.6120004307985623
 20
-36.37921545617025
 10
-0.624
 20
-36.50104912684978
 10
-0.624
 20
-37.49895087315022
 10
-0.6120004307985623
 20
-37.62078454382975
 10
-0.6119531092236116
 20
-37.621022445452326
 10
-0.5187061987175406
 20
-37.846140401445325
 10
-0.5185988637500459
 20
-37.84630103957621
 10
-0.3463010395817992
 20
-38.01859886374631
 10
-0.3461404014509471
 20
-38.01870619871379
 10
-0.1210224454430555
 20
-38.11195310922545
 10
-0.1207845438205468
 20
-38.112000430800386
 10
0.0
 20
-38.123896670024266
 10
0.0
 20
-37.5
 10
4.25
 20
-37.5
 10
4.25
 20
-36.5
 10
0.0
 20
-36.5
 10
0.0
 20
-35.876103329975734
 10
-0.12078454382054701
 20
-35.887999569199614
  0
LWPOLYLINE
  5
31
330
17
100
AcDbEntity
  8
0
100
AcDbPolyline
 90
25
 70
0
 10
10.120784543820566
 20
-38.112000430800386
 10
10.121022445443074
 20
-38.11195310922545
 10
10.346140401450718
 20
-38.01870619871394
 10
10.346301039581567
 20
-38.01859886374647
 10
10.518598863750407
 20
-37.84630103957568
 10
10.518706198717894
 20
-37.8461404014448
 10
10.611953109223709
 20
-37.621022445451835
 10
10.612000430798657
 20
-37.620784543829274
 10
10.623999999999999
 20
-37.498950873150214
 10
10.623999999999999
 20
-36.501049126849786
 10
10.612000430798657
 20
-36.379215456170726
 10
10.611953109223709
 20
-36.378977554548165
 10
10.518706198717894
 20
-36.1538595985552
 10
10.518598863750407
 20
-36.15369896042432
 10
10.346301039581567
 20
-35.98140113625353
 10
10.346140401450718
 20
-35.98129380128606
 10
10.121022445443074
 20
-35.88804689077455
 10
10.120784543820566
 20
-35.887999569199614
 10
10.0
 20
-35.876103329975734
 10
10.0
 20
-36.5
 10
5.75
 20
-36.5
 10
5.75
 20
-37.5
 10
10.0
 20
-37.5
 10
10.0
 20
-38.123896670024266
 10
10.120784543820566
 20
-38.112000430800386
  0
LWPOLYLINE
  5
32
330
17
100
AcDbEntity
  8
0
100
AcDbPolyline
 90
29
 70
0
 10
-14.0
 20
-31.5
 10
-14.0
 20
-30.876103329975734
 10
-14.120784543831475
 20
-30.887999569201774
 10
-14.121022445454017
 20
-30.888046890776717
 10
-14.346140401446766
 20
-30.981293801283417
 10
-14.346301039577648
 20
-30.98140113625091
 10
-14.518598863748648
 20
-31.15369896042169
 10
-14.518706198716139
 20
-31.153859598552568
 10
-14.611953109223926
 20
-31.378977554549248
 10
-14.612000538422183
 20
-31.379215997230727
 10
-14.612740101008765
 20
-31.386641108761918
 10
-14.612844504097202
 20
-31.386996640483
 10
-14.613071199111385
 20
-31.387289748279073
 10
-14.61338906018895
 20
-31.387480187626224
 10
-14.814734242384466
 20
-31.4617603469608
 10
-14.81488471763587
 20
-31.461848542031753
 10
-14.98184566702287
 20
-31.60444666412919
 10
-14.981956315781588
 20
-31.60458149003179
 10
-15.0892419895619
 20
-31.79615384514027
 10
-15.089299133724039
 20
-31.796318635056693
 10
-15.12155909271517
 20
-32.0
 10
-14.5
 20
-32.0
 10
-14.461939766255643
 20
-32.19134171618254
 10
-14.353553390593273
 20
-32.35355339059328
 10
-14.191341716182546
 20
-32.46193976625565
 10
-14.0
 20
-32.5
 10
-9.75
 20
-32.5
 10
-9.75
 20
-31.5
 10
-14.0
 20
-31.5
  0
LWPOLYLINE
  5
33
330
17
100
AcDbEntity
  8
0
100
AcDbPolyline
 90
25
 70
0
 10
-3.879215456179434
 20
-33.112000430800386
 10
-3.8789775545569256
 20
-33.11195310922545
 10
-3.6538595985492814
 20
-33.01870619871394
 10
-3.6536989604184313
 20
-33.01859886374647
 10
-3.4814011362496
 20
-32.846301039575685
 10
-3.481293801282102
 20
-32.84614040144479
 10
-3.388046890776563
 20
-32.62102244545321
 10
-3.3879995692016127
 20
-32.62078454383064
 10
-3.376
 20
-32.49895087315022
 10
-3.376
 20
-31.50104912684977
 10
-3.387999569201396
 20
-31.379215456170453
 10
-3.388046890776346
 20
-31.378977554547873
 10
-3.4812938012838606
 20
-31.153859598552568
 10
-3.4814011362513524
 20
-31.153698960421686
 10
-3.653698960422348
 20
-30.98140113625091
 10
-3.6538595985532325
 20
-30.981293801283417
 10
-3.87897755454598
 20
-30.888046890776717
 10
-3.8792154561685255
 20
-30.887999569201774
 10
-4.0
 20
-30.876103329975734
 10
-4.0
 20
-31.5
 10
-8.25
 20
-31.5
 10
-8.25
 20
-32.5
 10
-4.0
 20
-32.5
 10
-4.0
 20
-33.123896670024266
 10
-3.879215456179434
 20
-33.112000430800386
  0
LWPOLYLINE
  5
34
330
17
100
AcDbEntity
  8
0
100
AcDbPolyline
 90
25
 70
0
 10
-14.0
 20
-9.5
 10
-14.0
 20
-8.876103329975734
 10
-14.120784543828726
 20
-8.887999569201234
 10
-14.121022445451299
 20
-8.888046890776183
 10
-14.346140401444792
 20
-8.981293801282101
 10
-14.346301039575687
 20
-8.981401136249602
 10
-14.518598863750398
 20
-9.153698960424313
 10
-14.518706198717899
 20
-9.153859598555208
 10
-14.611953109223817
 20
-9.378977554548701
 10
-14.612000430798766
 20
-9.379215456171274
 10
-14.623999999999999
 20
-9.50104912684978
 10
-14.623999999999999
 20
-10.49895087315022
 10
-14.612000430798766
 20
-10.620784543828726
 10
-14.611953109223817
 20
-10.621022445451299
 10
-14.518706198717899
 20
-10.846140401444792
 10
-14.518598863750398
 20
-10.846301039575687
 10
-14.346301039575687
 20
-11.018598863750398
 10
-14.346140401444792
 20
-11.018706198717899
 10
-14.121022445451299
 20
-11.111953109223817
 10
-14.120784543828726
 20
-11.112000430798766
 10
-14.0
 20
-11.123896670024266
 10
-14.0
 20
-10.5
 10
-9.75
 20
-10.5
 10
-9.75
 20
-9.5
 10
-14.0
 20
-9.5
  0
LWPOLYLINE
  5
35
330
17
100
AcDbEntity
  8
0
100
AcDbPolyline
 90
29
 70
0
 10
-3.8792154561712704
 20
-11.112000430798766
 10
-3.8789775545487024
 20
-11.111953109223817
 10
-3.6538595985552043
 20
-11.018706198717897
 10
-3.653698960424312
 20
-11.018598863750398
 10
-3.4814011362496027
 20
-10.84630103957569
 10
-3.481293801282105
 20
-10.846140401444798
 10
-3.388046890776455
 20
-10.621022445452665
 10
-3.387999461578195
 20
-10.620784002771174
 10
-3.387259898991241
 20
-10.613358891236354
 10
-3.3871554959028027
 20
-10.613003359515268
 10
-3.3869288008886187
 20
-10.612710251719196
 10
-3.386610939811052
 20
-10.612519812372048
 10
-3.1852657576108356
 20
-10.538239653036443
 10
-3.1851152823594426
 20
-10.5381514579655
 10
-3.0181543329784004
 20
-10.395553335872355
 10
-3.0180436842196716
 20
-10.395418509969742
 10
-2.9107580104375175
 20
-10.203846154858052
 10
-2.9107008662753775
 20
-10.20368136494162
 10
-2.878440907284547
 20
-10.0
 10
-3.5
 20
-10.0
 10
-3.5380602337443565
 20
-9.808658283817454
 10
-3.646446609406726
 20
-9.646446609406727
 10
-3.808658283817455
 20
-9.538060233744357
 10
-4.0
 20
-9.5
 10
-8.25
 20
-9.5
 10
-8.25
 20
-10.5
 10
-4.0
 20
-10.5
 10
-4.0
 20
-11.123896670024266
 10
-3.8792154561712704
 20
-11.112000430798766
  0
LWPOLYLINE
  5
36
330
17
100
AcDbEntity
  8
0
100
AcDbPolyline
 90
17
 70
0
 10
-26.89276695296637
 20
-65.89276695296637
 10
-26.081708580912725
 20
-66.43469883127821
 10
-25.125
 20
-66.625
 10
-24.168291419087275
 20
-66.43469883127821
 10
-23.35723304703363
 20
-65.89276695296637
 10
-22.81530116872178
 20
-65.08170858091272
 10
-22.625
 20
-64.125
 10
-22.815301168721785
 20
-63.168291419087275
 10
-23.35723304703363
 20
-62.35723304703363
 10
-24.168291419087275
 20
-61.81530116872178
 10
-25.125
 20
-61.625
 10
-26.081708580912725
 20
-61.81530116872178
 10
-26.89276695296637
 20
-62.35723304703363
 10
-27.43469883127822
 20
-63.168291419087275
 10
-27.625
 20
-64.125
 10
-27.43469883127822
 20
-65.08170858091272
 10
-26.89276695296637
 20
-65.89276695296637
  0
LWPOLYLINE
  5
37
330
17
100
AcDbEntity
  8
0
100
AcDbPolyline
 90
17
 70
0
 10
14.357233047033631
 20
-65.89276695296637
 10
15.168291419087275
 20
-66.43469883127821
 10
16.125
 20
-66.625
 10
17.081708580912725
 20
-66.43469883127821
 10
17.89276695296637
 20
-65.89276695296637
 10
18.43469883127822
 20
-65.08170858091272
 10
18.625
 20
-64.125
 10
18.434698831278215
 20
-63.168291419087275
 10
17.89276695296637
 20
-62.35723304703363
 10
17.081708580912725
 20
-61.81530116872178
 10
16.125
 20
-61.625
 10
15.168291419087275
 20
-61.81530116872178
 10
14.357233047033631
 20
-62.35723304703363
 10
13.815301168721783
 20
-63.168291419087275
 10
13.625
 20
-64.125
 10
13.815301168721783
 20
-65.08170858091272
 10
14.357233047033631
 20
-65.89276695296637
  0
LWPOLYLINE
  5
38
330
17
100
AcDbEntity
  8
0
100
AcDbPolyline
 90
17
 70
0
 10
-26.89276695296637
 20
35.35723304703363
 10
-26.081708580912725
 20
34.81530116872178
 10
-25.125
 20
34.625
 10
-24.168291419087275
 20
34.81530116872178
 10
-23.35723304703363
 20
35.35723304703363
 10
-22.81530116872178
 20
36.168291419087275
 10
-22.625
 20
37.125
 10
-22.815301168721785
 20
38.081708580912725
 10
-23.35723304703363
 20
38.89276695296637
 10
-24.168291419087275
 20
39.43469883127822
 10
-25.125
 20
39.625
 10
-26.081708580912725
 20
39.43469883127822
 10
-26.89276695296637
 20
38.89276695296637
 10
-27.43469883127822
 20
38.081708580912725
 10
-27.625
 20
37.125
 10
-27.43469883127822
 20
36.168291419087275
 10
-26.89276695296637
 20
35.35723304703363
  0
LWPOLYLINE
  5
39
330
17
100
AcDbEntity
  8
0
100
AcDbPolyline
 90
17
 70
0
 10
14.357233047033631
 20
35.35723304703363
 10
15.168291419087275
 20
34.81530116872178
 10
16.125
 20
34.625
 10
17.081708580912725
 20
34.81530116872178
 10
17.89276695296637
 20
35.35723304703363
 10
18.43469883127822
 20
36.168291419087275
 10
18.625
 20
37.125
 10
18.434698831278215
 20
38.081708580912725
 10
17.89276695296637
 20
38.89276695296637
 10
17.081708580912725
 20
39.43469883127822
 10
16.125
 20
39.625
 10
15.168291419087275
 20
39.43469883127822
 10
14.357233047033631
 20
38.89276695296637
 10
13.815301168721783
 20
38.081708580912725
 10
13.625
 20
37.125
 10
13.815301168721783
 20
36.168291419087275
 10
14.357233047033631
 20
35.35723304703363
  0
LWPOLYLINE
  5
3A
330
17
100
AcDbEntity
  8
0
100
AcDbPolyline
 90
11
 70
0
 10
-12.1072265625
 20
-64.03203125
 10
-12.5470703125
 20
-64.03203125
 10
-13.2814453125
 20
-66.134375
 10
-14.0095703125
 20
-64.03203125
 10
-14.483007812499999
 20
-64.03203125
 10
-13.498632812499999
 20
-66.6296875
 10
-13.7511015625
 20
-67.15578125
 10
-14.192914062499998
 20
-67.2359375
 10
-14.049117187499998
 20
-67.6724921875
 10
-13.388289062499998
 20
-67.33953125
 10
-12.1072265625
 20
-64.03203125
  0
LWPOLYLINE
  5
3B
330
17
100
AcDbEntity
  8
0
100
AcDbPolyline
 90
15
 70
0
 10
-16.84970703125
 20
-65.340625
 10
-17.12701953125
 20
-66.18278125
 10
-16.58730078125
 20
-66.65021875
 10
-15.60905078125
 20
-66.5103125
 10
-15.322363281249999
 20
-66.30546875
 10
-15.23486328125
 20
-66.625
 10
-14.775488281249999
 20
-66.625
 10
-14.96591796875
 20
-64.4446015625
 10
-15.46720703125
 20
-64.0234375
 10
-16.50673828125
 20
-64.065625
 10
-17.08798828125
 20
-64.771875
 10
-15.85548828125
 20
-64.3434375
 10
-15.436738281250001
 20
-64.53634375
 10
-15.35908203125
 20
-64.9796875
 10
-16.84970703125
 20
-65.340625
  0
LWPOLYLINE
  5
3C
330
17
100
AcDbEntity
  8
0
100
AcDbPolyline
 90
14
 70
0
 10
-11.877296874999999
 20
-65.22278125
 10
-11.547070312499999
 20
-66.33359375
 10
-10.556023437499999
 20
-66.6813984375
 10
-9.657812499999999
 20
-66.1994140625
 10
-9.5048828125
 20
-65.84609375
 10
-9.9587890625
 20
-65.78984375
 10
-10.3388671875
 20
-66.259859375
 10
-10.9404296875
 20
-66.265234375
 10
-11.419203125
 20
-65.52409375
 10
-9.492382812499999
 20
-65.440625
 10
-9.8197265625
 20
-64.32734375
 10
-10.5675703125
 20
-63.9769765625
 10
-11.474453125
 20
-64.2664296875
 10
-11.877296874999999
 20
-65.22278125
  0
LWPOLYLINE
  5
3D
330
17
100
AcDbEntity
  8
0
100
AcDbPolyline
 90
10
 70
0
 10
-8.957714843749999
 20
-66.625
 10
-8.518652343749999
 20
-66.625
 10
-8.395839843749998
 20
-64.6423125
 10
-7.70068359375
 20
-64.52265625
 10
-7.549121093749999
 20
-64.11484375
 10
-8.11968359375
 20
-63.9875625
 10
-8.502714843749997
 20
-64.32221875
 10
-8.56240234375
 20
-64.03203125
 10
-8.957714843749999
 20
-64.03203125
 10
-8.957714843749999
 20
-66.625
  0
LWPOLYLINE
  5
3E
330
17
100
AcDbEntity
  8
0
100
AcDbPolyline
 90
9
 70
0
 10
-4.019273437499997
 20
-63.4393125
 10
-4.533953125
 20
-63.07315625
 10
-5.275234374999998
 20
-63.10690625
 10
-5.973734374999999
 20
-64.18740625
 10
-5.666796874999999
 20
-66.31484375
 10
-5.052296874999996
 20
-66.67109375
 10
-4.256289062499999
 20
-66.515078125
 10
-3.6987812499999997
 20
-65.2161015625
 10
-4.019273437499997
 20
-63.4393125
  0
LWPOLYLINE
  5
3F
330
17
100
AcDbEntity
  8
0
100
AcDbPolyline
 90
7
 70
0
 10
-17.52265625
 20
-66.20234375
 10
-19.28515625
 20
-66.20234375
 10
-19.28515625
 20
-63.04609375
 10
-19.75859375
 20
-63.04609375
 10
-19.75859375
 20
-66.625
 10
-17.52265625
 20
-66.625
 10
-17.52265625
 20
-66.20234375
  0
LWPOLYLINE
  5
40
330
17
100
AcDbEntity
  8
0
100
AcDbPolyline
 90
5
 70
0
 10
99.29855841209692
 20
49.43285280403231
 10
99.29855841209692
 20
-76.4328528040323
 10
33.43285280403231
 20
-76.4328528040323
 10
33.43285280403231
 20
49.43285280403231
 10
99.29855841209692
 20
49.43285280403231
  0
LWPOLYLINE
  5
41
330
17
100
AcDbEntity
  8
0
100
AcDbPolyline
 90
25
 70
0
 10
70.74492106424407
 20
-35.887999569199614
 10
70.74468316262156
 20
-35.88804689077455
 10
70.51956520661366
 20
-35.98129380128621
 10
70.51940456848281
 20
-35.98140113625369
 10
70.34710674431457
 20
-36.15369896042379
 10
70.34699940934708
 20
-36.153859598554675
 10
70.25375249884101
 20
-36.378977554547674
 10
70.25370517726606
 20
-36.37921545617025
 10
70.24170560806462
 20
-36.50104912684978
 10
70.24170560806462
 20
-37.49895087315022
 10
70.25370517726606
 20
-37.62078454382975
 10
70.25375249884101
 20
-37.621022445452326
 10
70.34699940934708
 20
-37.846140401445325
 10
70.34710674431457
 20
-37.84630103957621
 10
70.51940456848281
 20
-38.01859886374631
 10
70.51956520661366
 20
-38.01870619871379
 10
70.74468316262156
 20
-38.11195310922545
 10
70.74492106424407
 20
-38.112000430800386
 10
70.86570560806462
 20
-38.123896670024266
 10
70.86570560806462
 20
-37.5
 10
75.11570560806462
 20
-37.5
 10
75.11570560806462
 20
-36.5
 10
70.86570560806462
 20
-36.5
 10
70.86570560806462
 20
-35.876103329975734
 10
70.74492106424407
 20
-35.887999569199614
  0
LWPOLYLINE
  5
42
330
17
100
AcDbEntity
  8
0
100
AcDbPolyline
 90
25
 70
0
 10
80.98649015188518
 20
-38.112000430800386
 10
80.98672805350769
 20
-38.11195310922545
 10
81.21184600951534
 20
-38.01870619871394
 10
81.21200664764618
 20
-38.01859886374647
 10
81.38430447181503
 20
-37.84630103957568
 10
81.38441180678251
 20
-37.8461404014448
 10
81.47765871728832
 20
-37.621022445451835
 10
81.47770603886327
 20
-37.620784543829274
 10
81.48970560806461
 20
-37.498950873150214
 10
81.48970560806461
 20
-36.501049126849786
 10
81.47770603886327
 20
-36.379215456170726
 10
81.47765871728832
 20
-36.378977554548165
 10
81.38441180678251
 20
-36.1538595985552
 10
81.38430447181503
 20
-36.15369896042432
 10
81.21200664764618
 20
-35.98140113625353
 10
81.21184600951534
 20
-35.98129380128606
 10
80.98672805350769
 20
-35.88804689077455
 10
80.98649015188518
 20
-35.887999569199614
 10
80.86570560806462
 20
-35.876103329975734
 10
80.86570560806462
 20
-36.5
 10
76.61570560806462
 20
-36.5
 10
76.61570560806462
 20
-37.5
 10
80.86570560806462
 20
-37.5
 10
80.86570560806462
 20
-38.123896670024266
 10
80.98649015188518
 20
-38.112000430800386
  0
LWPOLYLINE
  5
43
330
17
100
AcDbEntity
  8
0
100
AcDbPolyline
 90
29
 70
0
 10
56.865705608064616
 20
-31.5
 10
56.865705608064616
 20
-30.876103329975734
 10
56.74492106423314
 20
-30.887999569201774
 10
56.7446831626106
 20
-30.888046890776717
 10
56.51956520661785
 20
-30.981293801283417
 10
56.51940456848697
 20
-30.98140113625091
 10
56.347106744315965
 20
-31.15369896042169
 10
56.34699940934848
 20
-31.153859598552568
 10
56.25375249884069
 20
-31.378977554549248
 10
56.253705069642436
 20
-31.379215997230727
 10
56.25296550705585
 20
-31.386641108761918
 10
56.25286110396741
 20
-31.386996640483
 10
56.25263440895323
 20
-31.387289748279073
 10
56.252316547875665
 20
-31.387480187626224
 10
56.05097136568015
 20
-31.4617603469608
 10
56.050820890428746
 20
-31.461848542031753
 10
55.88385994104175
 20
-31.60444666412919
 10
55.88374929228303
 20
-31.60458149003179
 10
55.77646361850272
 20
-31.79615384514027
 10
55.776406474340575
 20
-31.796318635056693
 10
55.74414651534944
 20
-32.0
 10
56.365705608064616
 20
-32.0
 10
56.403765841808976
 20
-32.19134171618254
 10
56.51215221747134
 20
-32.35355339059328
 10
56.67436389188207
 20
-32.46193976625565
 10
56.865705608064616
 20
-32.5
 10
61.115705608064616
 20
-32.5
 10
61.115705608064616
 20
-31.5
 10
56.865705608064616
 20
-31.5
  0
LWPOLYLINE
  5
44
330
17
100
AcDbEntity
  8
0
100
AcDbPolyline
 90
25
 70
0
 10
66.98649015188518
 20
-33.112000430800386
 10
66.98672805350769
 20
-33.11195310922545
 10
67.21184600951534
 20
-33.01870619871394
 10
67.21200664764618
 20
-33.01859886374647
 10
67.38430447181501
 20
-32.846301039575685
 10
67.38441180678251
 20
-32.84614040144479
 10
67.47765871728805
 20
-32.62102244545321
 10
67.477706038863
 20
-32.62078454383064
 10
67.48970560806461
 20
-32.49895087315022
 10
67.48970560806461
 20
-31.50104912684977
 10
67.47770603886322
 20
-31.379215456170453
 10
67.47765871728826
 20
-31.378977554547873
 10
67.38441180678076
 20
-31.153859598552568
 10
67.38430447181327
 20
-31.153698960421686
 10
67.21200664764227
 20
-30.98140113625091
 10
67.21184600951139
 20
-30.981293801283417
 10
66.98672805351863
 20
-30.888046890776717
 10
66.98649015189609
 20
-30.887999569201774
 10
66.86570560806462
 20
-30.876103329975734
 10
66.86570560806462
 20
-31.5
 10
62.615705608064616
 20
-31.5
 10
62.615705608064616
 20
-32.5
 10
66.86570560806462
 20
-32.5
 10
66.86570560806462
 20
-33.123896670024266
 10
66.98649015188518
 20
-33.112000430800386
  0
LWPOLYLINE
  5
45
330
17
100
AcDbEntity
  8
0
100
AcDbPolyline
 90
25
 70
0
 10
56.865705608064616
 20
-9.5
 10
56.865705608064616
 20
-8.876103329975734
 10
56.74492106423589
 20
-8.887999569201234
 10
56.74468316261331
 20
-8.888046890776183
 10
56.51956520661982
 20
-8.981293801282101
 10
56.51940456848893
 20
-8.981401136249602
 10
56.34710674431422
 20
-9.153698960424313
 10
56.346999409346715
 20
-9.153859598555208
 10
56.2537524988408
 20
-9.378977554548701
 10
56.25370517726585
 20
-9.379215456171274
 10
56.24170560806462
 20
-9.50104912684978
 10
56.24170560806462
 20
-10.49895087315022
 10
56.25370517726585
 20
-10.620784543828726
 10
56.2537524988408
 20
-10.621022445451299
 10
56.346999409346715
 20
-10.846140401444792
 10
56.34710674431422
 20
-10.846301039575687
 10
56.51940456848893
 20
-11.018598863750398
 10
56.51956520661982
 20
-11.018706198717899
 10
56.74468316261331
 20
-11.111953109223817
 10
56.74492106423589
 20
-11.112000430798766
 10
56.865705608064616
 20
-11.123896670024266
 10
56.865705608064616
 20
-10.5
 10
61.115705608064616
 20
-10.5
 10
61.115705608064616
 20
-9.5
 10
56.865705608064616
 20
-9.5
  0
LWPOLYLINE
  5
46
330
17
100
AcDbEntity
  8
0
100
AcDbPolyline
 90
29
 70
0
 10
66.98649015189335
 20
-11.112000430798766
 10
66.98672805351592
 20
-11.111953109223817
 10
67.21184600950942
 20
-11.018706198717897
 10
67.21200664764031
 20
-11.018598863750398
 10
67.38430447181501
 20
-10.84630103957569
 10
67.38441180678251
 20
-10.846140401444798
 10
67.47765871728816
 20
-10.621022445452665
 10
67.47770614648643
 20
-10.620784002771174
 10
67.47844570907337
 20
-10.613358891236354
 10
67.47855011216181
 20
-10.613003359515268
 10
67.47877680717599
 20
-10.612710251719196
 10
67.47909466825357
 20
-10.612519812372048
 10
67.68043985045378
 20
-10.538239653036443
 10
67.68059032570517
 20
-10.5381514579655
 10
67.84755127508622
 20
-10.395553335872355
 10
67.84766192384494
 20
-10.395418509969742
 10
67.9549475976271
 20
-10.203846154858052
 10
67.95500474178924
 20
-10.20368136494162
 10
67.98726470078007
 20
-10.0
 10
67.36570560806462
 20
-10.0
 10
67.32764537432026
 20
-9.808658283817454
 10
67.21925899865789
 20
-9.646446609406727
 10
67.05704732424716
 20
-9.538060233744357
 10
66.86570560806462
 20
-9.5
 10
62.615705608064616
 20
-9.5
 10
62.615705608064616
 20
-10.5
 10
66.86570560806462
 20
-10.5
 10
66.86570560806462
 20
-11.123896670024266
 10
66.98649015189335
 20
-11.112000430798766
  0
LWPOLYLINE
  5
47
330
17
100
AcDbEntity
  8
0
100
AcDbPolyline
 90
17
 70
0
 10
43.97293865509825
 20
-65.89276695296637
 10
44.78399702715189
 20
-66.43469883127821
 10
45.740705608064616
 20
-66.625
 10
46.69741418897734
 20
-66.43469883127821
 10
47.508472561030985
 20
-65.89276695296637
 10
48.050404439342834
 20
-65.08170858091272
 10
48.240705608064616
 20
-64.125
 10
48.05040443934283
 20
-63.168291419087275
 10
47.508472561030985
 20
-62.35723304703363
 10
46.69741418897734
 20
-61.81530116872178
 10
45.740705608064616
 20
-61.625
 10
44.78399702715189
 20
-61.81530116872178
 10
43.97293865509825
 20
-62.35723304703363
 10
43.4310067767864
 20
-63.168291419087275
 10
43.240705608064616
 20
-64.125
 10
43.4310067767864
 20
-65.08170858091272
 10
43.97293865509825
 20
-65.89276695296637
  0
LWPOLYLINE
  5
48
330
17
100
AcDbEntity
  8
0
100
AcDbPolyline
 90
17
 70
0
 10
85.22293865509825
 20
-65.89276695296637
 10
86.03399702715188
 20
-66.43469883127821
 10
86.99070560806462
 20
-66.625
 10
87.94741418897735
 20
-66.43469883127821
 10
88.75847256103098
 20
-65.89276695296637
 10
89.30040443934283
 20
-65.08170858091272
 10
89.49070560806462
 20
-64.125
 10
89.30040443934283
 20
-63.168291419087275
 10
88.75847256103098
 20
-62.35723304703363
 10
87.94741418897735
 20
-61.81530116872178
 10
86.99070560806462
 20
-61.625
 10
86.03399702715188
 20
-61.81530116872178
 10
85.22293865509825
 20
-62.35723304703363
 10
84.6810067767864
 20
-63.168291419087275
 10
84.49070560806462
 20
-64.125
 10
84.6810067767864
 20
-65.08170858091272
 10
85.22293865509825
 20
-65.89276695296637
  0
LWPOLYLINE
  5
49
330
17
100
AcDbEntity
  8
0
100
AcDbPolyline
 90
17
 70
0
 10
43.97293865509825
 20
35.35723304703363
 10
44.78399702715189
 20
34.81530116872178
 10
45.740705608064616
 20
34.625
 10
46.69741418897734
 20
34.81530116872178
 10
47.508472561030985
 20
35.35723304703363
 10
48.050404439342834
 20
36.168291419087275
 10
48.240705608064616
 20
37.125
 10
48.05040443934283
 20
38.081708580912725
 10
47.508472561030985
 20
38.89276695296637
 10
46.69741418897734
 20
39.43469883127822
 10
45.740705608064616
 20
39.625
 10
44.78399702715189
 20
39.43469883127822
 10
43.97293865509825
 20
38.89276695296637
 10
43.4310067767864
 20
38.081708580912725
 10
43.240705608064616
 20
37.125
 10
43.4310067767864
 20
36.168291419087275
 10
43.97293865509825
 20
35.35723304703363
  0
LWPOLYLINE
  5
4A
330
17
100
AcDbEntity
  8
0
100
AcDbPolyline
 90
17
 70
0
 10
85.22293865509825
 20
35.35723304703363
 10
86.03399702715188
 20
34.81530116872178
 10
86.99070560806462
 20
34.625
 10
87.94741418897735
 20
34.81530116872178
 10
88.75847256103098
 20
35.35723304703363
 10
89.30040443934283
 20
36.168291419087275
 10
89.49070560806462
 20
37.125
 10
89.30040443934283
 20
38.081708580912725
 10
88.75847256103098
 20
38.89276695296637
 10
87.94741418897735
 20
39.43469883127822
 10
86.99070560806462
 20
39.625
 10
86.03399702715188
 20
39.43469883127822
 10
85.22293865509825
 20
38.89276695296637
 10
84.6810067767864
 20
38.081708580912725
 10
84.49070560806462
 20
37.125
 10
84.6810067767864
 20
36.168291419087275
 10
85.22293865509825
 20
35.35723304703363
  0
LWPOLYLINE
  5
4B
330
17
100
AcDbEntity
  8
0
100
AcDbPolyline
 90
11
 70
0
 10
58.75847904556461
 20
-64.03203125
 10
58.31863529556462
 20
-64.03203125
 10
57.58426029556462
 20
-66.134375
 10
56.85613529556461
 20
-64.03203125
 10
56.38269779556462
 20
-64.03203125
 10
57.36707279556462
 20
-66.6296875
 10
57.11460404556462
 20
-67.15578125
 10
56.67279154556462
 20
-67.2359375
 10
56.816588420564614
 20
-67.6724921875
 10
57.477416545564616
 20
-67.33953125
 10
58.75847904556461
 20
-64.03203125
  0
LWPOLYLINE
  5
4C
330
17
100
AcDbEntity
  8
0
100
AcDbPolyline
 90
15
 70
0
 10
54.01599857681462
 20
-65.340625
 10
53.738686076814616
 20
-66.18278125
 10
54.278404826814615
 20
-66.65021875
 10
55.25665482681462
 20
-66.5103125
 10
55.54334232681462
 20
-66.30546875
 10
55.630842326814616
 20
-66.625
 10
56.09021732681462
 20
-66.625
 10
55.89978763931462
 20
-64.4446015625
 10
55.39849857681462
 20
-64.0234375
 10
54.358967326814614
 20
-64.065625
 10
53.77771732681462
 20
-64.771875
 10
55.01021732681461
 20
-64.3434375
 10
55.428967326814615
 20
-64.53634375
 10
55.50662357681462
 20
-64.9796875
 10
54.01599857681462
 20
-65.340625
  0
LWPOLYLINE
  5
4D
330
17
100
AcDbEntity
  8
0
100
AcDbPolyline
 90
14
 70
0
 10
58.98840873306462
 20
-65.22278125
 10
59.31863529556462
 20
-66.33359375
 10
60.309682170564614
 20
-66.6813984375
 10
61.20789310806462
 20
-66.1994140625
 10
61.360822795564616
 20
-65.84609375
 10
60.90691654556461
 20
-65.78984375
 10
60.526838420564616
 20
-66.259859375
 10
59.925275920564616
 20
-66.265234375
 10
59.44650248306462
 20
-65.52409375
 10
61.37332279556462
 20
-65.440625
 10
61.045979045564614
 20
-64.32734375
 10
60.29813529556462
 20
-63.9769765625
 10
59.39125248306462
 20
-64.2664296875
 10
58.98840873306462
 20
-65.22278125
  0
LWPOLYLINE
  5
4E
330
17
100
AcDbEntity
  8
0
100
AcDbPolyline
 90
10
 70
0
 10
61.90799076431462
 20
-66.625
 10
62.34705326431462
 20
-66.625
 10
62.46986576431462
 20
-64.6423125
 10
63.165022014314616
 20
-64.52265625
 10
63.31658451431461
 20
-64.11484375
 10
62.74602201431462
 20
-63.9875625
 10
62.36299076431462
 20
-64.32221875
 10
62.303303264314614
 20
-64.03203125
 10
61.90799076431462
 20
-64.03203125
 10
61.90799076431462
 20
-66.625
  0
LWPOLYLINE
  5
4F
330
17
100
AcDbEntity
  8
0
100
AcDbPolyline
 90
7
 70
0
 10
51.580549358064616
 20
-66.20234375
 10
51.580549358064616
 20
-63.04609375
 10
51.10711185806461
 20
-63.04609375
 10
51.10711185806461
 20
-66.625
 10
53.34304935806462
 20
-66.625
 10
53.34304935806462
 20
-66.20234375
 10
51.580549358064616
 20
-66.20234375
  0
LWPOLYLINE
  5
50
330
17
100
AcDbEntity
  8
0
100
AcDbPolyline
 90
12
 70
0
 10
66.69265873306462
 20
-65.76796875
 10
67.17625248306462
 20
-65.76796875
 10
67.17625248306462
 20
-65.36484375
 10
66.69265873306462
 20
-65.36484375
 10
66.69265873306462
 20
-63.04609375
 10
66.33406498306462
 20
-63.04609375
 10
64.70047123306462
 20
-65.36484375
 10
64.70047123306462
 20
-65.76796875
 10
66.25359623306461
 20
-65.76796875
 10
66.25359623306461
 20
-66.625
 10
66.69265873306462
 20
-66.625
 10
66.69265873306462
 20
-65.76796875
  0
ENDSEC
  0
SECTION
  2
OBJECTS
  0
DICTIONARY
  5
A
330
0
100
AcDbDictionary
280
0
281
1
  3
ACAD_COLOR
350
B
  3
ACAD_GROUP
350
C
  3
ACAD_LAYOUT
350
D
  3
ACAD_MATERIAL
350
E
  3
ACAD_MLEADERSTYLE
350
F
  3
ACAD_MLINESTYLE
350
10
  3
ACAD_PLOTSETTINGS
350
11
  3
ACAD_PLOTSTYLENAME
350
12
  3
ACAD_SCALELIST
350
14
  3
ACAD_TABLESTYLE
350
15
  3
ACAD_VISUALSTYLE
350
16
  3
EZDXF_META
350
2D
  0
DICTIONARY
  5
B
330
A
100
AcDbDictionary
280
0
281
1
  0
DICTIONARY
  5
C
330
A
100
AcDbDictionary
280
0
281
1
  0
DICTIONARY
  5
D
330
A
100
AcDbDictionary
280
0
281
1
  3
Model
350
1A
  3
Layout1
350
1E
  0
DICTIONARY
  5
E
330
A
100
AcDbDictionary
280
0
281
1
  3
ByBlock
350
1F
  3
ByLayer
350
20
  3
Global
350
21
  0
DICTIONARY
  5
F
330
A
100
AcDbDictionary
280
0
281
1
  3
Standard
350
2C
  0
DICTIONARY
  5
10
330
A
100
AcDbDictionary
280
0
281
1
  3
Standard
350
22
  0
DICTIONARY
  5
11
330
A
100
AcDbDictionary
280
0
281
1
  0
ACDBDICTIONARYWDFLT
  5
12
330
A
100
AcDbDictionary
280
0
281
1
  3
Normal
350
13
100
AcDbDictionaryWithDefault
340
13
  0
ACDBPLACEHOLDER
  5
13
330
12
  0
DICTIONARY
  5
14
330
A
100
AcDbDictionary
280
0
281
1
  0
DICTIONARY
  5
15
330
A
100
AcDbDictionary
280
0
281
1
  0
DICTIONARY
  5
16
330
A
100
AcDbDictionary
280
0
281
1
  0
LAYOUT
  5
1A
330
D
100
AcDbPlotSettings
  1

  4
A3
  6

 40
7.5
 41
20.0
 42
7.5
 43
20.0
 44
420.0
 45
297.0
 46
0.0
 47
0.0
 48
0.0
 49
0.0
140
0.0
141
0.0
142
1.0
143
1.0
 70
1024
 72
1
 73
0
 74
5
  7

 75
16
 76
0
 77
2
 78
300
147
1.0
148
0.0
149
0.0
100
AcDbLayout
  1
Model
 70
1
 71
0
 10
0.0
 20
0.0
 11
420.0
 21
297.0
 12
0.0
 22
0.0
 32
0.0
 14
1e+20
 24
1e+20
 34
1e+20
 15
-1e+20
 25
-1e+20
 35
-1e+20
146
0.0
 13
0.0
 23
0.0
 33
0.0
 16
1.0
 26
0.0
 36
0.0
 17
0.0
 27
1.0
 37
0.0
 76
1
330
17
  0
LAYOUT
  5
1E
330
D
100
AcDbPlotSettings
  1

  4
A3
  6

 40
7.5
 41
20.0
 42
7.5
 43
20.0
 44
420.0
 45
297.0
 46
0.0
 47
0.0
 48
0.0
 49
0.0
140
0.0
141
0.0
142
1.0
143
1.0
 70
0
 72
1
 73
0
 74
5
  7

 75
16
 76
0
 77
2
 78
300
147
1.0
148
0.0
149
0.0
100
AcDbLayout
  1
Layout1
 70
1
 71
1
 10
0.0
 20
0.0
 11
420.0
 21
297.0
 12
0.0
 22
0.0
 32
0.0
 14
1e+20
 24
1e+20
 34
1e+20
 15
-1e+20
 25
-1e+20
 35
-1e+20
146
0.0
 13
0.0
 23
0.0
 33
0.0
 16
1.0
 26
0.0
 36
0.0
 17
0.0
 27
1.0
 37
0.0
 76
1
330
1B
  0
MATERIAL
  5
1F
102
{ACAD_REACTORS
330
E
102
}
330
E
100
AcDbMaterial
  1
ByBlock
  2

 70
0
 40
1.0
 71
1
 41
1.0
 91
-1023410177
 42
1.0
 72
1
  3

 73
1
 74
1
 75
1
 44
0.5
 73
0
 45
1.0
 46
1.0
 77
1
  4

 78
1
 79
1
170
1
 48
1.0
171
1
  6

172
1
173
1
174
1
140
1.0
141
1.0
175
1
  7

176
1
177
1
178
1
143
1.0
179
1
  8

270
1
271
1
272
1
145
1.0
146
1.0
273
1
  9

274
1
275
1
276
1
 42
1.0
 72
1
  3

 73
1
 74
1
 75
1
 94
63
  0
MATERIAL
  5
20
102
{ACAD_REACTORS
330
E
102
}
330
E
100
AcDbMaterial
  1
ByLayer
  2

 70
0
 40
1.0
 71
1
 41
1.0
 91
-1023410177
 42
1.0
 72
1
  3

 73
1
 74
1
 75
1
 44
0.5
 73
0
 45
1.0
 46
1.0
 77
1
  4

 78
1
 79
1
170
1
 48
1.0
171
1
  6

172
1
173
1
174
1
140
1.0
141
1.0
175
1
  7

176
1
177
1
178
1
143
1.0
179
1
  8

270
1
271
1
272
1
145
1.0
146
1.0
273
1
  9

274
1
275
1
276
1
 42
1.0
 72
1
  3

 73
1
 74
1
 75
1
 94
63
  0
MATERIAL
  5
21
102
{ACAD_REACTORS
330
E
102
}
330
E
100
AcDbMaterial
  1
Global
  2

 70
0
 40
1.0
 71
1
 41
1.0
 91
-1023410177
 42
1.0
 72
1
  3

 73
1
 74
1
 75
1
 44
0.5
 73
0
 45
1.0
 46
1.0
 77
1
  4

 78
1
 79
1
170
1
 48
1.0
171
1
  6

172
1
173
1
174
1
140
1.0
141
1.0
175
1
  7

176
1
177
1
178
1
143
1.0
179
1
  8

270
1
271
1
272
1
145
1.0
146
1.0
273
1
  9

274
1
275
1
276
1
 42
1.0
 72
1
  3

 73
1
 74
1
 75
1
 94
63
  0
MLINESTYLE
  5
22
102
{ACAD_REACTORS
330
10
102
}
330
10
100
AcDbMlineStyle
  2
Standard
 70
0
  3

 62
256
 51
90.0
 52
90.0
 71
2
 49
0.5
 62
256
  6
BYLAYER
 49
-0.5
 62
256
  6
BYLAYER
  0
MLEADERSTYLE
  5
2C
102
{ACAD_REACTORS
330
F
102
}
330
F
100
AcDbMLeaderStyle
179
2
170
2
171
1
172
0
 90
2
 40
0.0
 41
0.0
173
1
 91
-1056964608
 92
-2
290
1
 42
2.0
291
1
 43
8.0
  3
Standard
 44
4.0
300

342
29
174
1
175
1
176
0
178
1
 93
-1056964608
 45
4.0
292
0
297
0
 46
4.0
 94
-1056964608
 47
1.0
 49
1.0
140
1.0
294
1
141
0.0
177
0
142
1.0
295
0
296
0
143
3.75
271
0
272
9
273
9
  0
DICTIONARY
  5
2D
330
A
100
AcDbDictionary
281
1
  3
CREATED_BY_EZDXF
350
2E
  3
WRITTEN_BY_EZDXF
350
53
  0
DICTIONARYVAR
  5
2E
330
2D
100
DictionaryVariables
280
0
  1
1.3.4 @ 2024-12-12T06:04:46.170903+00:00
  0
DICTIONARYVAR
  5
53
330
2D
100
DictionaryVariables
280
0
  1
1.3.4 @ 2024-12-12T06:04:46.183902+00:00
  0
ENDSEC
  0
EOF
